<svg width="32" height="50" viewBox="0 0 32 50" fill="none" xmlns="http://www.w3.org/2000/svg">
<path d="M20.7351 7.76227C24.7303 7.76227 27.567 9.05701 29.2454 11.6465C30.9475 14.212 31.7985 17.8924 31.7985 22.6877C31.7985 25.9006 31.6331 28.514 31.3021 30.5281C30.9948 32.5421 30.4274 34.0766 29.6 35.1316C28.7963 36.1865 27.6616 36.714 26.1959 36.714C24.9194 36.714 23.9265 36.2465 23.2173 35.3114C22.5318 34.4003 22.1063 33.2135 21.9408 31.7509H21.7989C21.3734 32.7339 20.7351 33.5371 19.8841 34.1605C19.0331 34.7839 18.0166 35.0956 16.8346 35.0956C14.8489 35.0956 13.395 34.3523 12.4731 32.8658C11.5511 31.3792 11.0902 29.3892 11.0902 26.8956C11.0902 23.8506 11.7166 21.4769 12.9695 19.7745C14.2461 18.0722 16.1372 17.221 18.643 17.221C19.6123 17.221 20.6052 17.3529 21.6216 17.6167C22.6618 17.8804 23.6547 18.276 24.6002 18.8035V29.593C24.6002 30.8877 24.7066 31.8108 24.9194 32.3623C25.1558 32.9137 25.5222 33.1895 26.0186 33.1895C26.4678 33.1895 26.7987 32.8658 27.0115 32.2184C27.2242 31.571 27.3543 30.576 27.4015 29.2333C27.4724 27.8667 27.5079 25.7927 27.5079 23.0114C27.5079 20.35 27.307 18.1801 26.9051 16.5017C26.5032 14.7994 25.7822 13.5047 24.7421 12.6175C23.7256 11.7304 22.2954 11.2868 20.4515 11.2868C19.1277 11.2868 17.8393 11.5506 16.5864 12.0781C15.3335 12.5816 14.0451 13.4207 12.7213 14.5956L10.4874 11.9342C12.0948 10.4956 13.7142 9.44065 15.3453 8.76929C17.0001 8.09793 18.7967 7.76227 20.7351 7.76227ZM18.5367 20.7816C17.8984 20.7816 17.402 20.9734 17.0474 21.357C16.7164 21.7406 16.48 22.364 16.3382 23.2272C16.1963 24.0903 16.1254 25.3131 16.1254 26.8956C16.1254 28.574 16.2436 29.7728 16.48 30.4921C16.74 31.1874 17.201 31.5351 17.8629 31.5351C18.5485 31.5351 19.0331 31.2953 19.3168 30.8158C19.6004 30.3363 19.7895 29.7249 19.8841 28.9816V21.1053C19.4586 20.8895 19.0094 20.7816 18.5367 20.7816Z" fill="#3F4555"/>
<path d="M5.18919 41.228C7.57745 41.228 9.51352 39.2644 9.51352 36.8421C9.51352 34.4198 7.57745 32.4561 5.18919 32.4561C2.80093 32.4561 0.864868 34.4198 0.864868 36.8421C0.864868 39.2644 2.80093 41.228 5.18919 41.228Z" fill="#3A4A74"/>
<path d="M15.3514 50C18.5755 50 21.1892 47.3491 21.1892 44.079C21.1892 40.8088 18.5755 38.1579 15.3514 38.1579C12.1272 38.1579 9.51352 40.8088 9.51352 44.079C9.51352 47.3491 12.1272 50 15.3514 50Z" fill="#1F3148"/>
<path d="M3.45946 29.8246C5.37007 29.8246 6.91892 28.2536 6.91892 26.3158C6.91892 24.3779 5.37007 22.807 3.45946 22.807C1.54885 22.807 0 24.3779 0 26.3158C0 28.2536 1.54885 29.8246 3.45946 29.8246Z" fill="#689BDD"/>
<path d="M6.4865 20.1754C8.15828 20.1754 9.51353 18.8009 9.51353 17.1053C9.51353 15.4097 8.15828 14.0351 6.4865 14.0351C4.81472 14.0351 3.45947 15.4097 3.45947 17.1053C3.45947 18.8009 4.81472 20.1754 6.4865 20.1754Z" fill="#9AB1EA"/>
</svg>
