<svg width="64" height="100" viewBox="0 0 64 100" fill="none" xmlns="http://www.w3.org/2000/svg">
<path d="M41.4703 15.5246C49.4605 15.5246 55.134 18.114 58.4908 23.293C61.8949 28.424 63.597 35.7848 63.597 45.3754C63.597 51.8011 63.2661 57.0281 62.6041 61.0561C61.9895 65.0842 60.8548 68.1533 59.2 70.2632C57.5926 72.3731 55.3232 73.4281 52.3918 73.4281C49.8387 73.4281 47.853 72.493 46.4346 70.6228C45.0635 68.8006 44.2125 66.4269 43.8815 63.5018H43.5978C42.7468 65.4678 41.4703 67.0743 39.7682 68.3211C38.0662 69.5678 36.0331 70.1912 33.6692 70.1912C29.6977 70.1912 26.7901 68.7047 24.9462 65.7316C23.1023 62.7585 22.1803 58.7783 22.1803 53.7912C22.1803 47.7011 23.4333 42.9538 25.939 39.5491C28.4921 36.1445 32.2744 34.4421 37.2861 34.4421C39.2246 34.4421 41.2103 34.7059 43.2432 35.2333C45.3235 35.7608 47.3093 36.552 49.2004 37.607V59.186C49.2004 61.7754 49.4132 63.6217 49.8387 64.7246C50.3115 65.8275 51.0443 66.379 52.0372 66.379C52.9355 66.379 53.5974 65.7316 54.0229 64.4369C54.4484 63.1421 54.7085 61.152 54.803 58.4667C54.9449 55.7333 55.0158 51.5854 55.0158 46.0228C55.0158 40.7 54.614 36.3603 53.8102 33.0035C53.0064 29.5989 51.5645 27.0094 49.4841 25.2351C47.4512 23.4608 44.5907 22.5737 40.9029 22.5737C38.2553 22.5737 35.6785 23.1011 33.1728 24.1561C30.667 25.1632 28.0902 26.8415 25.4426 29.1912L20.9747 23.8684C24.1897 20.9912 27.4283 18.8813 30.6906 17.5386C34.0002 16.1959 37.5933 15.5246 41.4703 15.5246ZM37.0733 41.5632C35.7968 41.5632 34.8039 41.9468 34.0947 42.714C33.4328 43.4813 32.96 44.7281 32.6763 46.4544C32.3926 48.1807 32.2508 50.6263 32.2508 53.7912C32.2508 57.148 32.4872 59.5456 32.96 60.9842C33.48 62.3748 34.402 63.0702 35.7258 63.0702C37.097 63.0702 38.0662 62.5906 38.6335 61.6316C39.2009 60.6726 39.5791 59.4497 39.7682 57.9632V42.2105C38.9172 41.779 38.0189 41.5632 37.0733 41.5632Z" fill="#3F4555"/>
<path d="M10.3784 82.4562C15.1549 82.4562 19.027 78.5288 19.027 73.6842C19.027 68.8396 15.1549 64.9123 10.3784 64.9123C5.60187 64.9123 1.72974 68.8396 1.72974 73.6842C1.72974 78.5288 5.60187 82.4562 10.3784 82.4562Z" fill="#3A4A74"/>
<path d="M30.7027 100C37.151 100 42.3784 94.6981 42.3784 88.1579C42.3784 81.6177 37.151 76.3158 30.7027 76.3158C24.2544 76.3158 19.027 81.6177 19.027 88.1579C19.027 94.6981 24.2544 100 30.7027 100Z" fill="#1F3148"/>
<path d="M6.91892 59.6491C10.7401 59.6491 13.8378 56.5072 13.8378 52.6316C13.8378 48.7559 10.7401 45.614 6.91892 45.614C3.09771 45.614 0 48.7559 0 52.6316C0 56.5072 3.09771 59.6491 6.91892 59.6491Z" fill="#689BDD"/>
<path d="M12.973 40.3509C16.3165 40.3509 19.027 37.6018 19.027 34.2105C19.027 30.8193 16.3165 28.0702 12.973 28.0702C9.62941 28.0702 6.91891 30.8193 6.91891 34.2105C6.91891 37.6018 9.62941 40.3509 12.973 40.3509Z" fill="#9AB1EA"/>
</svg>
