<svg width="48" height="75" viewBox="0 0 48 75" fill="none" xmlns="http://www.w3.org/2000/svg">
<path d="M31.1027 11.6434C37.0954 11.6434 41.3505 13.5855 43.8681 17.4697C46.4212 21.318 47.6977 26.8386 47.6977 34.0316C47.6977 38.8509 47.4496 42.7711 46.9531 45.7921C46.4921 48.8132 45.6411 51.1149 44.4 52.6974C43.1944 54.2798 41.4924 55.0711 39.2938 55.0711C37.379 55.0711 35.8897 54.3698 34.8259 52.9671C33.7976 51.6005 33.1594 49.8202 32.9111 47.6263H32.6984C32.0601 49.1009 31.1027 50.3057 29.8262 51.2408C28.5496 52.1759 27.0248 52.6434 25.2519 52.6434C22.2733 52.6434 20.0925 51.5285 18.7096 49.2987C17.3267 47.0689 16.6352 44.0838 16.6352 40.3434C16.6352 35.7759 17.5749 32.2153 19.4543 29.6619C21.3691 27.1084 24.2058 25.8316 27.9645 25.8316C29.4184 25.8316 30.9077 26.0294 32.4324 26.425C33.9926 26.8206 35.482 27.414 36.9003 28.2053V44.3895C36.9003 46.3316 37.0599 47.7163 37.379 48.5434C37.7336 49.3706 38.2832 49.7842 39.0279 49.7842C39.7016 49.7842 40.198 49.2987 40.5172 48.3276C40.8363 47.3566 41.0314 45.864 41.1023 43.85C41.2086 41.8 41.2618 38.689 41.2618 34.5171C41.2618 30.525 40.9605 27.2702 40.3576 24.7526C39.7548 22.1992 38.6733 20.2571 37.1131 18.9263C35.5884 17.5956 33.443 16.9303 30.6772 16.9303C28.6915 16.9303 26.7589 17.3259 24.8796 18.1171C23.0002 18.8724 21.0676 20.1311 19.0819 21.8934L15.731 17.9013C18.1422 15.7434 20.5712 14.161 23.0179 13.154C25.5001 12.1469 28.195 11.6434 31.1027 11.6434ZM27.805 31.1724C26.8476 31.1724 26.1029 31.4601 25.571 32.0355C25.0746 32.611 24.72 33.5461 24.5072 34.8408C24.2945 36.1355 24.1881 37.9698 24.1881 40.3434C24.1881 42.861 24.3654 44.6592 24.72 45.7382C25.11 46.7811 25.8015 47.3026 26.7944 47.3026C27.8227 47.3026 28.5496 46.943 28.9751 46.2237C29.4006 45.5044 29.6843 44.5873 29.8262 43.4724V31.6579C29.1879 31.3342 28.5141 31.1724 27.805 31.1724Z" fill="#9FA6B9"/>
<path d="M7.78379 61.8421C11.3662 61.8421 14.2703 58.8966 14.2703 55.2632C14.2703 51.6297 11.3662 48.6842 7.78379 48.6842C4.2014 48.6842 1.2973 51.6297 1.2973 55.2632C1.2973 58.8966 4.2014 61.8421 7.78379 61.8421Z" fill="#3A4A74"/>
<path d="M23.027 75C27.8632 75 31.7838 71.0236 31.7838 66.1184C31.7838 61.2132 27.8632 57.2368 23.027 57.2368C18.1908 57.2368 14.2703 61.2132 14.2703 66.1184C14.2703 71.0236 18.1908 75 23.027 75Z" fill="#1F3148"/>
<path d="M5.18919 44.7368C8.0551 44.7368 10.3784 42.3804 10.3784 39.4737C10.3784 36.5669 8.0551 34.2105 5.18919 34.2105C2.32328 34.2105 0 36.5669 0 39.4737C0 42.3804 2.32328 44.7368 5.18919 44.7368Z" fill="#689BDD"/>
<path d="M9.72972 30.2631C12.2374 30.2631 14.2703 28.2013 14.2703 25.6579C14.2703 23.1145 12.2374 21.0526 9.72972 21.0526C7.22205 21.0526 5.18918 23.1145 5.18918 25.6579C5.18918 28.2013 7.22205 30.2631 9.72972 30.2631Z" fill="#9AB1EA"/>
</svg>
