<svg width="16" height="25" viewBox="0 0 16 25" fill="none" xmlns="http://www.w3.org/2000/svg">
<path d="M10.3676 3.88116C12.3651 3.88116 13.7835 4.52853 14.6227 5.82327C15.4737 7.10601 15.8993 8.94623 15.8993 11.3439C15.8993 12.9503 15.8165 14.257 15.651 15.2641C15.4974 16.2711 15.2137 17.0383 14.8 17.5658C14.3981 18.0933 13.8308 18.357 13.098 18.357C12.4597 18.357 11.9633 18.1233 11.6087 17.6557C11.2659 17.2002 11.0531 16.6068 10.9704 15.8755H10.8995C10.6867 16.367 10.3676 16.7686 9.94206 17.0803C9.51655 17.392 9.00829 17.5478 8.4173 17.5478C7.42444 17.5478 6.69752 17.1762 6.23655 16.4329C5.77557 15.6897 5.54509 14.6946 5.54509 13.4478C5.54509 11.9253 5.85832 10.7385 6.48476 9.8873C7.12303 9.03614 8.06861 8.61055 9.32152 8.61055C9.80615 8.61055 10.3026 8.67649 10.8108 8.80836C11.3309 8.94022 11.8273 9.13803 12.3001 9.40178V14.7965C12.3001 15.4439 12.3533 15.9054 12.4597 16.1812C12.5779 16.4569 12.7611 16.5948 13.0093 16.5948C13.2339 16.5948 13.3994 16.4329 13.5057 16.1092C13.6121 15.7856 13.6771 15.288 13.7008 14.6167C13.7362 13.9334 13.754 12.8964 13.754 11.5057C13.754 10.175 13.6535 9.09009 13.4525 8.2509C13.2516 7.39974 12.8911 6.75237 12.371 6.3088C11.8628 5.86522 11.1477 5.64345 10.2257 5.64345C9.56383 5.64345 8.91964 5.77531 8.2932 6.03906C7.66675 6.29081 7.02256 6.7104 6.36066 7.29783L5.24368 5.96713C6.04742 5.24783 6.85709 4.72035 7.67266 4.38467C8.50005 4.04899 9.39834 3.88116 10.3676 3.88116ZM9.26833 10.3908C8.9492 10.3908 8.70098 10.4867 8.52368 10.6785C8.35821 10.8704 8.24001 11.182 8.16909 11.6136C8.09817 12.0452 8.06271 12.6566 8.06271 13.4478C8.06271 14.287 8.1218 14.8864 8.24001 15.2461C8.37002 15.5937 8.6005 15.7676 8.93147 15.7676C9.27426 15.7676 9.51655 15.6477 9.65839 15.4079C9.80022 15.1682 9.89477 14.8625 9.94206 14.4908V10.5527C9.7293 10.4448 9.50472 10.3908 9.26833 10.3908Z" fill="#9FA6B9"/>
<path d="M2.5946 20.6141C3.78873 20.6141 4.75676 19.6322 4.75676 18.4211C4.75676 17.2099 3.78873 16.2281 2.5946 16.2281C1.40047 16.2281 0.432434 17.2099 0.432434 18.4211C0.432434 19.6322 1.40047 20.6141 2.5946 20.6141Z" fill="#3A4A74"/>
<path d="M7.67566 25C9.28774 25 10.5946 23.6745 10.5946 22.0394C10.5946 20.4044 9.28774 19.0789 7.67566 19.0789C6.06359 19.0789 4.75674 20.4044 4.75674 22.0394C4.75674 23.6745 6.06359 25 7.67566 25Z" fill="#1F3148"/>
<path d="M1.72973 14.9123C2.68503 14.9123 3.45946 14.1268 3.45946 13.1579C3.45946 12.189 2.68503 11.4035 1.72973 11.4035C0.774426 11.4035 0 12.189 0 13.1579C0 14.1268 0.774426 14.9123 1.72973 14.9123Z" fill="#689BDD"/>
<path d="M3.24325 10.0877C4.07914 10.0877 4.75676 9.40041 4.75676 8.5526C4.75676 7.7048 4.07914 7.01752 3.24325 7.01752C2.40736 7.01752 1.72974 7.7048 1.72974 8.5526C1.72974 9.40041 2.40736 10.0877 3.24325 10.0877Z" fill="#9AB1EA"/>
</svg>
