<svg width="592" height="114" viewBox="0 0 592 114" fill="none" xmlns="http://www.w3.org/2000/svg">
<path d="M28.8661 39.556C39.3621 39.556 44.6101 47.1273 44.6101 62.27C44.6101 69.1033 43.1614 74.6247 40.2641 78.834C37.3668 82.9887 33.2394 85.066 27.8821 85.066C23.3448 85.066 19.6821 83.4807 16.8941 80.31V100.646L7.71011 101.712V40.704H15.6641L16.2381 46.28C17.8781 44.0933 19.7641 42.426 21.8961 41.278C24.0828 40.13 26.4061 39.556 28.8661 39.556ZM26.3241 46.608C24.4108 46.608 22.6614 47.182 21.0761 48.33C19.4908 49.478 18.0968 50.9813 16.8941 52.84V73.094C19.0261 76.3193 21.8688 77.932 25.4221 77.932C28.5928 77.932 30.9708 76.6747 32.5561 74.16C34.1414 71.6453 34.9341 67.7093 34.9341 62.352C34.9341 56.8307 34.2234 52.84 32.8021 50.38C31.3808 47.8653 29.2214 46.608 26.3241 46.608ZM90.0061 73.422C90.0061 75.062 90.2521 76.292 90.7441 77.112C91.2361 77.8773 92.0834 78.4513 93.2861 78.834L91.1541 85.066C86.6167 84.5193 83.6374 82.524 82.2161 79.08C80.6307 81.048 78.6354 82.5513 76.2301 83.59C73.8794 84.574 71.2827 85.066 68.4401 85.066C64.0667 85.066 60.5954 83.836 58.0261 81.376C55.4567 78.916 54.1721 75.6633 54.1721 71.618C54.1721 67.0807 55.9487 63.582 59.5021 61.122C63.1101 58.662 68.1941 57.432 74.7541 57.432H80.9041V54.644C80.9041 51.9107 80.0841 49.9153 78.4441 48.658C76.8041 47.4007 74.4261 46.772 71.3101 46.772C69.7794 46.772 68.0027 46.9633 65.9801 47.346C63.9574 47.7287 61.9074 48.2753 59.8301 48.986L57.5341 42.508C62.7274 40.54 67.7841 39.556 72.7041 39.556C78.4441 39.556 82.7627 40.8133 85.6601 43.328C88.5574 45.8427 90.0061 49.4233 90.0061 54.07V73.422ZM71.1461 78.342C73.0594 78.342 74.8907 77.85 76.6401 76.866C78.4441 75.882 79.8654 74.5153 80.9041 72.766V63.172H75.8201C71.6654 63.172 68.6314 63.8827 66.7181 65.304C64.8047 66.6707 63.8481 68.666 63.8481 71.29C63.8481 73.586 64.4494 75.3353 65.6521 76.538C66.9094 77.7407 68.7407 78.342 71.1461 78.342ZM125.07 72.192C125.07 75.8547 127.257 77.686 131.63 77.686C133.817 77.686 136.113 77.194 138.518 76.21L140.814 82.606C137.807 84.246 134.09 85.066 129.662 85.066C125.343 85.066 121.954 83.8633 119.494 81.458C117.089 78.998 115.886 75.636 115.886 71.372V30.044H102.848V23.32H125.07V72.192ZM162.84 65.304C163.113 69.5133 164.316 72.684 166.448 74.816C168.635 76.8933 171.368 77.932 174.648 77.932C176.671 77.932 178.584 77.6313 180.388 77.03C182.247 76.374 184.133 75.4173 186.046 74.16L189.982 79.736C187.959 81.4307 185.581 82.7427 182.848 83.672C180.115 84.6013 177.245 85.066 174.238 85.066C167.623 85.066 162.485 83.016 158.822 78.916C155.159 74.7613 153.328 69.24 153.328 62.352C153.328 58.0333 154.121 54.152 155.706 50.708C157.291 47.2093 159.587 44.476 162.594 42.508C165.601 40.54 169.099 39.556 173.09 39.556C178.83 39.556 183.367 41.4967 186.702 45.378C190.091 49.2047 191.786 54.48 191.786 61.204C191.786 62.844 191.704 64.2107 191.54 65.304H162.84ZM173.172 46.362C170.22 46.362 167.815 47.428 165.956 49.56C164.097 51.692 163.031 54.8627 162.758 59.072H182.848C182.739 54.972 181.864 51.8287 180.224 49.642C178.584 47.4553 176.233 46.362 173.172 46.362ZM240.544 81.704C238.904 82.7427 236.991 83.5627 234.804 84.164C232.617 84.7653 230.321 85.066 227.916 85.066C222.996 85.066 219.197 83.8087 216.518 81.294C213.839 78.7247 212.5 75.2533 212.5 70.88V47.428H202.906V40.704H212.5V31.028L221.684 29.962V40.704H236.362L235.296 47.428H221.684V70.798C221.684 73.1487 222.285 74.898 223.488 76.046C224.691 77.1393 226.604 77.686 229.228 77.686C232.125 77.686 234.804 77.0027 237.264 75.636L240.544 81.704ZM289.712 81.704C288.072 82.7427 286.159 83.5627 283.972 84.164C281.785 84.7653 279.489 85.066 277.084 85.066C272.164 85.066 268.365 83.8087 265.686 81.294C263.007 78.7247 261.668 75.2533 261.668 70.88V47.428H252.074V40.704H261.668V31.028L270.852 29.962V40.704H285.53L284.464 47.428H270.852V70.798C270.852 73.1487 271.453 74.898 272.656 76.046C273.859 77.1393 275.772 77.686 278.396 77.686C281.293 77.686 283.972 77.0027 286.432 75.636L289.712 81.704ZM310.344 65.304C310.617 69.5133 311.82 72.684 313.952 74.816C316.139 76.8933 318.872 77.932 322.152 77.932C324.175 77.932 326.088 77.6313 327.892 77.03C329.751 76.374 331.637 75.4173 333.55 74.16L337.486 79.736C335.463 81.4307 333.085 82.7427 330.352 83.672C327.619 84.6013 324.749 85.066 321.742 85.066C315.127 85.066 309.989 83.016 306.326 78.916C302.663 74.7613 300.832 69.24 300.832 62.352C300.832 58.0333 301.625 54.152 303.21 50.708C304.795 47.2093 307.091 44.476 310.098 42.508C313.105 40.54 316.603 39.556 320.594 39.556C326.334 39.556 330.871 41.4967 334.206 45.378C337.595 49.2047 339.29 54.48 339.29 61.204C339.29 62.844 339.208 64.2107 339.044 65.304H310.344ZM320.676 46.362C317.724 46.362 315.319 47.428 313.46 49.56C311.601 51.692 310.535 54.8627 310.262 59.072H330.352C330.243 54.972 329.368 51.8287 327.728 49.642C326.088 47.4553 323.737 46.362 320.676 46.362Z" fill="#3F4555"/>
<path d="M395.562 39.556C398.241 39.556 400.345 40.4853 401.876 42.344C403.407 44.2027 404.172 47.3733 404.172 51.856V84H396.054V53.086C396.054 50.6807 395.863 49.0133 395.48 48.084C395.152 47.1547 394.387 46.69 393.184 46.69C390.888 46.69 388.756 48.1387 386.788 51.036V84H379.326V53.086C379.326 50.6807 379.135 49.0133 378.752 48.084C378.424 47.1547 377.659 46.69 376.456 46.69C374.16 46.69 372.028 48.1387 370.06 51.036V84H361.86V40.704H368.748L369.404 45.378C370.771 43.4647 372.165 42.016 373.586 41.032C375.007 40.048 376.702 39.556 378.67 39.556C382.497 39.556 384.957 41.3873 386.05 45.05C387.362 43.3007 388.783 41.9613 390.314 41.032C391.845 40.048 393.594 39.556 395.562 39.556Z" fill="#9FA6B9"/>
<path d="M517.932 19.466C519.681 19.466 521.103 20.04 522.196 21.188C523.344 22.2813 523.918 23.648 523.918 25.288C523.918 26.928 523.344 28.2947 522.196 29.388C521.103 30.4813 519.681 31.028 517.932 31.028C516.128 31.028 514.679 30.4813 513.586 29.388C512.493 28.2947 511.946 26.928 511.946 25.288C511.946 23.5933 512.493 22.1993 513.586 21.106C514.734 20.0127 516.183 19.466 517.932 19.466ZM524.246 77.276H536.054V84H502.188V77.276H515.062V47.428H502.598V40.704H524.246V77.276ZM568.822 72.192C568.822 75.8547 571.009 77.686 575.382 77.686C577.569 77.686 579.865 77.194 582.27 76.21L584.566 82.606C581.559 84.246 577.842 85.066 573.414 85.066C569.095 85.066 565.706 83.8633 563.246 81.458C560.841 78.998 559.638 75.636 559.638 71.372V30.044H546.6V23.32H568.822V72.192Z" fill="#9FA6B9"/>
<path d="M462.95 17.698C472.189 17.698 478.749 20.65 482.63 26.554C486.566 32.4033 488.534 40.7947 488.534 51.728C488.534 59.0533 488.151 65.012 487.386 69.604C486.675 74.196 485.363 77.6947 483.45 80.1C481.591 82.5053 478.967 83.708 475.578 83.708C472.626 83.708 470.33 82.642 468.69 80.51C467.105 78.4327 466.121 75.7267 465.738 72.392H465.41C464.426 74.6333 462.95 76.4647 460.982 77.886C459.014 79.3073 456.663 80.018 453.93 80.018C449.338 80.018 445.976 78.3233 443.844 74.934C441.712 71.5447 440.646 67.0073 440.646 61.322C440.646 54.3793 442.095 48.9673 444.992 45.086C447.944 41.2047 452.317 39.264 458.112 39.264C460.353 39.264 462.649 39.5647 465 40.166C467.405 40.7673 469.701 41.6693 471.888 42.872V67.472C471.888 70.424 472.134 72.5287 472.626 73.786C473.173 75.0433 474.02 75.672 475.168 75.672C476.207 75.672 476.972 74.934 477.464 73.458C477.956 71.982 478.257 69.7133 478.366 66.652C478.53 63.536 478.612 58.8073 478.612 52.466C478.612 46.398 478.147 41.4507 477.218 37.624C476.289 33.7427 474.621 30.7907 472.216 28.768C469.865 26.7453 466.558 25.734 462.294 25.734C459.233 25.734 456.253 26.3353 453.356 27.538C450.459 28.686 447.479 30.5993 444.418 33.278L439.252 27.21C442.969 23.93 446.714 21.5247 450.486 19.994C454.313 18.4633 458.467 17.698 462.95 17.698ZM457.866 47.382C456.39 47.382 455.242 47.8193 454.422 48.694C453.657 49.5687 453.11 50.99 452.782 52.958C452.454 54.926 452.29 57.714 452.29 61.322C452.29 65.1487 452.563 67.882 453.11 69.522C453.711 71.1073 454.777 71.9 456.308 71.9C457.893 71.9 459.014 71.3533 459.67 70.26C460.326 69.1667 460.763 67.7727 460.982 66.078V48.12C459.998 47.628 458.959 47.382 457.866 47.382Z" fill="#9FA6B9"/>
<circle cx="427" cy="84" r="10" fill="#3A4A74"/>
<circle cx="450.5" cy="100.5" r="13.5" fill="#1F3148"/>
<circle cx="423" cy="60" r="8" fill="#689BDD"/>
<circle cx="430" cy="39" r="7" fill="#9AB1EA"/>
</svg>
