<svg width="169" height="32" viewBox="0 0 169 32" fill="none" xmlns="http://www.w3.org/2000/svg">
<g clip-path="url(#clip0_834_561)">
<path d="M8.24051 11.1034C11.2368 11.1034 12.735 13.2287 12.735 17.4793C12.735 19.3974 12.3214 20.9473 11.4943 22.1288C10.6672 23.2951 9.48897 23.8782 7.95961 23.8782C6.66433 23.8782 5.61873 23.4332 4.82283 22.5432V28.2515L2.20105 28.5507V11.4257H4.4717L4.63556 12.9909C5.10374 12.3771 5.64214 11.909 6.25077 11.5868C6.87501 11.2646 7.53825 11.1034 8.24051 11.1034ZM7.51484 13.0829C6.96865 13.0829 6.46924 13.2441 6.01668 13.5663C5.56412 13.8886 5.16617 14.3105 4.82283 14.8323V20.5176C5.43146 21.423 6.24297 21.8756 7.25734 21.8756C8.16249 21.8756 8.84135 21.5227 9.29391 20.8168C9.74647 20.111 9.97276 19.0061 9.97276 17.5023C9.97276 15.9525 9.76988 14.8323 9.36414 14.1417C8.95839 13.4359 8.34194 13.0829 7.51484 13.0829ZM25.6943 20.6097C25.6943 21.07 25.7646 21.4153 25.905 21.6455C26.0455 21.8603 26.2873 22.0214 26.6307 22.1288L26.0221 23.8782C24.7267 23.7247 23.8762 23.1646 23.4705 22.1979C23.0179 22.7503 22.4483 23.1723 21.7617 23.4639C21.0906 23.7401 20.3493 23.8782 19.5378 23.8782C18.2893 23.8782 17.2984 23.5329 16.5649 22.8424C15.8314 22.1519 15.4647 21.2388 15.4647 20.1033C15.4647 18.8297 15.9719 17.8476 16.9863 17.157C18.0163 16.4665 19.4676 16.1213 21.3403 16.1213H23.096V15.3387C23.096 14.5714 22.8619 14.0113 22.3937 13.6584C21.9255 13.3055 21.2467 13.129 20.3571 13.129C19.9202 13.129 19.413 13.1827 18.8356 13.2901C18.2581 13.3975 17.6729 13.551 17.0799 13.7505L16.4245 11.9321C17.907 11.3796 19.3506 11.1034 20.7551 11.1034C22.3937 11.1034 23.6265 11.4564 24.4537 12.1622C25.2808 12.8681 25.6943 13.8732 25.6943 15.1775V20.6097ZM20.3103 21.9907C20.8565 21.9907 21.3793 21.8526 21.8787 21.5764C22.3937 21.3002 22.7994 20.9166 23.096 20.4255V17.7325H21.6446C20.4586 17.7325 19.5924 17.932 19.0462 18.3309C18.5 18.7146 18.2269 19.2747 18.2269 20.0112C18.2269 20.6557 18.3986 21.1467 18.7419 21.4843C19.1008 21.8219 19.6236 21.9907 20.3103 21.9907ZM35.7041 20.2644C35.7041 21.2925 36.3285 21.8066 37.5768 21.8066C38.2012 21.8066 38.8566 21.6685 39.5432 21.3923L40.1986 23.1876C39.3402 23.648 38.2791 23.8782 37.015 23.8782C35.7821 23.8782 34.8146 23.5406 34.1123 22.8654C33.4258 22.1749 33.0823 21.2312 33.0823 20.0342V8.4334H29.3603V6.54596H35.7041V20.2644ZM46.4864 18.3309C46.5644 19.5125 46.9078 20.4025 47.5164 21.001C48.1408 21.5841 48.921 21.8756 49.8573 21.8756C50.4348 21.8756 50.9809 21.7912 51.4959 21.6225C52.0266 21.4383 52.565 21.1698 53.1111 20.8168L54.2347 22.382C53.6572 22.8577 52.9784 23.226 52.1982 23.4869C51.418 23.7477 50.5987 23.8782 49.7403 23.8782C47.8519 23.8782 46.3851 23.3027 45.3394 22.1519C44.2937 20.9856 43.771 19.4358 43.771 17.5023C43.771 16.29 43.9974 15.2006 44.4499 14.2338C44.9024 13.2517 45.5578 12.4845 46.4162 11.9321C47.2746 11.3796 48.2732 11.1034 49.4125 11.1034C51.0512 11.1034 52.3463 11.6482 53.2984 12.7377C54.2659 13.8118 54.7497 15.2926 54.7497 17.1801C54.7497 17.6404 54.7263 18.0241 54.6795 18.3309H46.4864ZM49.4359 13.0139C48.5932 13.0139 47.9067 13.3131 47.376 13.9116C46.8453 14.51 46.541 15.4001 46.463 16.5816H52.1982C52.1671 15.4307 51.9173 14.5484 51.4491 13.9346C50.9809 13.3208 50.3098 13.0139 49.4359 13.0139ZM68.6688 22.9345C68.2007 23.226 67.6545 23.4562 67.0302 23.625C66.4059 23.7938 65.7504 23.8782 65.0639 23.8782C63.6594 23.8782 62.5748 23.5252 61.8101 22.8194C61.0453 22.0982 60.663 21.1237 60.663 19.8961V13.3131H57.9242V11.4257H60.663V8.70961L63.2848 8.41038V11.4257H67.475L67.1707 13.3131H63.2848V19.8731C63.2848 20.533 63.4564 21.024 63.7998 21.3462C64.1432 21.6531 64.6893 21.8066 65.4384 21.8066C66.2654 21.8066 67.0302 21.6148 67.7325 21.2312L68.6688 22.9345ZM82.705 22.9345C82.2368 23.226 81.6907 23.4562 81.0664 23.625C80.442 23.7938 79.7866 23.8782 79.1 23.8782C77.6955 23.8782 76.611 23.5252 75.8462 22.8194C75.0814 22.0982 74.6992 21.1237 74.6992 19.8961V13.3131H71.9603V11.4257H74.6992V8.70961L77.3209 8.41038V11.4257H81.5111L81.2068 13.3131H77.3209V19.8731C77.3209 20.533 77.4925 21.024 77.8359 21.3462C78.1794 21.6531 78.7255 21.8066 79.4746 21.8066C80.3016 21.8066 81.0664 21.6148 81.7686 21.2312L82.705 22.9345ZM88.5948 18.3309C88.6728 19.5125 89.0162 20.4025 89.6248 21.001C90.2492 21.5841 91.0294 21.8756 91.9657 21.8756C92.5432 21.8756 93.0893 21.7912 93.6043 21.6225C94.135 21.4383 94.6734 21.1698 95.2195 20.8168L96.3432 22.382C95.7656 22.8577 95.0868 23.226 94.3066 23.4869C93.5264 23.7477 92.7071 23.8782 91.8487 23.8782C89.9603 23.8782 88.4935 23.3027 87.4478 22.1519C86.4021 20.9856 85.8794 19.4358 85.8794 17.5023C85.8794 16.29 86.1058 15.2006 86.5583 14.2338C87.0108 13.2517 87.6662 12.4845 88.5246 11.9321C89.383 11.3796 90.3816 11.1034 91.5209 11.1034C93.1596 11.1034 94.4548 11.6482 95.4068 12.7377C96.3743 13.8118 96.8582 15.2926 96.8582 17.1801C96.8582 17.6404 96.8347 18.0241 96.7879 18.3309H88.5948ZM91.5444 13.0139C90.7016 13.0139 90.0151 13.3131 89.4844 13.9116C88.9537 14.51 88.6494 15.4001 88.5714 16.5816H94.3066C94.2755 15.4307 94.0257 14.5484 93.5575 13.9346C93.0893 13.3208 92.4182 13.0139 91.5444 13.0139Z" fill="#9FA6B9"/>
<path d="M112.922 11.1035C113.687 11.1035 114.288 11.3643 114.725 11.8861C115.162 12.4078 115.38 13.2978 115.38 14.5561V23.579H113.063V14.9013C113.063 14.2262 113.008 13.7581 112.899 13.4973C112.805 13.2364 112.587 13.106 112.243 13.106C111.588 13.106 110.979 13.5126 110.418 14.3259V23.579H108.287V14.9013C108.287 14.2262 108.233 13.7581 108.123 13.4973C108.03 13.2364 107.811 13.106 107.468 13.106C106.813 13.106 106.204 13.5126 105.642 14.3259V23.579H103.301V11.4257H105.268L105.455 12.7377C105.845 12.2006 106.243 11.794 106.649 11.5178C107.054 11.2416 107.538 11.1035 108.1 11.1035C109.193 11.1035 109.895 11.6175 110.207 12.6456C110.581 12.1546 110.987 11.7786 111.424 11.5178C111.861 11.2416 112.36 11.1035 112.922 11.1035Z" fill="#3F4555"/>
<path d="M147.856 5.46411C148.355 5.46411 148.761 5.62523 149.073 5.94748C149.401 6.25437 149.564 6.63801 149.564 7.09836C149.564 7.55871 149.401 7.94234 149.073 8.24923C148.761 8.55613 148.355 8.70959 147.856 8.70959C147.341 8.70959 146.927 8.55613 146.615 8.24923C146.303 7.94234 146.147 7.55871 146.147 7.09836C146.147 6.62265 146.303 6.23135 146.615 5.92446C146.943 5.61757 147.356 5.46411 147.856 5.46411ZM149.658 21.6915H153.029V23.5789H143.361V21.6915H147.036V13.3131H143.478V11.4257H149.658V21.6915ZM162.383 20.2644C162.383 21.2925 163.008 21.8066 164.256 21.8066C164.88 21.8066 165.536 21.6685 166.222 21.3923L166.878 23.1876C166.019 23.648 164.958 23.8781 163.694 23.8781C162.461 23.8781 161.494 23.5405 160.791 22.8654C160.105 22.1748 159.762 21.2311 159.762 20.0342V8.43337H156.04V6.54594H162.383V20.2644Z" fill="#3F4555"/>
<path d="M132.16 4.96783C134.797 4.96783 136.67 5.79647 137.778 7.45373C138.901 9.09564 139.463 11.4511 139.463 14.5201C139.463 16.5763 139.354 18.249 139.135 19.5379C138.933 20.8269 138.558 21.809 138.012 22.4842C137.481 23.1594 136.732 23.497 135.765 23.497C134.922 23.497 134.266 23.1977 133.798 22.5993C133.346 22.0162 133.065 21.2566 132.956 20.3205H132.862C132.581 20.9497 132.16 21.4638 131.598 21.8627C131.036 22.2617 130.365 22.4612 129.585 22.4612C128.274 22.4612 127.314 21.9855 126.705 21.0341C126.097 20.0827 125.792 18.809 125.792 17.2132C125.792 15.2643 126.206 13.7452 127.033 12.6557C127.876 11.5662 129.124 11.0214 130.779 11.0214C131.418 11.0214 132.074 11.1059 132.745 11.2746C133.431 11.4434 134.087 11.6966 134.711 12.0342V18.9395C134.711 19.7681 134.781 20.3589 134.922 20.7118C135.078 21.0648 135.32 21.2412 135.648 21.2412C135.944 21.2412 136.163 21.0341 136.303 20.6198C136.443 20.2054 136.529 19.5686 136.561 18.7093C136.607 17.8346 136.631 16.5073 136.631 14.7273C136.631 13.024 136.498 11.6353 136.233 10.5611C135.968 9.47161 135.491 8.64298 134.805 8.0752C134.134 7.50743 133.19 7.22355 131.972 7.22355C131.099 7.22355 130.248 7.39234 129.421 7.72994C128.594 8.05219 127.743 8.58925 126.869 9.34117L125.395 7.63787C126.456 6.71717 127.525 6.042 128.602 5.61233C129.694 5.18266 130.88 4.96783 132.16 4.96783ZM130.708 13.3002C130.287 13.3002 129.959 13.4229 129.725 13.6685C129.507 13.914 129.351 14.313 129.257 14.8654C129.163 15.4178 129.117 16.2004 129.117 17.2132C129.117 18.2873 129.194 19.0546 129.351 19.5149C129.522 19.9599 129.826 20.1824 130.264 20.1824C130.716 20.1824 131.036 20.029 131.223 19.7221C131.411 19.4152 131.535 19.0239 131.598 18.5482V13.5073C131.317 13.3692 131.02 13.3002 130.708 13.3002Z" fill="#3F4555"/>
<path d="M121.897 26.3859C123.474 26.3859 124.752 25.1292 124.752 23.5789C124.752 22.0287 123.474 20.7719 121.897 20.7719C120.32 20.7719 119.042 22.0287 119.042 23.5789C119.042 25.1292 120.32 26.3859 121.897 26.3859Z" fill="#3A4A74"/>
<path d="M128.606 32C130.734 32 132.459 30.3034 132.459 28.2106C132.459 26.1177 130.734 24.4211 128.606 24.4211C126.477 24.4211 124.752 26.1177 124.752 28.2106C124.752 30.3034 126.477 32 128.606 32Z" fill="#1F3148"/>
<path d="M120.755 19.0877C122.016 19.0877 123.039 18.0823 123.039 16.8421C123.039 15.6019 122.016 14.5965 120.755 14.5965C119.494 14.5965 118.471 15.6019 118.471 16.8421C118.471 18.0823 119.494 19.0877 120.755 19.0877Z" fill="#689BDD"/>
<path d="M122.753 12.9123C123.857 12.9123 124.752 12.0326 124.752 10.9474C124.752 9.8622 123.857 8.98248 122.753 8.98248C121.65 8.98248 120.755 9.8622 120.755 10.9474C120.755 12.0326 121.65 12.9123 122.753 12.9123Z" fill="#9AB1EA"/>
</g>
<defs>
<clipPath id="clip0_834_561">
<rect width="169" height="32" fill="white"/>
</clipPath>
</defs>
</svg>
