<svg width="252" height="48" viewBox="0 0 252 48" fill="none" xmlns="http://www.w3.org/2000/svg">
<g clip-path="url(#clip0_834_543)">
<path d="M12.2876 17.6552C16.7555 17.6552 18.9894 20.8431 18.9894 27.219C18.9894 30.0961 18.3727 32.4209 17.1394 34.1933C15.9061 35.9426 14.1492 36.8173 11.8687 36.8173C9.93729 36.8173 8.37817 36.1498 7.19138 34.8148V43.3773L3.28198 43.8261V18.1385H6.6678L6.91214 20.4863C7.61025 19.5656 8.41307 18.8636 9.32061 18.3802C10.2514 17.8969 11.2404 17.6552 12.2876 17.6552ZM11.2055 20.6244C10.3911 20.6244 9.64638 20.8661 8.97156 21.3495C8.29674 21.8329 7.70334 22.4658 7.19138 23.2484V31.7764C8.09892 33.1345 9.30899 33.8135 10.8215 33.8135C12.1712 33.8135 13.1835 33.2841 13.8583 32.2253C14.5331 31.1665 14.8706 29.5092 14.8706 27.2535C14.8706 24.9287 14.568 23.2484 13.963 22.2127C13.358 21.1538 12.4388 20.6244 11.2055 20.6244ZM38.3134 31.9145C38.3134 32.6051 38.4181 33.123 38.6275 33.4682C38.837 33.7905 39.1976 34.0321 39.7096 34.1933L38.8021 36.8173C36.8706 36.5871 35.6024 35.747 34.9974 34.2969C34.3225 35.1255 33.4732 35.7585 32.4493 36.1958C31.4486 36.6101 30.3433 36.8173 29.1333 36.8173C27.2716 36.8173 25.794 36.2994 24.7003 35.2636C23.6065 34.2278 23.0597 32.8583 23.0597 31.155C23.0597 29.2445 23.816 27.7714 25.3286 26.7356C26.8644 25.6998 29.0285 25.1819 31.821 25.1819H34.4389V24.008C34.4389 22.8572 34.0898 22.017 33.3917 21.4876C32.6936 20.9582 31.6814 20.6935 30.355 20.6935C29.7034 20.6935 28.9471 20.774 28.0861 20.9352C27.2251 21.0963 26.3525 21.3265 25.4682 21.6257L24.4908 18.8981C26.7015 18.0695 28.854 17.6552 30.9483 17.6552C33.3917 17.6552 35.23 18.1846 36.4634 19.2434C37.6967 20.3022 38.3134 21.8098 38.3134 23.7663V31.9145ZM30.2851 33.9861C31.0996 33.9861 31.8791 33.779 32.6238 33.3647C33.3917 32.9503 33.9967 32.3749 34.4389 31.6383V27.5988H32.2747C30.5062 27.5988 29.2147 27.898 28.4003 28.4964C27.5858 29.0719 27.1786 29.912 27.1786 31.0169C27.1786 31.9836 27.4345 32.7201 27.9465 33.2265C28.4817 33.733 29.2612 33.9861 30.2851 33.9861ZM53.2392 31.3967C53.2392 32.9388 54.1702 33.7099 56.0317 33.7099C56.9626 33.7099 57.94 33.5028 58.9637 33.0884L59.9411 35.7815C58.6611 36.472 57.0788 36.8173 55.1939 36.8173C53.3554 36.8173 51.9128 36.3109 50.8657 35.2981C49.8419 34.2623 49.3298 32.8468 49.3298 31.0514V13.6501H43.7799V10.819H53.2392V31.3967ZM69.317 28.4964C69.4332 30.2688 69.9453 31.6038 70.8528 32.5015C71.7838 33.3762 72.9472 33.8135 74.3434 33.8135C75.2045 33.8135 76.0188 33.6869 76.7868 33.4337C77.5781 33.1575 78.3809 32.7547 79.1952 32.2253L80.8707 34.5731C80.0096 35.2866 78.9973 35.8391 77.8339 36.2303C76.6706 36.6216 75.4489 36.8173 74.1689 36.8173C71.353 36.8173 69.1659 35.9541 67.6066 34.2278C66.0474 32.4785 65.268 30.1537 65.268 27.2535C65.268 25.4351 65.6055 23.8009 66.2802 22.3508C66.9549 20.8776 67.9323 19.7268 69.2123 18.8981C70.4923 18.0695 71.9813 17.6552 73.6802 17.6552C76.1236 17.6552 78.0549 18.4723 79.4745 20.1065C80.9171 21.7178 81.6386 23.939 81.6386 26.7701C81.6386 27.4607 81.6037 28.0361 81.5339 28.4964H69.317ZM73.7151 20.5209C72.4585 20.5209 71.4347 20.9697 70.6434 21.8674C69.8521 22.7651 69.3983 24.1001 69.2821 25.8724H77.8339C77.7875 24.1461 77.4151 22.8226 76.717 21.9019C76.0188 20.9812 75.0181 20.5209 73.7151 20.5209ZM102.394 35.4017C101.696 35.8391 100.881 36.1843 99.9503 36.4375C99.0194 36.6907 98.042 36.8173 97.0183 36.8173C94.924 36.8173 93.3068 36.2879 92.1664 35.2291C91.026 34.1473 90.4561 32.6856 90.4561 30.8442V20.9697H86.3721V18.1385H90.4561V14.0644L94.3655 13.6156V18.1385H100.614L100.16 20.9697H94.3655V30.8097C94.3655 31.7995 94.6213 32.536 95.1334 33.0194C95.6455 33.4797 96.4598 33.7099 97.5768 33.7099C98.81 33.7099 99.9503 33.4222 100.998 32.8468L102.394 35.4017ZM123.323 35.4017C122.625 35.8391 121.811 36.1843 120.88 36.4375C119.949 36.6907 118.972 36.8173 117.948 36.8173C115.854 36.8173 114.236 36.2879 113.096 35.2291C111.956 34.1473 111.386 32.6856 111.386 30.8442V20.9697H107.302V18.1385H111.386V14.0644L115.295 13.6156V18.1385H121.543L121.089 20.9697H115.295V30.8097C115.295 31.7995 115.551 32.536 116.063 33.0194C116.575 33.4797 117.389 33.7099 118.506 33.7099C119.74 33.7099 120.88 33.4222 121.927 32.8468L123.323 35.4017ZM132.106 28.4964C132.222 30.2688 132.734 31.6038 133.642 32.5015C134.573 33.3762 135.736 33.8135 137.132 33.8135C137.993 33.8135 138.808 33.6869 139.576 33.4337C140.367 33.1575 141.17 32.7547 141.984 32.2253L143.66 34.5731C142.798 35.2866 141.786 35.8391 140.623 36.2303C139.459 36.6216 138.238 36.8173 136.958 36.8173C134.142 36.8173 131.955 35.9541 130.396 34.2278C128.836 32.4785 128.057 30.1537 128.057 27.2535C128.057 25.4351 128.394 23.8009 129.069 22.3508C129.744 20.8776 130.721 19.7268 132.001 18.8981C133.281 18.0695 134.77 17.6552 136.469 17.6552C138.912 17.6552 140.844 18.4723 142.263 20.1065C143.706 21.7178 144.427 23.939 144.427 26.7701C144.427 27.4607 144.393 28.0361 144.323 28.4964H132.106ZM136.504 20.5209C135.247 20.5209 134.224 20.9697 133.432 21.8674C132.641 22.7651 132.187 24.1001 132.071 25.8724H140.623C140.576 24.1461 140.204 22.8226 139.506 21.9019C138.808 20.9812 137.807 20.5209 136.504 20.5209Z" fill="#3F4555"/>
<path d="M168.381 17.6552C169.521 17.6552 170.417 18.0464 171.069 18.829C171.721 19.6117 172.046 20.9466 172.046 22.8341V36.3684H168.591V23.352C168.591 22.3392 168.509 21.6372 168.346 21.2459C168.207 20.8546 167.881 20.6589 167.369 20.6589C166.391 20.6589 165.484 21.2689 164.646 22.4888V36.3684H161.47V23.352C161.47 22.3392 161.389 21.6372 161.225 21.2459C161.086 20.8546 160.76 20.6589 160.248 20.6589C159.271 20.6589 158.363 21.2689 157.526 22.4888V36.3684H154.035V18.1385H156.967L157.246 20.1065C157.828 19.3009 158.422 18.6909 159.026 18.2766C159.631 17.8623 160.353 17.6552 161.191 17.6552C162.82 17.6552 163.867 18.4262 164.332 19.9684C164.891 19.2319 165.495 18.6679 166.147 18.2766C166.799 17.8623 167.543 17.6552 168.381 17.6552Z" fill="#9FA6B9"/>
<path d="M220.471 9.19623C221.216 9.19623 221.821 9.43791 222.286 9.92128C222.775 10.3816 223.019 10.9571 223.019 11.6476C223.019 12.3381 222.775 12.9136 222.286 13.3739C221.821 13.8342 221.216 14.0644 220.471 14.0644C219.703 14.0644 219.086 13.8342 218.621 13.3739C218.156 12.9136 217.923 12.3381 217.923 11.6476C217.923 10.934 218.156 10.3471 218.621 9.88675C219.11 9.42642 219.727 9.19623 220.471 9.19623ZM223.159 33.5373H228.185V36.3684H213.769V33.5373H219.249V20.9697H213.944V18.1385H223.159V33.5373ZM242.134 31.3967C242.134 32.9388 243.065 33.7099 244.926 33.7099C245.857 33.7099 246.834 33.5028 247.858 33.0884L248.835 35.7815C247.555 36.472 245.973 36.8173 244.088 36.8173C242.25 36.8173 240.807 36.3109 239.76 35.2981C238.736 34.2623 238.224 32.8468 238.224 31.0514V13.6501H232.674V10.819H242.134V31.3967Z" fill="#9FA6B9"/>
<path d="M197.067 8.45178C200.999 8.45178 203.792 9.69473 205.444 12.1806C207.119 14.6435 207.957 18.1767 207.957 22.7802C207.957 25.8645 207.794 28.3735 207.468 30.3069C207.166 32.2404 206.607 33.7136 205.793 34.7263C205.002 35.7391 203.885 36.2455 202.442 36.2455C201.185 36.2455 200.208 35.7966 199.51 34.8989C198.835 34.0243 198.416 32.8849 198.253 31.4808H198.114C197.695 32.4245 197.067 33.1957 196.229 33.7941C195.391 34.3925 194.39 34.6918 193.227 34.6918C191.272 34.6918 189.841 33.9782 188.934 32.5512C188.026 31.1241 187.572 29.2136 187.572 26.8198C187.572 23.8965 188.189 21.6178 189.422 19.9836C190.679 18.3493 192.54 17.5322 195.007 17.5322C195.961 17.5322 196.938 17.6588 197.939 17.912C198.963 18.1652 199.94 18.545 200.871 19.0514V29.4093C200.871 30.6522 200.976 31.5384 201.185 32.0678C201.418 32.5972 201.779 32.8619 202.267 32.8619C202.71 32.8619 203.035 32.5512 203.245 31.9297C203.454 31.3082 203.582 30.353 203.629 29.064C203.699 27.752 203.733 25.761 203.733 23.0909C203.733 20.536 203.536 18.4529 203.14 16.8417C202.745 15.2074 202.035 13.9645 201.011 13.1128C200.01 12.2612 198.602 11.8354 196.787 11.8354C195.484 11.8354 194.216 12.0885 192.983 12.5949C191.749 13.0783 190.481 13.8839 189.178 15.0118L186.979 12.4568C188.561 11.0758 190.155 10.063 191.761 9.41852C193.39 8.77401 195.158 8.45178 197.067 8.45178ZM194.902 20.9503C194.274 20.9503 193.785 21.1344 193.436 21.5027C193.111 21.871 192.878 22.4695 192.738 23.2981C192.599 24.1267 192.529 25.3006 192.529 26.8198C192.529 28.431 192.645 29.5819 192.878 30.2724C193.134 30.9399 193.587 31.2737 194.239 31.2737C194.914 31.2737 195.391 31.0435 195.67 30.5832C195.95 30.1228 196.136 29.5359 196.229 28.8223V21.261C195.81 21.0539 195.368 20.9503 194.902 20.9503Z" fill="#9FA6B9"/>
<path d="M181.764 39.579C184.114 39.579 186.02 37.6938 186.02 35.3684C186.02 33.043 184.114 31.1579 181.764 31.1579C179.413 31.1579 177.507 33.043 177.507 35.3684C177.507 37.6938 179.413 39.579 181.764 39.579Z" fill="#3A4A74"/>
<path d="M191.767 48C194.941 48 197.514 45.4551 197.514 42.3158C197.514 39.1765 194.941 36.6316 191.767 36.6316C188.593 36.6316 186.02 39.1765 186.02 42.3158C186.02 45.4551 188.593 48 191.767 48Z" fill="#1F3148"/>
<path d="M180.061 29.6316C181.942 29.6316 183.466 28.1235 183.466 26.2631C183.466 24.4028 181.942 22.8947 180.061 22.8947C178.18 22.8947 176.655 24.4028 176.655 26.2631C176.655 28.1235 178.18 29.6316 180.061 29.6316Z" fill="#689BDD"/>
<path d="M183.041 19.3684C184.686 19.3684 186.02 18.0488 186.02 16.4211C186.02 14.7933 184.686 13.4737 183.041 13.4737C181.395 13.4737 180.061 14.7933 180.061 16.4211C180.061 18.0488 181.395 19.3684 183.041 19.3684Z" fill="#9AB1EA"/>
</g>
<defs>
<clipPath id="clip0_834_543">
<rect width="252" height="48" fill="white"/>
</clipPath>
</defs>
</svg>
