<svg width="254" height="48" viewBox="0 0 254 48" fill="none" xmlns="http://www.w3.org/2000/svg">
<g clip-path="url(#clip0_834_570)">
<path d="M12.3852 17.6552C16.8885 17.6552 19.1402 20.8431 19.1402 27.219C19.1402 30.0961 18.5186 32.4209 17.2755 34.1933C16.0324 35.9426 14.2616 36.8173 11.963 36.8173C10.0162 36.8173 8.44474 36.1498 7.24853 34.8148V43.3773L3.30811 43.8261V18.1385H6.7208L6.96707 20.4863C7.67072 19.5656 8.47992 18.8636 9.39466 18.3802C10.3329 17.8969 11.3297 17.6552 12.3852 17.6552ZM11.2945 20.6244C10.4736 20.6244 9.72302 20.8661 9.04284 21.3495C8.36266 21.8329 7.76456 22.4658 7.24853 23.2484V31.7764C8.16328 33.1345 9.38295 33.8135 10.9075 33.8135C12.2679 33.8135 13.2882 33.2841 13.9684 32.2253C14.6486 31.1665 14.9887 29.5092 14.9887 27.2535C14.9887 24.9287 14.6837 23.2484 14.0739 22.2127C13.4641 21.1538 12.5376 20.6244 11.2945 20.6244ZM38.6175 31.9145C38.6175 32.6051 38.7231 33.123 38.9342 33.4682C39.1453 33.7905 39.5088 34.0321 40.0248 34.1933L39.1101 36.8173C37.1633 36.5871 35.885 35.747 35.2752 34.2969C34.595 35.1255 33.7389 35.7585 32.7069 36.1958C31.6983 36.6101 30.5842 36.8173 29.3646 36.8173C27.4881 36.8173 25.9988 36.2994 24.8964 35.2636C23.794 34.2278 23.2428 32.8583 23.2428 31.155C23.2428 29.2445 24.0051 27.7714 25.5297 26.7356C27.0777 25.6998 29.259 25.1819 32.0736 25.1819H34.7123V24.008C34.7123 22.8572 34.3605 22.017 33.6568 21.4876C32.9532 20.9582 31.9329 20.6935 30.5959 20.6935C29.9392 20.6935 29.1769 20.774 28.3091 20.9352C27.4412 21.0963 26.5617 21.3265 25.6704 21.6257L24.6853 18.8981C26.9135 18.0695 29.0831 17.6552 31.194 17.6552C33.6568 17.6552 35.5097 18.1846 36.7529 19.2434C37.996 20.3022 38.6175 21.8098 38.6175 23.7663V31.9145ZM30.5256 33.9861C31.3465 33.9861 32.1322 33.779 32.8828 33.3647C33.6568 32.9503 34.2666 32.3749 34.7123 31.6383V27.5988H32.531C30.7484 27.5988 29.4466 27.898 28.6257 28.4964C27.8048 29.0719 27.3943 29.912 27.3943 31.0169C27.3943 31.9836 27.6523 32.7201 28.1684 33.2265C28.7078 33.733 29.4935 33.9861 30.5256 33.9861ZM53.6618 31.3967C53.6618 32.9388 54.6002 33.7099 56.4764 33.7099C57.4148 33.7099 58.3999 33.5028 59.4318 33.0884L60.4169 35.7815C59.1267 36.472 57.5319 36.8173 55.6321 36.8173C53.779 36.8173 52.3249 36.3109 51.2694 35.2981C50.2376 34.2623 49.7214 32.8468 49.7214 31.0514V13.6501H44.1274V10.819H53.6618V31.3967ZM69.8672 28.4964C69.9843 30.2688 70.5005 31.6038 71.4152 32.5015C72.3536 33.3762 73.5262 33.8135 74.9335 33.8135C75.8015 33.8135 76.6222 33.6869 77.3963 33.4337C78.1939 33.1575 79.0031 32.7547 79.8238 32.2253L81.5126 34.5731C80.6446 35.2866 79.6243 35.8391 78.4517 36.2303C77.2791 36.6216 76.0477 36.8173 74.7576 36.8173C71.9194 36.8173 69.7149 35.9541 68.1433 34.2278C66.5717 32.4785 65.7861 30.1537 65.7861 27.2535C65.7861 25.4351 66.1263 23.8009 66.8063 22.3508C67.4864 20.8776 68.4715 19.7268 69.7617 18.8981C71.0518 18.0695 72.5527 17.6552 74.265 17.6552C76.7278 17.6552 78.6744 18.4723 80.1053 20.1065C81.5594 21.7178 82.2866 23.939 82.2866 26.7701C82.2866 27.4607 82.2514 28.0361 82.1811 28.4964H69.8672ZM74.3002 20.5209C73.0336 20.5209 72.0018 20.9697 71.2041 21.8674C70.4065 22.7651 69.9492 24.1001 69.832 25.8724H78.4517C78.405 24.1461 78.0295 22.8226 77.3259 21.9019C76.6222 20.9812 75.6135 20.5209 74.3002 20.5209ZM103.206 35.4017C102.503 35.8391 101.682 36.1843 100.744 36.4375C99.8053 36.6907 98.8202 36.8173 97.7883 36.8173C95.6774 36.8173 94.0474 36.2879 92.898 35.2291C91.7485 34.1473 91.174 32.6856 91.174 30.8442V20.9697H87.0577V18.1385H91.174V14.0644L95.1145 13.6156V18.1385H101.412L100.955 20.9697H95.1145V30.8097C95.1145 31.7995 95.3723 32.536 95.8885 33.0194C96.4046 33.4797 97.2254 33.7099 98.3512 33.7099C99.5942 33.7099 100.744 33.4222 101.799 32.8468L103.206 35.4017ZM124.302 35.4017C123.599 35.8391 122.778 36.1843 121.839 36.4375C120.901 36.6907 119.916 36.8173 118.884 36.8173C116.773 36.8173 115.143 36.2879 113.994 35.2291C112.844 34.1473 112.27 32.6856 112.27 30.8442V20.9697H108.153V18.1385H112.27V14.0644L116.21 13.6156V18.1385H122.508L122.05 20.9697H116.21V30.8097C116.21 31.7995 116.468 32.536 116.984 33.0194C117.5 33.4797 118.321 33.7099 119.447 33.7099C120.69 33.7099 121.839 33.4222 122.895 32.8468L124.302 35.4017ZM133.154 28.4964C133.272 30.2688 133.788 31.6038 134.702 32.5015C135.641 33.3762 136.813 33.8135 138.221 33.8135C139.089 33.8135 139.909 33.6869 140.683 33.4337C141.481 33.1575 142.29 32.7547 143.111 32.2253L144.8 34.5731C143.932 35.2866 142.912 35.8391 141.739 36.2303C140.566 36.6216 139.335 36.8173 138.045 36.8173C135.207 36.8173 133.002 35.9541 131.43 34.2278C129.859 32.4785 129.073 30.1537 129.073 27.2535C129.073 25.4351 129.413 23.8009 130.094 22.3508C130.774 20.8776 131.759 19.7268 133.049 18.8981C134.339 18.0695 135.84 17.6552 137.552 17.6552C140.015 17.6552 141.962 18.4723 143.392 20.1065C144.847 21.7178 145.574 23.939 145.574 26.7701C145.574 27.4607 145.539 28.0361 145.468 28.4964H133.154ZM137.587 20.5209C136.321 20.5209 135.289 20.9697 134.491 21.8674C133.694 22.7651 133.236 24.1001 133.119 25.8724H141.739C141.692 24.1461 141.317 22.8226 140.613 21.9019C139.909 20.9812 138.901 20.5209 137.587 20.5209Z" fill="#9FA6B9"/>
<path d="M169.717 17.6552C170.867 17.6552 171.77 18.0464 172.426 18.829C173.083 19.6117 173.412 20.9466 173.412 22.8341V36.3684H169.929V23.352C169.929 22.3392 169.847 21.6372 169.682 21.2459C169.542 20.8546 169.213 20.6589 168.697 20.6589C167.712 20.6589 166.797 21.2689 165.953 22.4888V36.3684H162.751V23.352C162.751 22.3392 162.669 21.6372 162.505 21.2459C162.364 20.8546 162.036 20.6589 161.52 20.6589C160.535 20.6589 159.62 21.2689 158.776 22.4888V36.3684H155.257V18.1385H158.213L158.494 20.1065C159.081 19.3009 159.679 18.6909 160.289 18.2766C160.898 17.8623 161.625 17.6552 162.47 17.6552C164.112 17.6552 165.167 18.4262 165.636 19.9684C166.199 19.2319 166.809 18.6679 167.466 18.2766C168.123 17.8623 168.873 17.6552 169.717 17.6552Z" fill="#3F4555"/>
<path d="M222.221 9.19623C222.971 9.19623 223.581 9.43791 224.05 9.92128C224.543 10.3816 224.789 10.9571 224.789 11.6476C224.789 12.3381 224.543 12.9136 224.05 13.3739C223.581 13.8342 222.971 14.0644 222.221 14.0644C221.447 14.0644 220.825 13.8342 220.356 13.3739C219.887 12.9136 219.653 12.3381 219.653 11.6476C219.653 10.934 219.887 10.3471 220.356 9.88675C220.849 9.42642 221.47 9.19623 222.221 9.19623ZM224.93 33.5373H229.996V36.3684H215.466V33.5373H220.989V20.9697H215.642V18.1385H224.93V33.5373ZM244.055 31.3967C244.055 32.9388 244.994 33.7099 246.87 33.7099C247.808 33.7099 248.793 33.5028 249.825 33.0884L250.81 35.7815C249.52 36.472 247.925 36.8173 246.026 36.8173C244.173 36.8173 242.718 36.3109 241.663 35.2981C240.631 34.2623 240.115 32.8468 240.115 31.0514V13.6501H234.521V10.819H244.055V31.3967Z" fill="#3F4555"/>
<path d="M198.631 8.45178C202.595 8.45178 205.409 9.69473 207.074 12.1806C208.763 14.6435 209.608 18.1767 209.608 22.7802C209.608 25.8645 209.443 28.3735 209.115 30.3069C208.81 32.2404 208.247 33.7136 207.426 34.7263C206.629 35.7391 205.503 36.2455 204.049 36.2455C202.782 36.2455 201.797 35.7966 201.093 34.8989C200.413 34.0243 199.991 32.8849 199.827 31.4808H199.686C199.264 32.4245 198.631 33.1957 197.786 33.7941C196.942 34.3925 195.933 34.6918 194.761 34.6918C192.79 34.6918 191.348 33.9782 190.433 32.5512C189.518 31.1241 189.061 29.2136 189.061 26.8198C189.061 23.8965 189.683 21.6178 190.926 19.9836C192.192 18.3493 194.068 17.5322 196.555 17.5322C197.516 17.5322 198.501 17.6588 199.51 17.912C200.542 18.1652 201.527 18.545 202.465 19.0514V29.4093C202.465 30.6522 202.571 31.5384 202.782 32.0678C203.017 32.5972 203.38 32.8619 203.873 32.8619C204.319 32.8619 204.647 32.5512 204.858 31.9297C205.069 31.3082 205.198 30.353 205.245 29.064C205.315 27.752 205.35 25.761 205.35 23.0909C205.35 20.536 205.151 18.4529 204.752 16.8417C204.354 15.2074 203.638 13.9645 202.606 13.1128C201.598 12.2612 200.179 11.8354 198.349 11.8354C197.036 11.8354 195.757 12.0885 194.514 12.5949C193.271 13.0783 191.993 13.8839 190.679 15.0118L188.463 12.4568C190.058 11.0758 191.664 10.063 193.283 9.41852C194.925 8.77401 196.707 8.45178 198.631 8.45178ZM196.449 20.9503C195.816 20.9503 195.323 21.1344 194.972 21.5027C194.643 21.871 194.409 22.4695 194.268 23.2981C194.127 24.1267 194.057 25.3006 194.057 26.8198C194.057 28.431 194.174 29.5819 194.409 30.2724C194.667 30.9399 195.124 31.2737 195.781 31.2737C196.461 31.2737 196.942 31.0435 197.223 30.5832C197.505 30.1228 197.692 29.5359 197.786 28.8223V21.261C197.364 21.0539 196.918 20.9503 196.449 20.9503Z" fill="#3F4555"/>
<path d="M183.206 39.579C185.576 39.579 187.497 37.6938 187.497 35.3684C187.497 33.043 185.576 31.1579 183.206 31.1579C180.836 31.1579 178.916 33.043 178.916 35.3684C178.916 37.6938 180.836 39.579 183.206 39.579Z" fill="#3A4A74"/>
<path d="M193.289 48C196.488 48 199.081 45.4551 199.081 42.3158C199.081 39.1765 196.488 36.6316 193.289 36.6316C190.09 36.6316 187.497 39.1765 187.497 42.3158C187.497 45.4551 190.09 48 193.289 48Z" fill="#1F3148"/>
<path d="M181.49 29.6316C183.385 29.6316 184.922 28.1235 184.922 26.2631C184.922 24.4028 183.385 22.8947 181.49 22.8947C179.594 22.8947 178.057 24.4028 178.057 26.2631C178.057 28.1235 179.594 29.6316 181.49 29.6316Z" fill="#689BDD"/>
<path d="M184.493 19.3684C186.152 19.3684 187.497 18.0488 187.497 16.4211C187.497 14.7933 186.152 13.4737 184.493 13.4737C182.835 13.4737 181.49 14.7933 181.49 16.4211C181.49 18.0488 182.835 19.3684 184.493 19.3684Z" fill="#9AB1EA"/>
</g>
<defs>
<clipPath id="clip0_834_570">
<rect width="254" height="48" fill="white"/>
</clipPath>
</defs>
</svg>
