<svg width="246" height="48" viewBox="0 0 246 48" fill="none" xmlns="http://www.w3.org/2000/svg">
<g clip-path="url(#clip0_834_597)">
<path d="M11.995 17.6552C16.3565 17.6552 18.5373 20.8431 18.5373 27.219C18.5373 30.0961 17.9353 32.4209 16.7314 34.1933C15.5274 35.9426 13.8123 36.8173 11.5861 36.8173C9.7007 36.8173 8.1787 36.1498 7.02018 34.8148V43.3773L3.20386 43.8261V18.1385H6.50906L6.74758 20.4863C7.42907 19.5656 8.21278 18.8636 9.09871 18.3802C10.0074 17.8969 10.9728 17.6552 11.995 17.6552ZM10.9387 20.6244C10.1437 20.6244 9.41672 20.8661 8.75797 21.3495C8.09921 21.8329 7.51995 22.4658 7.02018 23.2484V31.7764C7.90611 33.1345 9.08737 33.8135 10.5639 33.8135C11.8815 33.8135 12.8696 33.2841 13.5284 32.2253C14.1871 31.1665 14.5165 29.5092 14.5165 27.2535C14.5165 24.9287 14.2212 23.2484 13.6306 22.2127C13.04 21.1538 12.1427 20.6244 10.9387 20.6244ZM37.4012 31.9145C37.4012 32.6051 37.5034 33.123 37.7078 33.4682C37.9123 33.7905 38.2644 34.0321 38.7641 34.1933L37.8782 36.8173C35.9927 36.5871 34.7547 35.747 34.1641 34.2969C33.5053 35.1255 32.6762 35.7585 31.6767 36.1958C30.6999 36.6101 29.6208 36.8173 28.4396 36.8173C26.6223 36.8173 25.1798 36.2994 24.1122 35.2636C23.0445 34.2278 22.5107 32.8583 22.5107 31.155C22.5107 29.2445 23.2489 27.7714 24.7255 26.7356C26.2248 25.6998 28.3374 25.1819 31.0633 25.1819H33.6189V24.008C33.6189 22.8572 33.2782 22.017 32.5967 21.4876C31.9152 20.9582 30.9271 20.6935 29.6322 20.6935C28.9962 20.6935 28.2579 20.774 27.4174 20.9352C26.5769 21.0963 25.725 21.3265 24.8618 21.6257L23.9077 18.8981C26.0658 18.0695 28.167 17.6552 30.2115 17.6552C32.5967 17.6552 34.3912 18.1846 35.5952 19.2434C36.7992 20.3022 37.4012 21.8098 37.4012 23.7663V31.9145ZM29.5641 33.9861C30.3591 33.9861 31.1201 33.779 31.8471 33.3647C32.5967 32.9503 33.1873 32.3749 33.6189 31.6383V27.5988H31.5063C29.7799 27.5988 28.5191 27.898 27.7241 28.4964C26.929 29.0719 26.5315 29.912 26.5315 31.0169C26.5315 31.9836 26.7813 32.7201 27.2811 33.2265C27.8036 33.733 28.5645 33.9861 29.5641 33.9861ZM51.9716 31.3967C51.9716 32.9388 52.8804 33.7099 54.6976 33.7099C55.6064 33.7099 56.5605 33.5028 57.5598 33.0884L58.5139 35.7815C57.2644 36.472 55.7198 36.8173 53.8798 36.8173C52.0851 36.8173 50.6768 36.3109 49.6546 35.2981C48.6552 34.2623 48.1553 32.8468 48.1553 31.0514V13.6501H42.7375V10.819H51.9716V31.3967ZM67.6666 28.4964C67.7801 30.2688 68.2799 31.6038 69.1659 32.5015C70.0747 33.3762 71.2103 33.8135 72.5733 33.8135C73.4139 33.8135 74.2089 33.6869 74.9585 33.4337C75.731 33.1575 76.5147 32.7547 77.3096 32.2253L78.9452 34.5731C78.1046 35.2866 77.1164 35.8391 75.9808 36.2303C74.8451 36.6216 73.6525 36.8173 72.4029 36.8173C69.6541 36.8173 67.5191 35.9541 65.997 34.2278C64.4748 32.4785 63.714 30.1537 63.714 27.2535C63.714 25.4351 64.0435 23.8009 64.7021 22.3508C65.3608 20.8776 66.3149 19.7268 67.5644 18.8981C68.8139 18.0695 70.2675 17.6552 71.9259 17.6552C74.3111 17.6552 76.1964 18.4723 77.5822 20.1065C78.9905 21.7178 79.6948 23.939 79.6948 26.7701C79.6948 27.4607 79.6608 28.0361 79.5926 28.4964H67.6666ZM71.96 20.5209C70.7333 20.5209 69.7339 20.9697 68.9614 21.8674C68.1889 22.7651 67.746 24.1001 67.6325 25.8724H75.9808C75.9355 24.1461 75.5719 22.8226 74.8904 21.9019C74.2089 20.9812 73.2319 20.5209 71.96 20.5209ZM99.9558 35.4017C99.2743 35.8391 98.4794 36.1843 97.5706 36.4375C96.6618 36.6907 95.7077 36.8173 94.7083 36.8173C92.6639 36.8173 91.0852 36.2879 89.972 35.2291C88.8588 34.1473 88.3024 32.6856 88.3024 30.8442V20.9697H84.3157V18.1385H88.3024V14.0644L92.1187 13.6156V18.1385H98.218L97.775 20.9697H92.1187V30.8097C92.1187 31.7995 92.3684 32.536 92.8683 33.0194C93.3682 33.4797 94.1631 33.7099 95.2535 33.7099C96.4573 33.7099 97.5706 33.4222 98.5928 32.8468L99.9558 35.4017ZM120.387 35.4017C119.706 35.8391 118.911 36.1843 118.002 36.4375C117.093 36.6907 116.139 36.8173 115.14 36.8173C113.095 36.8173 111.517 36.2879 110.403 35.2291C109.29 34.1473 108.734 32.6856 108.734 30.8442V20.9697H104.747V18.1385H108.734V14.0644L112.55 13.6156V18.1385H118.649L118.206 20.9697H112.55V30.8097C112.55 31.7995 112.8 32.536 113.3 33.0194C113.8 33.4797 114.594 33.7099 115.685 33.7099C116.889 33.7099 118.002 33.4222 119.024 32.8468L120.387 35.4017ZM128.96 28.4964C129.074 30.2688 129.574 31.6038 130.46 32.5015C131.369 33.3762 132.504 33.8135 133.867 33.8135C134.708 33.8135 135.503 33.6869 136.252 33.4337C137.025 33.1575 137.809 32.7547 138.604 32.2253L140.239 34.5731C139.398 35.2866 138.41 35.8391 137.275 36.2303C136.139 36.6216 134.946 36.8173 133.697 36.8173C130.948 36.8173 128.813 35.9541 127.291 34.2278C125.769 32.4785 125.008 30.1537 125.008 27.2535C125.008 25.4351 125.337 23.8009 125.996 22.3508C126.655 20.8776 127.609 19.7268 128.858 18.8981C130.108 18.0695 131.561 17.6552 133.22 17.6552C135.605 17.6552 137.49 18.4723 138.876 20.1065C140.284 21.7178 140.989 23.939 140.989 26.7701C140.989 27.4607 140.955 28.0361 140.887 28.4964H128.96ZM133.254 20.5209C132.027 20.5209 131.028 20.9697 130.255 21.8674C129.483 22.7651 129.04 24.1001 128.926 25.8724H137.275C137.229 24.1461 136.866 22.8226 136.184 21.9019C135.503 20.9812 134.526 20.5209 133.254 20.5209Z" fill="#9FA6B9"/>
<path d="M164.372 17.6552C165.485 17.6552 166.36 18.0464 166.996 18.829C167.632 19.6117 167.95 20.9466 167.95 22.8341V36.3684H164.576V23.352C164.576 22.3392 164.497 21.6372 164.338 21.2459C164.202 20.8546 163.884 20.6589 163.384 20.6589C162.43 20.6589 161.544 21.2689 160.726 22.4888V36.3684H157.625V23.352C157.625 22.3392 157.546 21.6372 157.387 21.2459C157.25 20.8546 156.933 20.6589 156.433 20.6589C155.479 20.6589 154.593 21.2689 153.775 22.4888V36.3684H150.367V18.1385H153.23L153.502 20.1065C154.07 19.3009 154.65 18.6909 155.24 18.2766C155.831 17.8623 156.535 17.6552 157.353 17.6552C158.943 17.6552 159.965 18.4262 160.419 19.9684C160.965 19.2319 161.555 18.6679 162.191 18.2766C162.827 17.8623 163.554 17.6552 164.372 17.6552Z" fill="#9FA6B9"/>
<path d="M215.222 9.19623C215.949 9.19623 216.539 9.43791 216.994 9.92128C217.471 10.3816 217.709 10.9571 217.709 11.6476C217.709 12.3381 217.471 12.9136 216.994 13.3739C216.539 13.8342 215.949 14.0644 215.222 14.0644C214.472 14.0644 213.87 13.8342 213.416 13.3739C212.962 12.9136 212.734 12.3381 212.734 11.6476C212.734 10.934 212.962 10.3471 213.416 9.88675C213.893 9.42642 214.495 9.19623 215.222 9.19623ZM217.845 33.5373H222.752V36.3684H208.679V33.5373H214.029V20.9697H208.85V18.1385H217.845V33.5373ZM236.369 31.3967C236.369 32.9388 237.277 33.7099 239.095 33.7099C240.003 33.7099 240.957 33.5028 241.957 33.0884L242.911 35.7815C241.661 36.472 240.117 36.8173 238.277 36.8173C236.482 36.8173 235.074 36.3109 234.052 35.2981C233.052 34.2623 232.552 32.8468 232.552 31.0514V13.6501H227.134V10.819H236.369V31.3967Z" fill="#9FA6B9"/>
<path d="M192.374 8.45178C196.214 8.45178 198.94 9.69473 200.552 12.1806C202.188 14.6435 203.006 18.1767 203.006 22.7802C203.006 25.8645 202.846 28.3735 202.529 30.3069C202.233 32.2404 201.688 33.7136 200.893 34.7263C200.121 35.7391 199.03 36.2455 197.622 36.2455C196.395 36.2455 195.441 35.7966 194.76 34.8989C194.101 34.0243 193.692 32.8849 193.533 31.4808H193.397C192.988 32.4245 192.374 33.1957 191.557 33.7941C190.739 34.3925 189.762 34.6918 188.626 34.6918C186.718 34.6918 185.321 33.9782 184.435 32.5512C183.549 31.1241 183.106 29.2136 183.106 26.8198C183.106 23.8965 183.708 21.6178 184.912 19.9836C186.139 18.3493 187.956 17.5322 190.364 17.5322C191.295 17.5322 192.249 17.6588 193.226 17.912C194.226 18.1652 195.18 18.545 196.089 19.0514V29.4093C196.089 30.6522 196.191 31.5384 196.395 32.0678C196.623 32.5972 196.974 32.8619 197.452 32.8619C197.883 32.8619 198.201 32.5512 198.406 31.9297C198.61 31.3082 198.735 30.353 198.78 29.064C198.849 27.752 198.883 25.761 198.883 23.0909C198.883 20.536 198.689 18.4529 198.303 16.8417C197.917 15.2074 197.224 13.9645 196.225 13.1128C195.248 12.2612 193.874 11.8354 192.102 11.8354C190.83 11.8354 189.592 12.0885 188.388 12.5949C187.184 13.0783 185.946 13.8839 184.674 15.0118L182.527 12.4568C184.072 11.0758 185.628 10.063 187.195 9.41852C188.785 8.77401 190.512 8.45178 192.374 8.45178ZM190.262 20.9503C189.649 20.9503 189.171 21.1344 188.831 21.5027C188.513 21.871 188.286 22.4695 188.149 23.2981C188.013 24.1267 187.945 25.3006 187.945 26.8198C187.945 28.431 188.058 29.5819 188.286 30.2724C188.535 30.9399 188.978 31.2737 189.614 31.2737C190.273 31.2737 190.739 31.0435 191.011 30.5832C191.284 30.1228 191.466 29.5359 191.557 28.8223V21.261C191.148 21.0539 190.716 20.9503 190.262 20.9503Z" fill="#9FA6B9"/>
<path d="M177.436 39.579C179.731 39.579 181.591 37.6938 181.591 35.3684C181.591 33.043 179.731 31.1579 177.436 31.1579C175.141 31.1579 173.28 33.043 173.28 35.3684C173.28 37.6938 175.141 39.579 177.436 39.579Z" fill="#3A4A74"/>
<path d="M187.201 48C190.299 48 192.811 45.4551 192.811 42.3158C192.811 39.1765 190.299 36.6316 187.201 36.6316C184.103 36.6316 181.591 39.1765 181.591 42.3158C181.591 45.4551 184.103 48 187.201 48Z" fill="#1F3148"/>
<path d="M175.774 29.6316C177.61 29.6316 179.098 28.1235 179.098 26.2631C179.098 24.4028 177.61 22.8947 175.774 22.8947C173.938 22.8947 172.449 24.4028 172.449 26.2631C172.449 28.1235 173.938 29.6316 175.774 29.6316Z" fill="#689BDD"/>
<path d="M178.682 19.3684C180.289 19.3684 181.591 18.0488 181.591 16.4211C181.591 14.7933 180.289 13.4737 178.682 13.4737C177.076 13.4737 175.774 14.7933 175.774 16.4211C175.774 18.0488 177.076 19.3684 178.682 19.3684Z" fill="#9AB1EA"/>
</g>
<defs>
<clipPath id="clip0_834_597">
<rect width="246" height="48" fill="white"/>
</clipPath>
</defs>
</svg>
