<svg width="168" height="32" viewBox="0 0 168 32" fill="none" xmlns="http://www.w3.org/2000/svg">
<g clip-path="url(#clip0_834_534)">
<path d="M8.19172 11.1034C11.1703 11.1034 12.6596 13.2287 12.6596 17.4793C12.6596 19.3974 12.2485 20.9473 11.4263 22.1288C10.6041 23.2951 9.43279 23.8782 7.91247 23.8782C6.62486 23.8782 5.58545 23.4332 4.79426 22.5432V28.2515L2.18799 28.5507V11.4257H4.4452L4.60809 12.9909C5.0735 12.3771 5.60872 11.909 6.21374 11.5868C6.83429 11.2646 7.49361 11.1034 8.19172 11.1034ZM7.47034 13.0829C6.92737 13.0829 6.43092 13.2441 5.98104 13.5663C5.53116 13.8886 5.13556 14.3105 4.79426 14.8323V20.5176C5.39928 21.423 6.206 21.8756 7.21436 21.8756C8.11416 21.8756 8.78899 21.5227 9.23888 20.8168C9.68876 20.111 9.91372 19.0061 9.91372 17.5023C9.91372 15.9525 9.71203 14.8323 9.30869 14.1417C8.90535 13.4359 8.29254 13.0829 7.47034 13.0829ZM25.5423 20.6097C25.5423 21.07 25.6121 21.4153 25.7517 21.6455C25.8913 21.8603 26.1318 22.0214 26.4731 22.1288L25.868 23.8782C24.5804 23.7247 23.7349 23.1646 23.3316 22.1979C22.8817 22.7503 22.3154 23.1723 21.6329 23.4639C20.9658 23.7401 20.2289 23.8782 19.4222 23.8782C18.1811 23.8782 17.196 23.5329 16.4669 22.8424C15.7377 22.1519 15.3731 21.2388 15.3731 20.1033C15.3731 18.8297 15.8773 17.8476 16.8857 17.157C17.9096 16.4665 19.3524 16.1213 21.214 16.1213H22.9593V15.3387C22.9593 14.5714 22.7266 14.0113 22.2611 13.6584C21.7957 13.3055 21.1209 13.129 20.2366 13.129C19.8022 13.129 19.298 13.1827 18.7241 13.2901C18.1501 13.3975 17.5683 13.551 16.9788 13.7505L16.3272 11.9321C17.801 11.3796 19.236 11.1034 20.6322 11.1034C22.2611 11.1034 23.4867 11.4564 24.3089 12.1622C25.1311 12.8681 25.5423 13.8732 25.5423 15.1775V20.6097ZM20.1901 21.9907C20.7331 21.9907 21.2528 21.8526 21.7492 21.5764C22.2611 21.3002 22.6645 20.9166 22.9593 20.4255V17.7325H21.5165C20.3375 17.7325 19.4765 17.932 18.9335 18.3309C18.3905 18.7146 18.119 19.2747 18.119 20.0112C18.119 20.6557 18.2897 21.1467 18.631 21.4843C18.9878 21.8219 19.5075 21.9907 20.1901 21.9907ZM35.4928 20.2644C35.4928 21.2925 36.1135 21.8066 37.3544 21.8066C37.9751 21.8066 38.6266 21.6685 39.3091 21.3923L39.9607 23.1876C39.1074 23.648 38.0526 23.8782 36.796 23.8782C35.5703 23.8782 34.6086 23.5406 33.9104 22.8654C33.2279 22.1749 32.8866 21.2312 32.8866 20.0342V8.4334H29.1866V6.54596H35.4928V20.2644ZM46.2113 18.3309C46.2888 19.5125 46.6302 20.4025 47.2352 21.001C47.8559 21.5841 48.6314 21.8756 49.5623 21.8756C50.1363 21.8756 50.6792 21.7912 51.1912 21.6225C51.7187 21.4383 52.2539 21.1698 52.7968 20.8168L53.9138 22.382C53.3397 22.8577 52.6649 23.226 51.8893 23.4869C51.1137 23.7477 50.2992 23.8782 49.4459 23.8782C47.5687 23.8782 46.1106 23.3027 45.0711 22.1519C44.0316 20.9856 43.512 19.4358 43.512 17.5023C43.512 16.29 43.737 15.2006 44.1868 14.2338C44.6366 13.2517 45.2882 12.4845 46.1415 11.9321C46.9949 11.3796 47.9875 11.1034 49.1201 11.1034C50.749 11.1034 52.0366 11.6482 52.983 12.7377C53.9447 13.8118 54.4257 15.2926 54.4257 17.1801C54.4257 17.6404 54.4025 18.0241 54.3559 18.3309H46.2113ZM49.1434 13.0139C48.3057 13.0139 47.6232 13.3131 47.0956 13.9116C46.5681 14.51 46.2655 15.4001 46.1881 16.5816H51.8893C51.8584 15.4307 51.61 14.5484 51.1446 13.9346C50.6792 13.3208 50.0121 13.0139 49.1434 13.0139ZM68.2625 22.9345C67.7971 23.226 67.2542 23.4562 66.6336 23.625C66.0129 23.7938 65.3614 23.8782 64.6789 23.8782C63.2826 23.8782 62.2045 23.5252 61.4443 22.8194C60.684 22.0982 60.304 21.1237 60.304 19.8961V13.3131H57.5814V11.4257H60.304V8.70961L62.9103 8.41038V11.4257H67.0757L66.7732 13.3131H62.9103V19.8731C62.9103 20.533 63.0809 21.024 63.4223 21.3462C63.7636 21.6531 64.3065 21.8066 65.0512 21.8066C65.8733 21.8066 66.6336 21.6148 67.3317 21.2312L68.2625 22.9345ZM82.2156 22.9345C81.7502 23.226 81.2073 23.4562 80.5866 23.625C79.966 23.7938 79.3144 23.8782 78.6319 23.8782C77.2357 23.8782 76.1576 23.5252 75.3974 22.8194C74.6371 22.0982 74.2571 21.1237 74.2571 19.8961V13.3131H71.5345V11.4257H74.2571V8.70961L76.8634 8.41038V11.4257H81.0288L80.7262 13.3131H76.8634V19.8731C76.8634 20.533 77.0339 21.024 77.3753 21.3462C77.7167 21.6531 78.2596 21.8066 79.0043 21.8066C79.8264 21.8066 80.5866 21.6148 81.2847 21.2312L82.2156 22.9345ZM88.0706 18.3309C88.148 19.5125 88.4894 20.4025 89.0945 21.001C89.7151 21.5841 90.4907 21.8756 91.4215 21.8756C91.9956 21.8756 92.5385 21.7912 93.0504 21.6225C93.578 21.4383 94.1132 21.1698 94.6561 20.8168L95.773 22.382C95.1989 22.8577 94.5241 23.226 93.7485 23.4869C92.9729 23.7477 92.1585 23.8782 91.3052 23.8782C89.4279 23.8782 87.9698 23.3027 86.9303 22.1519C85.8908 20.9856 85.3712 19.4358 85.3712 17.5023C85.3712 16.29 85.5963 15.2006 86.0461 14.2338C86.4959 13.2517 87.1474 12.4845 88.0008 11.9321C88.8541 11.3796 89.8468 11.1034 90.9794 11.1034C92.6083 11.1034 93.8958 11.6482 94.8422 12.7377C95.804 13.8118 96.285 15.2926 96.285 17.1801C96.285 17.6404 96.2617 18.0241 96.2152 18.3309H88.0706ZM91.0026 13.0139C90.1649 13.0139 89.4824 13.3131 88.9548 13.9116C88.4273 14.51 88.1248 15.4001 88.0473 16.5816H93.7485C93.7176 15.4307 93.4693 14.5484 93.0039 13.9346C92.5385 13.3208 91.8713 13.0139 91.0026 13.0139Z" fill="#3F4555"/>
<path d="M112.254 11.1035C113.014 11.1035 113.611 11.3643 114.046 11.8861C114.48 12.4078 114.697 13.2978 114.697 14.5561V23.579H112.394V14.9013C112.394 14.2262 112.34 13.7581 112.231 13.4973C112.138 13.2364 111.921 13.106 111.579 13.106C110.928 13.106 110.323 13.5126 109.764 14.3259V23.579H107.647V14.9013C107.647 14.2262 107.592 13.7581 107.484 13.4973C107.391 13.2364 107.174 13.106 106.832 13.106C106.181 13.106 105.576 13.5126 105.017 14.3259V23.579H102.69V11.4257H104.645L104.831 12.7377C105.219 12.2006 105.614 11.794 106.018 11.5178C106.421 11.2416 106.902 11.1035 107.46 11.1035C108.546 11.1035 109.245 11.6175 109.555 12.6456C109.927 12.1546 110.33 11.7786 110.765 11.5178C111.199 11.2416 111.696 11.1035 112.254 11.1035Z" fill="#9FA6B9"/>
<path d="M146.981 5.46411C147.477 5.46411 147.881 5.62523 148.191 5.94748C148.517 6.25437 148.679 6.63801 148.679 7.09836C148.679 7.55871 148.517 7.94234 148.191 8.24923C147.881 8.55613 147.477 8.70959 146.981 8.70959C146.469 8.70959 146.058 8.55613 145.747 8.24923C145.437 7.94234 145.282 7.55871 145.282 7.09836C145.282 6.62265 145.437 6.23135 145.747 5.92446C146.073 5.61757 146.484 5.46411 146.981 5.46411ZM148.773 21.6915H152.123V23.5789H142.513V21.6915H146.166V13.3131H142.629V11.4257H148.773V21.6915ZM161.422 20.2644C161.422 21.2925 162.043 21.8066 163.284 21.8066C163.905 21.8066 164.556 21.6685 165.239 21.3923L165.89 23.1876C165.037 23.648 163.982 23.8781 162.726 23.8781C161.5 23.8781 160.538 23.5405 159.84 22.8654C159.158 22.1748 158.816 21.2311 158.816 20.0342V8.43337H155.116V6.54594H161.422V20.2644Z" fill="#9FA6B9"/>
<path d="M131.378 4.96783C134 4.96783 135.861 5.79647 136.963 7.45373C138.08 9.09564 138.638 11.4511 138.638 14.5201C138.638 16.5763 138.529 18.249 138.312 19.5379C138.11 20.8269 137.738 21.809 137.195 22.4842C136.668 23.1594 135.923 23.497 134.961 23.497C134.124 23.497 133.472 23.1977 133.007 22.5993C132.557 22.0162 132.278 21.2566 132.169 20.3205H132.076C131.797 20.9497 131.378 21.4638 130.819 21.8627C130.261 22.2617 129.594 22.4612 128.818 22.4612C127.515 22.4612 126.561 21.9855 125.956 21.0341C125.351 20.0827 125.048 18.809 125.048 17.2132C125.048 15.2643 125.459 13.7452 126.282 12.6557C127.119 11.5662 128.36 11.0214 130.005 11.0214C130.641 11.0214 131.292 11.1059 131.959 11.2746C132.642 11.4434 133.294 11.6966 133.914 12.0342V18.9395C133.914 19.7681 133.984 20.3589 134.124 20.7118C134.279 21.0648 134.519 21.2412 134.845 21.2412C135.14 21.2412 135.357 21.0341 135.497 20.6198C135.636 20.2054 135.722 19.5686 135.753 18.7093C135.799 17.8346 135.822 16.5073 135.822 14.7273C135.822 13.024 135.69 11.6353 135.427 10.5611C135.163 9.47161 134.69 8.64298 134.007 8.0752C133.34 7.50743 132.402 7.22355 131.192 7.22355C130.323 7.22355 129.477 7.39234 128.655 7.72994C127.833 8.05219 126.987 8.58925 126.119 9.34117L124.653 7.63787C125.707 6.71717 126.77 6.042 127.841 5.61233C128.927 5.18266 130.105 4.96783 131.378 4.96783ZM129.935 13.3002C129.516 13.3002 129.19 13.4229 128.958 13.6685C128.74 13.914 128.585 14.313 128.492 14.8654C128.399 15.4178 128.353 16.2004 128.353 17.2132C128.353 18.2873 128.43 19.0546 128.585 19.5149C128.756 19.9599 129.058 20.1824 129.493 20.1824C129.943 20.1824 130.261 20.029 130.447 19.7221C130.633 19.4152 130.757 19.0239 130.819 18.5482V13.5073C130.54 13.3692 130.245 13.3002 129.935 13.3002Z" fill="#9FA6B9"/>
<path d="M121.176 26.3859C122.743 26.3859 124.014 25.1292 124.014 23.5789C124.014 22.0287 122.743 20.7719 121.176 20.7719C119.608 20.7719 118.338 22.0287 118.338 23.5789C118.338 25.1292 119.608 26.3859 121.176 26.3859Z" fill="#3A4A74"/>
<path d="M127.845 32C129.96 32 131.676 30.3034 131.676 28.2106C131.676 26.1177 129.96 24.4211 127.845 24.4211C125.729 24.4211 124.013 26.1177 124.013 28.2106C124.013 30.3034 125.729 32 127.845 32Z" fill="#1F3148"/>
<path d="M120.041 19.0877C121.294 19.0877 122.311 18.0823 122.311 16.8421C122.311 15.6019 121.294 14.5965 120.041 14.5965C118.787 14.5965 117.77 15.6019 117.77 16.8421C117.77 18.0823 118.787 19.0877 120.041 19.0877Z" fill="#689BDD"/>
<path d="M122.027 12.9123C123.124 12.9123 124.013 12.0326 124.013 10.9474C124.013 9.8622 123.124 8.98248 122.027 8.98248C120.93 8.98248 120.041 9.8622 120.041 10.9474C120.041 12.0326 120.93 12.9123 122.027 12.9123Z" fill="#9AB1EA"/>
</g>
<defs>
<clipPath id="clip0_834_534">
<rect width="168" height="32" fill="white"/>
</clipPath>
</defs>
</svg>
