<svg width="336" height="64" viewBox="0 0 336 64" fill="none" xmlns="http://www.w3.org/2000/svg">
<g clip-path="url(#clip0_834_552)">
<path d="M16.3835 22.2069C22.3407 22.2069 25.3193 26.4574 25.3193 34.9586C25.3193 38.7948 24.497 41.8946 22.8526 44.2577C21.2082 46.5901 18.8656 47.7563 15.825 47.7563C13.2498 47.7563 11.171 46.8663 9.58857 45.0863V56.503L4.37604 57.1015V22.8514H8.89046L9.21625 25.9817C10.1471 24.7541 11.2175 23.8181 12.4275 23.1736C13.6686 22.5291 14.9873 22.2069 16.3835 22.2069ZM14.9407 26.1659C13.8548 26.1659 12.8619 26.4881 11.9621 27.1326C11.0624 27.7771 10.2712 28.6211 9.58857 29.6645V41.0352C10.7986 42.8459 12.4121 43.7513 14.4288 43.7513C16.2284 43.7513 17.5781 43.0454 18.4778 41.6337C19.3776 40.2219 19.8275 38.0122 19.8275 35.0046C19.8275 31.9049 19.4241 29.6645 18.6174 28.2835C17.8108 26.8717 16.5852 26.1659 14.9407 26.1659ZM51.0846 41.2194C51.0846 42.1401 51.2242 42.8306 51.5034 43.2909C51.7827 43.7206 52.2636 44.0428 52.9462 44.2577L51.7361 47.7563C49.1609 47.4494 47.4699 46.3293 46.6632 44.3958C45.7634 45.5006 44.6309 46.3446 43.2658 46.9277C41.9316 47.4801 40.4578 47.7563 38.8444 47.7563C36.3622 47.7563 34.392 47.0658 32.9338 45.6848C31.4755 44.3037 30.7464 42.4776 30.7464 40.2066C30.7464 37.6593 31.7547 35.6951 33.7715 34.3141C35.8193 32.933 38.7048 32.2425 42.428 32.2425H45.9186V30.6773C45.9186 29.1428 45.4532 28.0226 44.5224 27.3168C43.5915 26.6109 42.2419 26.258 40.4733 26.258C39.6046 26.258 38.5962 26.3653 37.4482 26.5802C36.3002 26.795 35.1367 27.1019 33.9577 27.5009L32.6545 23.8641C35.6021 22.7593 38.4721 22.2069 41.2645 22.2069C44.5224 22.2069 46.9735 22.9127 48.6179 24.3245C50.2623 25.7362 51.0846 27.7464 51.0846 30.3551V41.2194ZM40.3803 43.9815C41.4662 43.9815 42.5056 43.7052 43.4985 43.1528C44.5224 42.6004 45.329 41.8331 45.9186 40.8511V35.465H43.0331C40.675 35.465 38.953 35.864 37.8671 36.6619C36.7811 37.4292 36.2381 38.5493 36.2381 40.0224C36.2381 41.3114 36.5794 42.2935 37.262 42.9687C37.9756 43.6439 39.015 43.9815 40.3803 43.9815ZM70.9857 40.5288C70.9857 42.5851 72.227 43.6132 74.709 43.6132C75.9502 43.6132 77.2534 43.337 78.6184 42.7845L79.9215 46.3753C78.2148 47.296 76.1052 47.7563 73.592 47.7563C71.1407 47.7563 69.2172 47.0811 67.821 45.7308C66.456 44.3497 65.7732 42.4623 65.7732 40.0685V16.8668H58.3732V13.0919H70.9857V40.5288ZM92.4227 36.6619C92.5777 39.025 93.2605 40.805 94.4705 42.002C95.7118 43.1682 97.263 43.7513 99.1246 43.7513C100.273 43.7513 101.359 43.5825 102.382 43.2449C103.438 42.8766 104.508 42.3395 105.594 41.6337L107.828 44.7641C106.679 45.7155 105.33 46.452 103.779 46.9737C102.227 47.4954 100.599 47.7563 98.8919 47.7563C95.1374 47.7563 92.2213 46.6055 90.1423 44.3037C88.0633 41.9712 87.024 38.8716 87.024 35.0046C87.024 32.5801 87.4741 30.4011 88.3737 28.4676C89.2733 26.5035 90.5764 24.969 92.2831 23.8641C93.9898 22.7593 95.9751 22.2069 98.2403 22.2069C101.498 22.2069 104.073 23.2964 105.966 25.4754C107.89 27.6237 108.852 30.5853 108.852 34.3601C108.852 35.2808 108.805 36.0481 108.712 36.6619H92.4227ZM98.2868 26.0278C96.6114 26.0278 95.2464 26.6262 94.1913 27.8231C93.1362 29.0201 92.5311 30.8001 92.3762 33.1632H103.779C103.717 30.8615 103.22 29.0968 102.289 27.8692C101.359 26.6416 100.024 26.0278 98.2868 26.0278ZM136.525 45.8689C135.594 46.452 134.508 46.9124 133.267 47.25C132.026 47.5875 130.723 47.7563 129.358 47.7563C126.565 47.7563 124.409 47.0505 122.889 45.6387C121.368 44.1963 120.608 42.2475 120.608 39.7923V26.6262H115.163V22.8514H120.608V17.4192L125.821 16.8208V22.8514H134.151L133.546 26.6262H125.821V39.7462C125.821 41.0659 126.162 42.048 126.845 42.6925C127.527 43.3063 128.613 43.6132 130.102 43.6132C131.747 43.6132 133.267 43.2296 134.663 42.4623L136.525 45.8689ZM164.431 45.8689C163.5 46.452 162.415 46.9124 161.173 47.25C159.932 47.5875 158.629 47.7563 157.264 47.7563C154.472 47.7563 152.315 47.0505 150.795 45.6387C149.274 44.1963 148.514 42.2475 148.514 39.7923V26.6262H143.069V22.8514H148.514V17.4192L153.727 16.8208V22.8514H162.058L161.453 26.6262H153.727V39.7462C153.727 41.0659 154.068 42.048 154.751 42.6925C155.434 43.3063 156.519 43.6132 158.009 43.6132C159.653 43.6132 161.173 43.2296 162.57 42.4623L164.431 45.8689ZM176.141 36.6619C176.296 39.025 176.979 40.805 178.189 42.002C179.43 43.1682 180.981 43.7513 182.843 43.7513C183.991 43.7513 185.077 43.5825 186.101 43.2449C187.156 42.8766 188.226 42.3395 189.312 41.6337L191.546 44.7641C190.398 45.7155 189.048 46.452 187.497 46.9737C185.946 47.4954 184.317 47.7563 182.61 47.7563C178.856 47.7563 175.94 46.6055 173.861 44.3037C171.782 41.9712 170.743 38.8716 170.743 35.0046C170.743 32.5801 171.193 30.4011 172.092 28.4676C172.992 26.5035 174.295 24.969 176.002 23.8641C177.708 22.7593 179.694 22.2069 181.959 22.2069C185.217 22.2069 187.792 23.2964 189.685 25.4754C191.608 27.6237 192.57 30.5853 192.57 34.3601C192.57 35.2808 192.524 36.0481 192.43 36.6619H176.141ZM182.005 26.0278C180.33 26.0278 178.965 26.6262 177.91 27.8231C176.855 29.0201 176.25 30.8001 176.095 33.1632H187.497C187.435 30.8615 186.939 29.0968 186.008 27.8692C185.077 26.6416 183.743 26.0278 182.005 26.0278Z" fill="#3F4555"/>
<path d="M224.508 22.2068C226.029 22.2068 227.223 22.7286 228.092 23.772C228.961 24.8155 229.395 26.5955 229.395 29.1121V47.1579H224.787V29.8026C224.787 28.4523 224.679 27.5162 224.462 26.9945C224.275 26.4728 223.841 26.2119 223.158 26.2119C221.855 26.2119 220.645 27.0252 219.528 28.6518V47.1579H215.293V29.8026C215.293 28.4523 215.185 27.5162 214.967 26.9945C214.781 26.4728 214.347 26.2119 213.664 26.2119C212.361 26.2119 211.151 27.0252 210.034 28.6518V47.1579H205.38V22.8513H209.289L209.662 25.4753C210.438 24.4012 211.229 23.5879 212.035 23.0355C212.842 22.4831 213.804 22.2068 214.921 22.2068C217.093 22.2068 218.489 23.2349 219.109 25.2912C219.854 24.3091 220.661 23.5572 221.53 23.0355C222.399 22.4831 223.391 22.2068 224.508 22.2068Z" fill="#9FA6B9"/>
<path d="M293.961 10.9283C294.954 10.9283 295.761 11.2505 296.382 11.895C297.033 12.5088 297.359 13.2761 297.359 14.1968C297.359 15.1175 297.033 15.8847 296.382 16.4985C295.761 17.1123 294.954 17.4192 293.961 17.4192C292.938 17.4192 292.115 17.1123 291.495 16.4985C290.874 15.8847 290.564 15.1175 290.564 14.1968C290.564 13.2454 290.874 12.4628 291.495 11.849C292.146 11.2352 292.969 10.9283 293.961 10.9283ZM297.545 43.383H304.247V47.1579H285.026V43.383H292.333V26.6262H285.258V22.8514H297.545V43.383ZM322.845 40.5288C322.845 42.5851 324.086 43.6132 326.568 43.6132C327.809 43.6132 329.113 43.337 330.478 42.7846L331.781 46.3753C330.074 47.296 327.964 47.7564 325.451 47.7564C323 47.7564 321.076 47.0812 319.68 45.7308C318.315 44.3498 317.632 42.4623 317.632 40.0685V16.8668H310.232V13.0919H322.845V40.5288Z" fill="#9FA6B9"/>
<path d="M262.755 9.93573C267.999 9.93573 271.722 11.593 273.925 14.9075C276.159 18.1913 277.276 22.9023 277.276 29.0403C277.276 33.1527 277.059 36.498 276.624 39.0759C276.221 41.6539 275.476 43.6181 274.391 44.9684C273.335 46.3188 271.846 46.994 269.923 46.994C268.247 46.994 266.944 46.3955 266.013 45.1986C265.114 44.0324 264.555 42.5132 264.338 40.6411H264.152C263.593 41.8994 262.755 42.9276 261.638 43.7255C260.521 44.5234 259.187 44.9224 257.636 44.9224C255.03 44.9224 253.121 43.971 251.911 42.0682C250.701 40.1655 250.096 37.6181 250.096 34.4264C250.096 30.5287 250.919 27.4904 252.563 25.3114C254.238 23.1325 256.72 22.043 260.009 22.043C261.281 22.043 262.585 22.2118 263.919 22.5493C265.284 22.8869 266.587 23.3933 267.828 24.0685V37.879C267.828 39.5363 267.968 40.7179 268.247 41.4237C268.558 42.1296 269.038 42.4825 269.69 42.4825C270.28 42.4825 270.714 42.0682 270.993 41.2396C271.272 40.411 271.443 39.1373 271.505 37.4187C271.598 35.6693 271.645 33.0146 271.645 29.4546C271.645 26.048 271.381 23.2706 270.853 21.1223C270.326 18.9433 269.379 17.286 268.014 16.1505C266.68 15.0149 264.803 14.4472 262.383 14.4472C260.646 14.4472 258.954 14.7847 257.31 15.4599C255.666 16.1044 253.975 17.1786 252.237 18.6824L249.305 15.2758C251.415 13.4344 253.54 12.0841 255.681 11.2247C257.853 10.3654 260.211 9.93573 262.755 9.93573ZM259.87 26.6004C259.032 26.6004 258.381 26.8459 257.915 27.337C257.481 27.8281 257.171 28.626 256.984 29.7308C256.798 30.8357 256.705 32.4009 256.705 34.4264C256.705 36.5747 256.86 38.1092 257.171 39.0299C257.512 39.9199 258.117 40.3649 258.986 40.3649C259.885 40.3649 260.521 40.058 260.894 39.4442C261.266 38.8304 261.514 38.0478 261.638 37.0964V27.0147C261.08 26.7385 260.49 26.6004 259.87 26.6004Z" fill="#9FA6B9"/>
<path d="M242.351 52.772C245.486 52.772 248.027 50.2585 248.027 47.1579C248.027 44.0574 245.486 41.5439 242.351 41.5439C239.217 41.5439 236.676 44.0574 236.676 47.1579C236.676 50.2585 239.217 52.772 242.351 52.772Z" fill="#3A4A74"/>
<path d="M255.689 64C259.921 64 263.351 60.6068 263.351 56.421C263.351 52.2353 259.921 48.8421 255.689 48.8421C251.457 48.8421 248.027 52.2353 248.027 56.421C248.027 60.6068 251.457 64 255.689 64Z" fill="#1F3148"/>
<path d="M240.081 38.1754C242.589 38.1754 244.622 36.1647 244.622 33.6842C244.622 31.2038 242.589 29.193 240.081 29.193C237.573 29.193 235.541 31.2038 235.541 33.6842C235.541 36.1647 237.573 38.1754 240.081 38.1754Z" fill="#689BDD"/>
<path d="M244.054 25.8246C246.248 25.8246 248.027 24.0651 248.027 21.8947C248.027 19.7243 246.248 17.9649 244.054 17.9649C241.86 17.9649 240.081 19.7243 240.081 21.8947C240.081 24.0651 241.86 25.8246 244.054 25.8246Z" fill="#9AB1EA"/>
</g>
<defs>
<clipPath id="clip0_834_552">
<rect width="336" height="64" fill="white"/>
</clipPath>
</defs>
</svg>
