<svg width="84" height="16" viewBox="0 0 84 16" fill="none" xmlns="http://www.w3.org/2000/svg">
<g clip-path="url(#clip0_834_498)">
<path d="M4.09586 5.55175C5.58516 5.55175 6.3298 6.61439 6.3298 8.73968C6.3298 9.69874 6.12424 10.4737 5.71314 11.0644C5.30204 11.6476 4.71639 11.9391 3.95624 11.9391C3.31243 11.9391 2.79272 11.7166 2.39713 11.2716V14.1258L1.09399 14.2754V5.71287H2.2226L2.30405 6.49547C2.53675 6.18856 2.80436 5.95455 3.10687 5.79343C3.41715 5.63231 3.7468 5.55175 4.09586 5.55175ZM3.73517 6.5415C3.46369 6.5415 3.21546 6.62206 2.99052 6.78319C2.76558 6.94431 2.56778 7.1553 2.39713 7.41617V10.2588C2.69964 10.7115 3.103 10.9379 3.60718 10.9379C4.05708 10.9379 4.3945 10.7614 4.61944 10.4084C4.84438 10.0555 4.95686 9.50309 4.95686 8.75119C4.95686 7.97627 4.85602 7.41617 4.65434 7.07091C4.45267 6.71796 4.14627 6.5415 3.73517 6.5415ZM12.7711 10.3049C12.7711 10.535 12.806 10.7077 12.8758 10.8228C12.9457 10.9302 13.0659 11.0107 13.2365 11.0644L12.934 11.9391C12.2902 11.8624 11.8675 11.5823 11.6658 11.099C11.4408 11.3752 11.1577 11.5862 10.8164 11.732C10.4829 11.8701 10.1144 11.9391 9.71109 11.9391C9.09054 11.9391 8.59799 11.7665 8.23343 11.4212C7.86885 11.076 7.68657 10.6194 7.68657 10.0517C7.68657 9.41486 7.93866 8.92382 8.44286 8.57855C8.9548 8.23329 9.67618 8.06066 10.607 8.06066H11.4796V7.66936C11.4796 7.28574 11.3633 7.00568 11.1306 6.82922C10.8979 6.65276 10.5605 6.56452 10.1183 6.56452C9.90112 6.56452 9.64902 6.59137 9.36203 6.64508C9.07503 6.69879 8.78415 6.77551 8.4894 6.87526L8.16361 5.96606C8.9005 5.68985 9.61801 5.55175 10.3161 5.55175C11.1306 5.55175 11.7433 5.72821 12.1545 6.08115C12.5656 6.43409 12.7711 6.93663 12.7711 7.5888V10.3049ZM10.095 10.9954C10.3665 10.9954 10.6264 10.9263 10.8746 10.7882C11.1306 10.6501 11.3322 10.4583 11.4796 10.2128V8.86627H10.7582C10.1687 8.86627 9.73823 8.96602 9.46675 9.1655C9.19525 9.35732 9.05952 9.63736 9.05952 10.0056C9.05952 10.3279 9.14484 10.5734 9.31549 10.7422C9.49389 10.911 9.75374 10.9954 10.095 10.9954ZM17.7464 10.1322C17.7464 10.6463 18.0567 10.9033 18.6772 10.9033C18.9875 10.9033 19.3133 10.8343 19.6546 10.6962L19.9804 11.5939C19.5537 11.824 19.0263 11.9391 18.398 11.9391C17.7851 11.9391 17.3043 11.7703 16.9552 11.4327C16.614 11.0875 16.4433 10.6156 16.4433 10.0172V4.21673H14.5933V3.27301H17.7464V10.1322ZM23.1057 9.1655C23.1444 9.75628 23.3151 10.2013 23.6176 10.5005C23.9279 10.7921 24.3157 10.9379 24.7811 10.9379C25.0682 10.9379 25.3396 10.8956 25.5956 10.8113C25.8594 10.7192 26.127 10.5849 26.3984 10.4084L26.9569 11.191C26.6698 11.4289 26.3324 11.613 25.9446 11.7435C25.5569 11.8739 25.1496 11.9391 24.723 11.9391C23.7843 11.9391 23.0553 11.6514 22.5355 11.076C22.0158 10.4928 21.756 9.71792 21.756 8.75119C21.756 8.14505 21.8685 7.60031 22.0934 7.11694C22.3183 6.62589 22.6441 6.24227 23.0708 5.96606C23.4974 5.68985 23.9938 5.55175 24.5601 5.55175C25.3745 5.55175 26.0183 5.82413 26.4915 6.36887C26.9724 6.90595 27.2129 7.64634 27.2129 8.59006C27.2129 8.82024 27.2012 9.01206 27.178 9.1655H23.1057ZM24.5717 6.50698C24.1528 6.50698 23.8116 6.65659 23.5478 6.95582C23.284 7.25505 23.1328 7.70006 23.094 8.29083H25.9446C25.9292 7.7154 25.805 7.27423 25.5723 6.96733C25.3396 6.66042 25.006 6.50698 24.5717 6.50698ZM34.1312 11.4673C33.8985 11.613 33.6271 11.7281 33.3168 11.8125C33.0065 11.8969 32.6807 11.9391 32.3394 11.9391C31.6413 11.9391 31.1023 11.7627 30.7221 11.4097C30.342 11.0491 30.152 10.5619 30.152 9.9481V6.65659H28.7907V5.71287H30.152V4.35483L31.4552 4.20522V5.71287H33.5378L33.3866 6.65659H31.4552V9.93659C31.4552 10.2665 31.5404 10.512 31.7111 10.6732C31.8818 10.8266 32.1533 10.9033 32.5256 10.9033C32.9366 10.9033 33.3168 10.8074 33.6658 10.6156L34.1312 11.4673ZM41.1078 11.4673C40.8751 11.613 40.6036 11.7281 40.2933 11.8125C39.983 11.8969 39.6572 11.9391 39.316 11.9391C38.6179 11.9391 38.0788 11.7627 37.6987 11.4097C37.3186 11.0491 37.1286 10.5619 37.1286 9.9481V6.65659H35.7673V5.71287H37.1286V4.35483L38.4317 4.20522V5.71287H40.5144L40.3631 6.65659H38.4317V9.93659C38.4317 10.2665 38.517 10.512 38.6877 10.6732C38.8584 10.8266 39.1298 10.9033 39.5021 10.9033C39.9132 10.9033 40.2933 10.8074 40.6424 10.6156L41.1078 11.4673ZM44.0353 9.1655C44.074 9.75628 44.2447 10.2013 44.5472 10.5005C44.8576 10.7921 45.2453 10.9379 45.7108 10.9379C45.9978 10.9379 46.2692 10.8956 46.5252 10.8113C46.789 10.7192 47.0566 10.5849 47.328 10.4084L47.8865 11.191C47.5995 11.4289 47.2621 11.613 46.8743 11.7435C46.4865 11.8739 46.0792 11.9391 45.6526 11.9391C44.714 11.9391 43.9849 11.6514 43.4652 11.076C42.9454 10.4928 42.6856 9.71792 42.6856 8.75119C42.6856 8.14505 42.7981 7.60031 43.023 7.11694C43.2479 6.62589 43.5737 6.24227 44.0004 5.96606C44.4271 5.68985 44.9234 5.55175 45.4897 5.55175C46.3041 5.55175 46.9479 5.82413 47.4211 6.36887C47.902 6.90595 48.1425 7.64634 48.1425 8.59006C48.1425 8.82024 48.1309 9.01206 48.1076 9.1655H44.0353ZM45.5013 6.50698C45.0825 6.50698 44.7412 6.65659 44.4774 6.95582C44.2136 7.25505 44.0624 7.70006 44.0237 8.29083H46.8743C46.8588 7.7154 46.7346 7.27423 46.5019 6.96733C46.2692 6.66042 45.9356 6.50698 45.5013 6.50698Z" fill="#3F4555"/>
<path d="M56.127 5.5517C56.5071 5.5517 56.8057 5.68213 57.0229 5.943C57.2402 6.20387 57.3487 6.64886 57.3487 7.27801V11.7895H56.1968V7.45064C56.1968 7.11306 56.1697 6.87904 56.1154 6.74861C56.0688 6.61818 55.9603 6.55296 55.7896 6.55296C55.4638 6.55296 55.1613 6.75629 54.8821 7.16292V11.7895H53.8233V7.45064C53.8233 7.11306 53.7962 6.87904 53.7418 6.74861C53.6953 6.61818 53.5867 6.55296 53.416 6.55296C53.0902 6.55296 52.7877 6.75629 52.5085 7.16292V11.7895H51.345V5.71282H52.3223L52.4154 6.36882C52.6094 6.10029 52.8072 5.89696 53.0088 5.75885C53.2104 5.62075 53.4509 5.5517 53.7302 5.5517C54.2732 5.5517 54.6222 5.80872 54.7773 6.32278C54.9635 6.07727 55.1651 5.88928 55.3824 5.75885C55.5996 5.62075 55.8478 5.5517 56.127 5.5517Z" fill="#9FA6B9"/>
<path d="M73.4904 2.73206C73.7385 2.73206 73.9403 2.81262 74.0954 2.97374C74.2583 3.12719 74.3397 3.319 74.3397 3.54918C74.3397 3.77935 74.2583 3.97117 74.0954 4.12462C73.9403 4.27806 73.7385 4.35479 73.4904 4.35479C73.2344 4.35479 73.0288 4.27806 72.8737 4.12462C72.7186 3.97117 72.641 3.77935 72.641 3.54918C72.641 3.31133 72.7186 3.11568 72.8737 2.96223C73.0366 2.80879 73.2422 2.73206 73.4904 2.73206ZM74.3863 10.8457H76.0617V11.7895H71.2564V10.8457H73.0831V6.65655H71.3146V5.71283H74.3863V10.8457ZM80.7112 10.1322C80.7112 10.6463 81.0216 10.9033 81.642 10.9033C81.9524 10.9033 82.2781 10.8342 82.6194 10.6961L82.9452 11.5938C82.5185 11.824 81.9911 11.9391 81.3628 11.9391C80.75 11.9391 80.2691 11.7703 79.92 11.4327C79.5788 11.0874 79.4081 10.6156 79.4081 10.0171V4.21669H77.5581V3.27297H80.7112V10.1322Z" fill="#9FA6B9"/>
<path d="M65.6888 2.48395C66.9998 2.48395 67.9306 2.89826 68.4813 3.7269C69.0398 4.54785 69.319 5.72559 69.319 7.26009C69.319 8.2882 69.2647 9.12451 69.1561 9.769C69.0552 10.4135 68.8691 10.9045 68.5976 11.2421C68.3339 11.5797 67.9615 11.7485 67.4807 11.7485C67.0618 11.7485 66.736 11.5989 66.5033 11.2997C66.2784 11.0081 66.1388 10.6283 66.0844 10.1603H66.0379C65.8983 10.4749 65.6888 10.7319 65.4096 10.9314C65.1304 11.1309 64.7968 11.2306 64.409 11.2306C63.7574 11.2306 63.2804 10.9928 62.9779 10.5171C62.6753 10.0414 62.5241 9.40455 62.5241 8.60661C62.5241 7.6322 62.7297 6.87262 63.1408 6.32788C63.5596 5.78313 64.1801 5.51075 65.0024 5.51075C65.3204 5.51075 65.6461 5.55296 65.9797 5.63735C66.321 5.72174 66.6468 5.84834 66.9571 6.01714V9.46977C66.9571 9.88409 66.992 10.1795 67.0618 10.3559C67.1394 10.5324 67.2596 10.6206 67.4225 10.6206C67.5699 10.6206 67.6785 10.5171 67.7483 10.3099C67.8181 10.1028 67.8608 9.78434 67.8763 9.35468C67.8995 8.91735 67.9112 8.25367 67.9112 7.36367C67.9112 6.51202 67.8452 5.81766 67.7134 5.28058C67.5815 4.73584 67.3449 4.32152 67.0036 4.03763C66.67 3.75374 66.2008 3.61181 65.5958 3.61181C65.1614 3.61181 64.7386 3.6962 64.3275 3.865C63.9165 4.02612 63.4936 4.29466 63.0593 4.67061L62.3263 3.81897C62.8537 3.35861 63.3851 3.02103 63.9203 2.80619C64.4633 2.59136 65.0527 2.48395 65.6888 2.48395ZM64.9675 6.65012C64.758 6.65012 64.5951 6.7115 64.4788 6.83426C64.3702 6.95703 64.2926 7.15651 64.2461 7.43272C64.1996 7.70893 64.1763 8.10023 64.1763 8.60661C64.1763 9.1437 64.215 9.52732 64.2926 9.75749C64.3779 9.97999 64.5292 10.0912 64.7464 10.0912C64.9713 10.0912 65.1304 10.0145 65.2234 9.86107C65.3165 9.70763 65.3785 9.51198 65.4096 9.27412V6.7537C65.27 6.68465 65.1226 6.65012 64.9675 6.65012Z" fill="#9FA6B9"/>
<path d="M60.5879 13.193C61.3715 13.193 62.0068 12.5646 62.0068 11.7895C62.0068 11.0144 61.3715 10.386 60.5879 10.386C59.8042 10.386 59.1689 11.0144 59.1689 11.7895C59.1689 12.5646 59.8042 13.193 60.5879 13.193Z" fill="#3A4A74"/>
<path d="M63.9223 16C64.9802 16 65.8379 15.1517 65.8379 14.1052C65.8379 13.0588 64.9802 12.2105 63.9223 12.2105C62.8644 12.2105 62.0068 13.0588 62.0068 14.1052C62.0068 15.1517 62.8644 16 63.9223 16Z" fill="#1F3148"/>
<path d="M60.0203 9.54383C60.6472 9.54383 61.1554 9.04113 61.1554 8.42102C61.1554 7.80092 60.6472 7.29822 60.0203 7.29822C59.3933 7.29822 58.8851 7.80092 58.8851 8.42102C58.8851 9.04113 59.3933 9.54383 60.0203 9.54383Z" fill="#689BDD"/>
<path d="M61.0135 6.45612C61.5621 6.45612 62.0067 6.01626 62.0067 5.47367C62.0067 4.93107 61.5621 4.49121 61.0135 4.49121C60.465 4.49121 60.0203 4.93107 60.0203 5.47367C60.0203 6.01626 60.465 6.45612 61.0135 6.45612Z" fill="#9AB1EA"/>
</g>
<defs>
<clipPath id="clip0_834_498">
<rect width="84" height="16" fill="white"/>
</clipPath>
</defs>
</svg>
