<svg width="85" height="16" viewBox="0 0 85 16" fill="none" xmlns="http://www.w3.org/2000/svg">
<path d="M4.14453 5.55175C5.65156 5.55175 6.40507 6.61439 6.40507 8.73968C6.40507 9.69874 6.19707 10.4737 5.78107 11.0644C5.36507 11.6476 4.77246 11.9391 4.00325 11.9391C3.35178 11.9391 2.82588 11.7166 2.42558 11.2716V14.1258L1.10693 14.2754V5.71287H2.24898L2.33139 6.49547C2.56686 6.18856 2.83766 5.95455 3.14377 5.79343C3.45774 5.63231 3.79132 5.55175 4.14453 5.55175ZM3.77955 6.5415C3.50484 6.5415 3.25366 6.62206 3.02604 6.78319C2.79842 6.94431 2.59827 7.1553 2.42558 7.41617V10.2588C2.7317 10.7115 3.13985 10.9379 3.65004 10.9379C4.10529 10.9379 4.44673 10.7614 4.67435 10.4084C4.90197 10.0555 5.01578 9.50309 5.01578 8.75119C5.01578 7.97627 4.91374 7.41617 4.70967 7.0709C4.5056 6.71796 4.19555 6.5415 3.77955 6.5415ZM12.9231 10.3049C12.9231 10.535 12.9584 10.7077 13.029 10.8228C13.0997 10.9302 13.2213 11.0107 13.394 11.0644L13.0879 11.9391C12.4364 11.8624 12.0087 11.5823 11.8046 11.099C11.577 11.3752 11.2905 11.5862 10.9451 11.732C10.6076 11.8701 10.2348 11.9391 9.82661 11.9391C9.19867 11.9391 8.70026 11.7665 8.33136 11.4212C7.96244 11.076 7.778 10.6194 7.778 10.0517C7.778 9.41486 8.03308 8.92382 8.54328 8.57855C9.06132 8.23329 9.79129 8.06066 10.7332 8.06066H11.6162V7.66936C11.6162 7.28574 11.4985 7.00568 11.263 6.82922C11.0275 6.65276 10.6861 6.56452 10.2387 6.56452C10.0189 6.56452 9.76381 6.59137 9.4734 6.64508C9.18298 6.69879 8.88864 6.77551 8.59038 6.87526L8.26072 5.96606C9.00638 5.68985 9.73242 5.55175 10.4388 5.55175C11.263 5.55175 11.8831 5.72821 12.2991 6.08115C12.7151 6.43409 12.9231 6.93663 12.9231 7.5888V10.3049ZM10.2151 10.9954C10.4899 10.9954 10.7528 10.9263 11.004 10.7882C11.263 10.6501 11.4671 10.4583 11.6162 10.2128V8.86627H10.8862C10.2897 8.86627 9.85408 8.96602 9.57936 9.1655C9.30464 9.35732 9.16729 9.63736 9.16729 10.0056C9.16729 10.3279 9.25362 10.5734 9.42631 10.7422C9.60683 10.911 9.86977 10.9954 10.2151 10.9954ZM17.9576 10.1322C17.9576 10.6463 18.2716 10.9033 18.8995 10.9033C19.2135 10.9033 19.5432 10.8343 19.8885 10.6962L20.2181 11.5939C19.7864 11.824 19.2527 11.9391 18.6169 11.9391C17.9968 11.9391 17.5102 11.7703 17.157 11.4327C16.8117 11.0875 16.6389 10.6156 16.6389 10.0172V4.21673H14.7669V3.27301H17.9576V10.1322ZM23.3806 9.1655C23.4198 9.75628 23.5926 10.2013 23.8987 10.5005C24.2127 10.7921 24.6051 10.9379 25.0761 10.9379C25.3665 10.9379 25.6412 10.8956 25.9002 10.8113C26.1671 10.7192 26.4379 10.5849 26.7126 10.4084L27.2777 11.191C26.9873 11.4289 26.6458 11.613 26.2534 11.7435C25.861 11.8739 25.4489 11.9391 25.0172 11.9391C24.0674 11.9391 23.3297 11.6514 22.8037 11.076C22.2778 10.4928 22.0149 9.71792 22.0149 8.75119C22.0149 8.14505 22.1288 7.60031 22.3563 7.11694C22.5839 6.62589 22.9136 6.24227 23.3453 5.96606C23.7771 5.68985 24.2793 5.55175 24.8524 5.55175C25.6765 5.55175 26.3279 5.82413 26.8068 6.36887C27.2934 6.90595 27.5367 7.64634 27.5367 8.59006C27.5367 8.82024 27.525 9.01206 27.5014 9.1655H23.3806ZM24.8641 6.50697C24.4403 6.50697 24.095 6.65659 23.828 6.95582C23.5611 7.25505 23.4081 7.70006 23.3689 8.29083H26.2534C26.2378 7.7154 26.1121 7.27423 25.8767 6.96733C25.6412 6.66042 25.3036 6.50697 24.8641 6.50697ZM34.5375 11.4673C34.302 11.613 34.0273 11.7281 33.7133 11.8125C33.3993 11.8969 33.0696 11.9391 32.7243 11.9391C32.0179 11.9391 31.4725 11.7627 31.0878 11.4097C30.7031 11.0491 30.5109 10.5619 30.5109 9.9481V6.65659H29.1334V5.71287H30.5109V4.35483L31.8295 4.20522V5.71287H33.937L33.784 6.65659H31.8295V9.93659C31.8295 10.2665 31.9158 10.512 32.0886 10.6731C32.2613 10.8266 32.536 10.9033 32.9127 10.9033C33.3287 10.9033 33.7133 10.8074 34.0665 10.6156L34.5375 11.4673ZM41.5971 11.4673C41.3616 11.613 41.0869 11.7281 40.7729 11.8125C40.4589 11.8969 40.1292 11.9391 39.7839 11.9391C39.0775 11.9391 38.532 11.7627 38.1474 11.4097C37.7627 11.0491 37.5705 10.5619 37.5705 9.9481V6.65659H36.193V5.71287H37.5705V4.35483L38.8891 4.20522V5.71287H40.9966L40.8436 6.65659H38.8891V9.93659C38.8891 10.2665 38.9754 10.512 39.1482 10.6731C39.3209 10.8266 39.5955 10.9033 39.9723 10.9033C40.3883 10.9033 40.7729 10.8074 41.1261 10.6156L41.5971 11.4673ZM44.5594 9.1655C44.5986 9.75628 44.7714 10.2013 45.0775 10.5005C45.3915 10.7921 45.7839 10.9379 46.2548 10.9379C46.5453 10.9379 46.82 10.8956 47.079 10.8113C47.3459 10.7192 47.6167 10.5849 47.8914 10.4084L48.4565 11.191C48.166 11.4289 47.8246 11.613 47.4322 11.7435C47.0398 11.8739 46.6277 11.9391 46.196 11.9391C45.2462 11.9391 44.5085 11.6514 43.9825 11.076C43.4566 10.4928 43.1937 9.71792 43.1937 8.75119C43.1937 8.14505 43.3075 7.60031 43.5351 7.11694C43.7627 6.62589 44.0924 6.24227 44.5241 5.96606C44.9559 5.68985 45.4581 5.55175 46.0311 5.55175C46.8553 5.55175 47.5067 5.82413 47.9856 6.36887C48.4722 6.90595 48.7155 7.64634 48.7155 8.59006C48.7155 8.82024 48.7038 9.01206 48.6802 9.1655H44.5594ZM46.0429 6.50697C45.6191 6.50697 45.2737 6.65659 45.0068 6.95582C44.7399 7.25505 44.5869 7.70006 44.5477 8.29083H47.4322C47.4165 7.7154 47.2909 7.27423 47.0554 6.96733C46.82 6.66042 46.4824 6.50697 46.0429 6.50697Z" fill="#3F4555"/>
<path d="M56.7953 5.5517C57.1799 5.5517 57.482 5.68213 57.7018 5.943C57.9217 6.20387 58.0315 6.64886 58.0315 7.27801V11.7895H56.8659V7.45064C56.8659 7.11306 56.8385 6.87904 56.7835 6.74861C56.7364 6.61818 56.6266 6.55296 56.4538 6.55296C56.1242 6.55296 55.8181 6.75629 55.5355 7.16292V11.7895H54.4641V7.45064C54.4641 7.11306 54.4367 6.87904 54.3817 6.74861C54.3346 6.61818 54.2247 6.55296 54.052 6.55296C53.7223 6.55296 53.4162 6.75629 53.1337 7.16292V11.7895H51.9563V5.71282H52.9453L53.0395 6.36882C53.2358 6.10029 53.4359 5.89696 53.6399 5.75885C53.844 5.62075 54.0873 5.5517 54.3699 5.5517C54.9194 5.5517 55.2726 5.80872 55.4295 6.32278C55.6179 6.07727 55.8219 5.88928 56.0418 5.75885C56.2616 5.62075 56.5127 5.5517 56.7953 5.5517Z" fill="#3F4555"/>
<path d="M74.3653 2.73206C74.6164 2.73206 74.8206 2.81262 74.9775 2.97374C75.1423 3.12719 75.2248 3.319 75.2248 3.54918C75.2248 3.77935 75.1423 3.97117 74.9775 4.12462C74.8206 4.27806 74.6164 4.35479 74.3653 4.35479C74.1063 4.35479 73.8982 4.27806 73.7413 4.12462C73.5843 3.97117 73.5058 3.77935 73.5058 3.54918C73.5058 3.31133 73.5843 3.11568 73.7413 2.96223C73.9061 2.80879 74.1142 2.73206 74.3653 2.73206ZM75.2718 10.8457H76.9673V11.7895H72.1047V10.8457H73.9532V6.65655H72.1636V5.71283H75.2718V10.8457ZM81.6721 10.1322C81.6721 10.6463 81.9861 10.9033 82.614 10.9033C82.928 10.9033 83.2577 10.8342 83.603 10.6961L83.9327 11.5938C83.5009 11.824 82.9672 11.9391 82.3314 11.9391C81.7113 11.9391 81.2247 11.7703 80.8715 11.4327C80.5262 11.0874 80.3535 10.6156 80.3535 10.0171V4.21669H78.4815V3.27297H81.6721V10.1322Z" fill="#3F4555"/>
<path d="M66.4709 2.48395C67.7975 2.48395 68.7394 2.89826 69.2966 3.7269C69.8618 4.54785 70.1443 5.72559 70.1443 7.26009C70.1443 8.2882 70.0893 9.12451 69.9795 9.769C69.8774 10.4135 69.689 10.9045 69.4144 11.2421C69.1474 11.5797 68.7707 11.7485 68.2841 11.7485C67.8602 11.7485 67.5306 11.5989 67.2951 11.2997C67.0675 11.0081 66.9262 10.6283 66.8712 10.1603H66.8242C66.6829 10.4749 66.4709 10.7319 66.1884 10.9314C65.9058 11.1309 65.5682 11.2306 65.1758 11.2306C64.5165 11.2306 64.0338 10.9928 63.7277 10.5171C63.4216 10.0414 63.2685 9.40455 63.2685 8.60661C63.2685 7.6322 63.4766 6.87262 63.8925 6.32788C64.3164 5.78313 64.9442 5.51075 65.7763 5.51075C66.0981 5.51075 66.4277 5.55296 66.7653 5.63735C67.1106 5.72174 67.4403 5.84834 67.7543 6.01714V9.46977C67.7543 9.88409 67.7896 10.1795 67.8602 10.3559C67.9388 10.5324 68.0604 10.6206 68.2252 10.6206C68.3744 10.6206 68.4842 10.5171 68.5549 10.3099C68.6255 10.1028 68.6687 9.78434 68.6844 9.35468C68.7079 8.91735 68.7197 8.25367 68.7197 7.36367C68.7197 6.51202 68.6529 5.81766 68.5196 5.28058C68.3862 4.73584 68.1467 4.32152 67.8014 4.03763C67.4638 3.75374 66.989 3.61181 66.3768 3.61181C65.9373 3.61181 65.5094 3.6962 65.0934 3.865C64.6775 4.02612 64.2496 4.29466 63.8101 4.67061L63.0684 3.81897C63.6021 3.35861 64.1398 3.02103 64.6813 2.80619C65.2308 2.59136 65.8273 2.48395 66.4709 2.48395ZM65.741 6.65012C65.529 6.65012 65.3642 6.7115 65.2465 6.83426C65.1366 6.95703 65.0581 7.15651 65.011 7.43272C64.9639 7.70893 64.9404 8.10023 64.9404 8.60661C64.9404 9.1437 64.9796 9.52732 65.0581 9.75749C65.1444 9.97999 65.2975 10.0912 65.5173 10.0912C65.7449 10.0912 65.9058 10.0145 66 9.86107C66.0942 9.70763 66.1569 9.51198 66.1884 9.27412V6.7537C66.0471 6.68465 65.8979 6.65012 65.741 6.65012Z" fill="#3F4555"/>
<path d="M61.3091 13.193C62.1021 13.193 62.7449 12.5646 62.7449 11.7895C62.7449 11.0144 62.1021 10.386 61.3091 10.386C60.5161 10.386 59.8733 11.0144 59.8733 11.7895C59.8733 12.5646 60.5161 13.193 61.3091 13.193Z" fill="#3A4A74"/>
<path d="M64.6832 16C65.7537 16 66.6216 15.1517 66.6216 14.1052C66.6216 13.0588 65.7537 12.2105 64.6832 12.2105C63.6127 12.2105 62.7449 13.0588 62.7449 14.1052C62.7449 15.1517 63.6127 16 64.6832 16Z" fill="#1F3148"/>
<path d="M60.7348 9.54383C61.3692 9.54383 61.8835 9.04113 61.8835 8.42102C61.8835 7.80092 61.3692 7.29822 60.7348 7.29822C60.1004 7.29822 59.5862 7.80092 59.5862 8.42102C59.5862 9.04113 60.1004 9.54383 60.7348 9.54383Z" fill="#689BDD"/>
<path d="M61.7399 6.45612C62.295 6.45612 62.745 6.01626 62.745 5.47367C62.745 4.93107 62.295 4.49121 61.7399 4.49121C61.1848 4.49121 60.7349 4.93107 60.7349 5.47367C60.7349 6.01626 61.1848 6.45612 61.7399 6.45612Z" fill="#9AB1EA"/>
</svg>
