<svg width="339" height="64" viewBox="0 0 339 64" fill="none" xmlns="http://www.w3.org/2000/svg">
<g clip-path="url(#clip0_834_579)">
<path d="M16.5297 22.2069C22.5401 22.2069 25.5453 26.4574 25.5453 34.9586C25.5453 38.7948 24.7157 41.8946 23.0566 44.2577C21.3975 46.5901 19.034 47.7563 15.9662 47.7563C13.368 47.7563 11.2706 46.8663 9.67411 45.0863V56.503L4.41504 57.1015V22.8514H8.96977L9.29847 25.9817C10.2376 24.7541 11.3176 23.8181 12.5384 23.1736C13.7906 22.5291 15.121 22.2069 16.5297 22.2069ZM15.0741 26.1659C13.9784 26.1659 12.9767 26.4881 12.0689 27.1326C11.1611 27.7771 10.3628 28.6211 9.67411 29.6645V41.0352C10.895 42.8459 12.5228 43.7513 14.5575 43.7513C16.3732 43.7513 17.7349 43.0454 18.6427 41.6337C19.5505 40.2219 20.0045 38.0122 20.0045 35.0046C20.0045 31.9049 19.5975 29.6645 18.7836 28.2835C17.9697 26.8717 16.7332 26.1659 15.0741 26.1659ZM51.5406 41.2194C51.5406 42.1401 51.6815 42.8306 51.9632 43.2909C52.245 43.7206 52.7301 44.0428 53.4189 44.2577L52.198 47.7563C49.5997 47.4494 47.8937 46.3293 47.0798 44.3958C46.1719 45.5006 45.0294 46.3446 43.652 46.9277C42.3059 47.4801 40.8189 47.7563 39.1912 47.7563C36.6868 47.7563 34.699 47.0658 33.2277 45.6848C31.7564 44.3037 31.0208 42.4776 31.0208 40.2066C31.0208 37.6593 32.0382 35.6951 34.073 34.3141C36.139 32.933 39.0503 32.2425 42.8068 32.2425H46.3285V30.6773C46.3285 29.1428 45.8589 28.0226 44.9198 27.3168C43.9807 26.6109 42.619 26.258 40.8346 26.258C39.9581 26.258 38.9407 26.3653 37.7825 26.5802C36.6242 26.795 35.4503 27.1019 34.2608 27.5009L32.946 23.8641C35.9199 22.7593 38.8155 22.2069 41.6329 22.2069C44.9198 22.2069 47.3928 22.9127 49.0519 24.3245C50.711 25.7362 51.5406 27.7464 51.5406 30.3551V41.2194ZM40.7407 43.9815C41.8363 43.9815 42.885 43.7052 43.8868 43.1528C44.9198 42.6004 45.7337 41.8331 46.3285 40.8511V35.465H43.4172C41.0381 35.465 39.3007 35.864 38.2051 36.6619C37.1094 37.4292 36.5616 38.5493 36.5616 40.0224C36.5616 41.3114 36.9059 42.2935 37.5947 42.9687C38.3146 43.6439 39.3633 43.9815 40.7407 43.9815ZM71.6194 40.5288C71.6194 42.5851 72.8718 43.6132 75.3759 43.6132C76.6283 43.6132 77.943 43.337 79.3202 42.7845L80.635 46.3753C78.9131 47.296 76.7846 47.7563 74.249 47.7563C71.7758 47.7563 69.8351 47.0811 68.4264 45.7308C67.0492 44.3497 66.3604 42.4623 66.3604 40.0685V16.8668H58.8943V13.0919H71.6194V40.5288ZM93.2479 36.6619C93.4042 39.025 94.0931 40.805 95.3139 42.002C96.5663 43.1682 98.1313 43.7513 100.01 43.7513C101.168 43.7513 102.263 43.5825 103.296 43.2449C104.361 42.8766 105.441 42.3395 106.536 41.6337L108.79 44.7641C107.632 45.7155 106.27 46.452 104.705 46.9737C103.14 47.4954 101.497 47.7563 99.7748 47.7563C95.9868 47.7563 93.0446 46.6055 90.947 44.3037C88.8494 41.9712 87.801 38.8716 87.801 35.0046C87.801 32.5801 88.2551 30.4011 89.1627 28.4676C90.0703 26.5035 91.3851 24.969 93.107 23.8641C94.8289 22.7593 96.832 22.2069 99.1174 22.2069C102.404 22.2069 105.002 23.2964 106.912 25.4754C108.853 27.6237 109.823 30.5853 109.823 34.3601C109.823 35.2808 109.776 36.0481 109.682 36.6619H93.2479ZM99.1643 26.0278C97.4739 26.0278 96.0967 26.6262 95.0322 27.8231C93.9677 29.0201 93.3572 30.8001 93.2009 33.1632H104.705C104.643 30.8615 104.142 29.0968 103.203 27.8692C102.263 26.6416 100.917 26.0278 99.1643 26.0278ZM137.744 45.8689C136.805 46.452 135.709 46.9124 134.457 47.25C133.205 47.5875 131.89 47.7563 130.513 47.7563C127.695 47.7563 125.52 47.0505 123.986 45.6387C122.452 44.1963 121.685 42.2475 121.685 39.7923V26.6262H116.191V22.8514H121.685V17.4192L126.944 16.8208V22.8514H135.349L134.739 26.6262H126.944V39.7462C126.944 41.0659 127.288 42.048 127.977 42.6925C128.666 43.3063 129.761 43.6132 131.264 43.6132C132.923 43.6132 134.457 43.2296 135.866 42.4623L137.744 45.8689ZM165.899 45.8689C164.96 46.452 163.865 46.9124 162.612 47.25C161.36 47.5875 160.045 47.7563 158.668 47.7563C155.851 47.7563 153.675 47.0505 152.141 45.6387C150.607 44.1963 149.84 42.2475 149.84 39.7923V26.6262H144.346V22.8514H149.84V17.4192L155.099 16.8208V22.8514H163.504L162.894 26.6262H155.099V39.7462C155.099 41.0659 155.443 42.048 156.132 42.6925C156.821 43.3063 157.917 43.6132 159.419 43.6132C161.078 43.6132 162.612 43.2296 164.021 42.4623L165.899 45.8689ZM177.714 36.6619C177.87 39.025 178.559 40.805 179.78 42.002C181.032 43.1682 182.597 43.7513 184.476 43.7513C185.634 43.7513 186.729 43.5825 187.762 43.2449C188.827 42.8766 189.907 42.3395 191.002 41.6337L193.256 44.7641C192.098 45.7155 190.736 46.452 189.171 46.9737C187.606 47.4954 185.963 47.7563 184.241 47.7563C180.453 47.7563 177.511 46.6055 175.413 44.3037C173.315 41.9712 172.267 38.8716 172.267 35.0046C172.267 32.5801 172.721 30.4011 173.629 28.4676C174.536 26.5035 175.851 24.969 177.573 23.8641C179.295 22.7593 181.298 22.2069 183.583 22.2069C186.87 22.2069 189.468 23.2964 191.378 25.4754C193.319 27.6237 194.289 30.5853 194.289 34.3601C194.289 35.2808 194.242 36.0481 194.148 36.6619H177.714ZM183.63 26.0278C181.94 26.0278 180.563 26.6262 179.498 27.8231C178.434 29.0201 177.823 30.8001 177.667 33.1632H189.171C189.109 30.8615 188.608 29.0968 187.669 27.8692C186.729 26.6416 185.383 26.0278 183.63 26.0278Z" fill="#9FA6B9"/>
<path d="M226.513 22.2068C228.047 22.2068 229.252 22.7286 230.128 23.772C231.005 24.8155 231.443 26.5955 231.443 29.1121V47.1579H226.794V29.8026C226.794 28.4523 226.685 27.5162 226.466 26.9945C226.278 26.4728 225.84 26.2119 225.151 26.2119C223.836 26.2119 222.615 27.0252 221.488 28.6518V47.1579H217.215V29.8026C217.215 28.4523 217.106 27.5162 216.887 26.9945C216.699 26.4728 216.261 26.2119 215.572 26.2119C214.257 26.2119 213.036 27.0252 211.909 28.6518V47.1579H207.214V22.8513H211.158L211.534 25.4753C212.317 24.4012 213.115 23.5879 213.928 23.0355C214.742 22.4831 215.713 22.2068 216.84 22.2068C219.031 22.2068 220.44 23.2349 221.066 25.2912C221.817 24.3091 222.631 23.5572 223.508 23.0355C224.384 22.4831 225.386 22.2068 226.513 22.2068Z" fill="#3F4555"/>
<path d="M296.586 10.9283C297.588 10.9283 298.402 11.2505 299.028 11.895C299.685 12.5088 300.014 13.2761 300.014 14.1968C300.014 15.1175 299.685 15.8847 299.028 16.4985C298.402 17.1123 297.588 17.4192 296.586 17.4192C295.553 17.4192 294.723 17.1123 294.097 16.4985C293.472 15.8847 293.158 15.1175 293.158 14.1968C293.158 13.2454 293.472 12.4628 294.097 11.849C294.755 11.2352 295.585 10.9283 296.586 10.9283ZM300.202 43.383H306.963V47.1579H287.571V43.383H294.943V26.6262H287.805V22.8514H300.202V43.383ZM325.728 40.5288C325.728 42.5851 326.98 43.6132 329.484 43.6132C330.736 43.6132 332.051 43.337 333.428 42.7846L334.743 46.3753C333.021 47.296 330.893 47.7564 328.357 47.7564C325.884 47.7564 323.943 47.0812 322.535 45.7308C321.157 44.3498 320.468 42.4623 320.468 40.0685V16.8668H313.002V13.0919H325.728V40.5288Z" fill="#3F4555"/>
<path d="M265.101 9.93573C270.392 9.93573 274.148 11.593 276.371 14.9075C278.625 18.1913 279.752 22.9023 279.752 29.0403C279.752 33.1527 279.532 36.498 279.094 39.0759C278.687 41.6539 277.936 43.6181 276.84 44.9684C275.776 46.3188 274.273 46.994 272.333 46.994C270.642 46.994 269.327 46.3955 268.388 45.1986C267.481 44.0324 266.917 42.5132 266.698 40.6411H266.51C265.947 41.8994 265.101 42.9276 263.974 43.7255C262.848 44.5234 261.501 44.9224 259.936 44.9224C257.307 44.9224 255.382 43.971 254.161 42.0682C252.94 40.1655 252.329 37.6181 252.329 34.4264C252.329 30.5287 253.159 27.4904 254.818 25.3114C256.508 23.1325 259.013 22.043 262.331 22.043C263.614 22.043 264.929 22.2118 266.275 22.5493C267.653 22.8869 268.967 23.3933 270.22 24.0685V37.879C270.22 39.5363 270.361 40.7179 270.642 41.4237C270.955 42.1296 271.44 42.4825 272.098 42.4825C272.693 42.4825 273.131 42.0682 273.413 41.2396C273.694 40.411 273.867 39.1373 273.929 37.4187C274.023 35.6693 274.07 33.0146 274.07 29.4546C274.07 26.048 273.804 23.2706 273.272 21.1223C272.74 18.9433 271.785 17.286 270.407 16.1505C269.061 15.0149 267.167 14.4472 264.726 14.4472C262.973 14.4472 261.266 14.7847 259.608 15.4599C257.949 16.1044 256.242 17.1786 254.489 18.6824L251.531 15.2758C253.66 13.4344 255.804 12.0841 257.964 11.2247C260.156 10.3654 262.534 9.93573 265.101 9.93573ZM262.19 26.6004C261.345 26.6004 260.688 26.8459 260.218 27.337C259.78 27.8281 259.467 28.626 259.279 29.7308C259.091 30.8357 258.997 32.4009 258.997 34.4264C258.997 36.5747 259.153 38.1092 259.467 39.0299C259.811 39.9199 260.421 40.3649 261.298 40.3649C262.206 40.3649 262.848 40.058 263.223 39.4442C263.599 38.8304 263.849 38.0478 263.974 37.0964V27.0147C263.411 26.7385 262.816 26.6004 262.19 26.6004Z" fill="#3F4555"/>
<path d="M244.515 52.772C247.678 52.772 250.242 50.2585 250.242 47.1579C250.242 44.0574 247.678 41.5439 244.515 41.5439C241.353 41.5439 238.789 44.0574 238.789 47.1579C238.789 50.2585 241.353 52.772 244.515 52.772Z" fill="#3A4A74"/>
<path d="M257.972 64C262.242 64 265.703 60.6068 265.703 56.421C265.703 52.2353 262.242 48.8421 257.972 48.8421C253.703 48.8421 250.242 52.2353 250.242 56.421C250.242 60.6068 253.703 64 257.972 64Z" fill="#1F3148"/>
<path d="M242.225 38.1754C244.755 38.1754 246.806 36.1647 246.806 33.6842C246.806 31.2038 244.755 29.193 242.225 29.193C239.695 29.193 237.644 31.2038 237.644 33.6842C237.644 36.1647 239.695 38.1754 242.225 38.1754Z" fill="#689BDD"/>
<path d="M246.233 25.8246C248.447 25.8246 250.242 24.0651 250.242 21.8947C250.242 19.7243 248.447 17.9649 246.233 17.9649C244.019 17.9649 242.225 19.7243 242.225 21.8947C242.225 24.0651 244.019 25.8246 246.233 25.8246Z" fill="#9AB1EA"/>
</g>
<defs>
<clipPath id="clip0_834_579">
<rect width="339" height="64" fill="white"/>
</clipPath>
</defs>
</svg>
