<svg width="340" height="64" viewBox="0 0 340 64" fill="none" xmlns="http://www.w3.org/2000/svg">
<path d="M16.5786 22.2069C22.6067 22.2069 25.6208 26.4574 25.6208 34.9586C25.6208 38.7948 24.7888 41.8946 23.1248 44.2577C21.4608 46.5901 19.0903 47.7563 16.0135 47.7563C13.4076 47.7563 11.304 46.8663 9.70281 45.0863V56.503L4.42822 57.1015V22.8514H8.99639L9.32606 25.9817C10.2679 24.7541 11.3511 23.8181 12.5756 23.1736C13.8315 22.5291 15.1658 22.2069 16.5786 22.2069ZM15.1187 26.1659C14.0198 26.1659 13.0151 26.4881 12.1046 27.1326C11.1942 27.7771 10.3936 28.6211 9.70281 29.6645V41.0352C10.9273 42.8459 12.5599 43.7513 14.6006 43.7513C16.4217 43.7513 17.7874 43.0454 18.6979 41.6337C19.6084 40.2219 20.0636 38.0122 20.0636 35.0046C20.0636 31.9049 19.6555 29.6645 18.8392 28.2835C18.0229 26.8717 16.7827 26.1659 15.1187 26.1659ZM51.6928 41.2194C51.6928 42.1401 51.8341 42.8306 52.1167 43.2909C52.3992 43.7206 52.8859 44.0428 53.5766 44.2577L52.3521 47.7563C49.7462 47.4494 48.0351 46.3293 47.2188 44.3958C46.3083 45.5006 45.1623 46.3446 43.7809 46.9277C42.4309 47.4801 40.9395 47.7563 39.3069 47.7563C36.7952 47.7563 34.8015 47.0658 33.3259 45.6848C31.8503 44.3037 31.1125 42.4776 31.1125 40.2066C31.1125 37.6593 32.1328 35.6951 34.1736 34.3141C36.2458 32.933 39.1656 32.2425 42.9332 32.2425H46.4653V30.6773C46.4653 29.1428 45.9944 28.0226 45.0525 27.3168C44.1106 26.6109 42.7448 26.258 40.9552 26.258C40.0761 26.258 39.0557 26.3653 37.8941 26.5802C36.7324 26.795 35.555 27.1019 34.362 27.5009L33.0434 23.8641C36.026 22.7593 38.9302 22.2069 41.7559 22.2069C45.0525 22.2069 47.5327 22.9127 49.1968 24.3245C50.8608 25.7362 51.6928 27.7464 51.6928 30.3551V41.2194ZM40.8611 43.9815C41.9599 43.9815 43.0117 43.7052 44.0164 43.1528C45.0525 42.6004 45.8688 41.8331 46.4653 40.8511V35.465H43.5454C41.1593 35.465 39.4168 35.864 38.3179 36.6619C37.219 37.4292 36.6696 38.5493 36.6696 40.0224C36.6696 41.3114 37.015 42.2935 37.7057 42.9687C38.4278 43.6439 39.4796 43.9815 40.8611 43.9815ZM71.8309 40.5288C71.8309 42.5851 73.0869 43.6132 75.5984 43.6132C76.8545 43.6132 78.1731 43.337 79.5544 42.7845L80.873 46.3753C79.146 47.296 77.0113 47.7563 74.4682 47.7563C71.9876 47.7563 70.0413 47.0811 68.6284 45.7308C67.2472 44.3497 66.5563 42.4623 66.5563 40.0685V16.8668H59.0682V13.0919H71.8309V40.5288ZM93.5231 36.6619C93.6799 39.025 94.3708 40.805 95.5952 42.002C96.8513 43.1682 98.4209 43.7513 100.305 43.7513C101.467 43.7513 102.565 43.5825 103.601 43.2449C104.669 42.8766 105.752 42.3395 106.851 41.6337L109.111 44.7641C107.95 45.7155 106.584 46.452 105.014 46.9737C103.445 47.4954 101.796 47.7563 100.069 47.7563C96.2701 47.7563 93.3192 46.6055 91.2155 44.3037C89.1117 41.9712 88.0601 38.8716 88.0601 35.0046C88.0601 32.5801 88.5155 30.4011 89.4259 28.4676C90.3362 26.5035 91.6548 24.969 93.3818 23.8641C95.1088 22.7593 97.1178 22.2069 99.4099 22.2069C102.707 22.2069 105.312 23.2964 107.228 25.4754C109.174 27.6237 110.147 30.5853 110.147 34.3601C110.147 35.2808 110.1 36.0481 110.006 36.6619H93.5231ZM99.457 26.0278C97.7616 26.0278 96.3803 26.6262 95.3127 27.8231C94.245 29.0201 93.6328 30.8001 93.476 33.1632H105.014C104.952 30.8615 104.449 29.0968 103.507 27.8692C102.565 26.6416 101.215 26.0278 99.457 26.0278ZM138.15 45.8689C137.208 46.452 136.11 46.9124 134.854 47.25C133.598 47.5875 132.279 47.7563 130.898 47.7563C128.072 47.7563 125.89 47.0505 124.352 45.6387C122.813 44.1963 122.044 42.2475 122.044 39.7923V26.6262H116.534V22.8514H122.044V17.4192L127.319 16.8208V22.8514H135.749L135.136 26.6262H127.319V39.7462C127.319 41.0659 127.664 42.048 128.355 42.6925C129.046 43.3063 130.144 43.6132 131.651 43.6132C133.315 43.6132 134.854 43.2296 136.267 42.4623L138.15 45.8689ZM166.389 45.8689C165.447 46.452 164.348 46.9124 163.092 47.25C161.836 47.5875 160.517 47.7563 159.136 47.7563C156.311 47.7563 154.129 47.0505 152.59 45.6387C151.051 44.1963 150.282 42.2475 150.282 39.7923V26.6262H144.772V22.8514H150.282V17.4192L155.557 16.8208V22.8514H163.987L163.375 26.6262H155.557V39.7462C155.557 41.0659 155.902 42.048 156.593 42.6925C157.284 43.3063 158.383 43.6132 159.89 43.6132C161.554 43.6132 163.092 43.2296 164.505 42.4623L166.389 45.8689ZM178.238 36.6619C178.395 39.025 179.086 40.805 180.31 42.002C181.566 43.1682 183.136 43.7513 185.02 43.7513C186.182 43.7513 187.28 43.5825 188.316 43.2449C189.384 42.8766 190.467 42.3395 191.566 41.6337L193.827 44.7641C192.665 45.7155 191.299 46.452 189.729 46.9737C188.16 47.4954 186.511 47.7563 184.784 47.7563C180.985 47.7563 178.034 46.6055 175.931 44.3037C173.827 41.9712 172.775 38.8716 172.775 35.0046C172.775 32.5801 173.231 30.4011 174.141 28.4676C175.051 26.5035 176.37 24.969 178.097 23.8641C179.824 22.7593 181.833 22.2069 184.125 22.2069C187.422 22.2069 190.027 23.2964 191.943 25.4754C193.889 27.6237 194.863 30.5853 194.863 34.3601C194.863 35.2808 194.816 36.0481 194.721 36.6619H178.238ZM184.172 26.0278C182.477 26.0278 181.095 26.6262 180.028 27.8231C178.96 29.0201 178.348 30.8001 178.191 33.1632H189.729C189.667 30.8615 189.164 29.0968 188.222 27.8692C187.28 26.6416 185.93 26.0278 184.172 26.0278Z" fill="#3F4555"/>
<path d="M227.181 22.2068C228.719 22.2068 229.928 22.7286 230.807 23.772C231.686 24.8155 232.126 26.5955 232.126 29.1121V47.1579H227.463V29.8026C227.463 28.4523 227.354 27.5162 227.134 26.9945C226.945 26.4728 226.506 26.2119 225.815 26.2119C224.496 26.2119 223.272 27.0252 222.142 28.6518V47.1579H217.856V29.8026C217.856 28.4523 217.746 27.5162 217.526 26.9945C217.338 26.4728 216.899 26.2119 216.208 26.2119C214.889 26.2119 213.665 27.0252 212.534 28.6518V47.1579H207.825V22.8513H211.781L212.158 25.4753C212.943 24.4012 213.743 23.5879 214.559 23.0355C215.376 22.4831 216.349 22.2068 217.479 22.2068C219.677 22.2068 221.09 23.2349 221.718 25.2912C222.471 24.3091 223.287 23.5572 224.167 23.0355C225.046 22.4831 226.051 22.2068 227.181 22.2068Z" fill="#3F4555"/>
<path d="M297.461 10.9283C298.465 10.9283 299.282 11.2505 299.91 11.895C300.569 12.5088 300.899 13.2761 300.899 14.1968C300.899 15.1175 300.569 15.8847 299.91 16.4985C299.282 17.1123 298.465 17.4192 297.461 17.4192C296.425 17.4192 295.593 17.1123 294.965 16.4985C294.337 15.8847 294.023 15.1175 294.023 14.1968C294.023 13.2454 294.337 12.4628 294.965 11.849C295.624 11.2352 296.456 10.9283 297.461 10.9283ZM301.087 43.383H307.869V47.1579H288.419V43.383H295.813V26.6262H288.654V22.8514H301.087V43.383ZM326.688 40.5288C326.688 42.5851 327.944 43.6132 330.456 43.6132C331.712 43.6132 333.031 43.337 334.412 42.7846L335.73 46.3753C334.003 47.296 331.869 47.7564 329.326 47.7564C326.845 47.7564 324.899 47.0812 323.486 45.7308C322.105 44.3498 321.414 42.4623 321.414 40.0685V16.8668H313.926V13.0919H326.688V40.5288Z" fill="#3F4555"/>
<path d="M265.884 9.93573C271.19 9.93573 274.957 11.593 277.186 14.9075C279.447 18.1913 280.577 22.9023 280.577 29.0403C280.577 33.1527 280.357 36.498 279.918 39.0759C279.509 41.6539 278.756 43.6181 277.657 44.9684C276.59 46.3188 275.082 46.994 273.136 46.994C271.441 46.994 270.122 46.3955 269.18 45.1986C268.27 44.0324 267.705 42.5132 267.485 40.6411H267.296C266.731 41.8994 265.884 42.9276 264.753 43.7255C263.623 44.5234 262.273 44.9224 260.703 44.9224C258.066 44.9224 256.135 43.971 254.91 42.0682C253.686 40.1655 253.074 37.6181 253.074 34.4264C253.074 30.5287 253.906 27.4904 255.57 25.3114C257.265 23.1325 259.777 22.043 263.105 22.043C264.392 22.043 265.711 22.2118 267.061 22.5493C268.442 22.8869 269.761 23.3933 271.017 24.0685V37.879C271.017 39.5363 271.158 40.7179 271.441 41.4237C271.755 42.1296 272.241 42.4825 272.901 42.4825C273.497 42.4825 273.937 42.0682 274.219 41.2396C274.502 40.411 274.675 39.1373 274.737 37.4187C274.831 35.6693 274.879 33.0146 274.879 29.4546C274.879 26.048 274.612 23.2706 274.078 21.1223C273.544 18.9433 272.586 17.286 271.205 16.1505C269.855 15.0149 267.956 14.4472 265.507 14.4472C263.749 14.4472 262.037 14.7847 260.373 15.4599C258.71 16.1044 256.998 17.1786 255.24 18.6824L252.273 15.2758C254.408 13.4344 256.559 12.0841 258.725 11.2247C260.923 10.3654 263.309 9.93573 265.884 9.93573ZM262.964 26.6004C262.116 26.6004 261.457 26.8459 260.986 27.337C260.546 27.8281 260.232 28.626 260.044 29.7308C259.855 30.8357 259.761 32.4009 259.761 34.4264C259.761 36.5747 259.918 38.1092 260.232 39.0299C260.577 39.9199 261.19 40.3649 262.069 40.3649C262.979 40.3649 263.623 40.058 264 39.4442C264.377 38.8304 264.627 38.0478 264.753 37.0964V27.0147C264.188 26.7385 263.591 26.6004 262.964 26.6004Z" fill="#3F4555"/>
<path d="M245.236 52.772C248.408 52.772 250.98 50.2585 250.98 47.1579C250.98 44.0574 248.408 41.5439 245.236 41.5439C242.065 41.5439 239.493 44.0574 239.493 47.1579C239.493 50.2585 242.065 52.772 245.236 52.772Z" fill="#3A4A74"/>
<path d="M258.733 64C263.015 64 266.486 60.6068 266.486 56.421C266.486 52.2353 263.015 48.8421 258.733 48.8421C254.451 48.8421 250.98 52.2353 250.98 56.421C250.98 60.6068 254.451 64 258.733 64Z" fill="#1F3148"/>
<path d="M242.939 38.1754C245.477 38.1754 247.534 36.1647 247.534 33.6842C247.534 31.2038 245.477 29.193 242.939 29.193C240.402 29.193 238.345 31.2038 238.345 33.6842C238.345 36.1647 240.402 38.1754 242.939 38.1754Z" fill="#689BDD"/>
<path d="M246.959 25.8246C249.18 25.8246 250.98 24.0651 250.98 21.8947C250.98 19.7243 249.18 17.9649 246.959 17.9649C244.739 17.9649 242.939 19.7243 242.939 21.8947C242.939 24.0651 244.739 25.8246 246.959 25.8246Z" fill="#9AB1EA"/>
</svg>
