<svg width="164" height="32" viewBox="0 0 164 32" fill="none" xmlns="http://www.w3.org/2000/svg">
<g clip-path="url(#clip0_834_588)">
<path d="M7.99664 11.1034C10.9043 11.1034 12.3582 13.2287 12.3582 17.4793C12.3582 19.3974 11.9568 20.9473 11.1542 22.1288C10.3516 23.2951 9.20817 23.8782 7.72405 23.8782C6.4671 23.8782 5.45243 23.4332 4.68008 22.5432V28.2515L2.13586 28.5507V11.4257H4.33933L4.49835 12.9909C4.95267 12.3771 5.47514 11.909 6.06577 11.5868C6.67154 11.2646 7.31516 11.1034 7.99664 11.1034ZM7.29244 13.0829C6.76241 13.0829 6.27778 13.2441 5.8386 13.5663C5.39943 13.8886 5.01326 14.3105 4.68008 14.8323V20.5176C5.2707 21.423 6.0582 21.8756 7.04256 21.8756C7.92093 21.8756 8.5797 21.5227 9.01887 20.8168C9.45805 20.111 9.67765 19.0061 9.67765 17.5023C9.67765 15.9525 9.48076 14.8323 9.08702 14.1417C8.69328 13.4359 8.09507 13.0829 7.29244 13.0829ZM24.9341 20.6097C24.9341 21.07 25.0022 21.4153 25.1385 21.6455C25.2748 21.8603 25.5095 22.0214 25.8427 22.1288L25.2521 23.8782C23.9951 23.7247 23.1698 23.1646 22.776 22.1979C22.3368 22.7503 21.7841 23.1723 21.1178 23.4639C20.4665 23.7401 19.7472 23.8782 18.9597 23.8782C17.7482 23.8782 16.7865 23.5329 16.0748 22.8424C15.363 22.1519 15.0071 21.2388 15.0071 20.1033C15.0071 18.8297 15.4993 17.8476 16.4836 17.157C17.4832 16.4665 18.8916 16.1213 20.7089 16.1213H22.4126V15.3387C22.4126 14.5714 22.1854 14.0113 21.7311 13.6584C21.2768 13.3055 20.618 13.129 19.7548 13.129C19.3307 13.129 18.8385 13.1827 18.2782 13.2901C17.7179 13.3975 17.15 13.551 16.5745 13.7505L15.9385 11.9321C17.3771 11.3796 18.778 11.1034 20.141 11.1034C21.7311 11.1034 22.9275 11.4564 23.7301 12.1622C24.5327 12.8681 24.9341 13.8732 24.9341 15.1775V20.6097ZM19.7093 21.9907C20.2394 21.9907 20.7467 21.8526 21.2313 21.5764C21.7311 21.3002 22.1248 20.9166 22.4126 20.4255V17.7325H21.0042C19.8532 17.7325 19.0127 17.932 18.4827 18.3309C17.9526 18.7146 17.6876 19.2747 17.6876 20.0112C17.6876 20.6557 17.8542 21.1467 18.1874 21.4843C18.5357 21.8219 19.043 21.9907 19.7093 21.9907ZM34.6477 20.2644C34.6477 21.2925 35.2536 21.8066 36.465 21.8066C37.0709 21.8066 37.7069 21.6685 38.3732 21.3923L39.0092 23.1876C38.1762 23.648 37.1465 23.8782 35.9198 23.8782C34.7234 23.8782 33.7845 23.5406 33.103 22.8654C32.4368 22.1749 32.1035 21.2312 32.1035 20.0342V8.4334H28.4916V6.54596H34.6477V20.2644ZM45.111 18.3309C45.1867 19.5125 45.5199 20.4025 46.1105 21.001C46.7164 21.5841 47.4735 21.8756 48.3822 21.8756C48.9426 21.8756 49.4725 21.7912 49.9723 21.6225C50.4873 21.4383 51.0098 21.1698 51.5397 20.8168L52.6301 22.382C52.0697 22.8577 51.4109 23.226 50.6538 23.4869C49.8967 23.7477 49.1016 23.8782 48.2686 23.8782C46.4361 23.8782 45.0127 23.3027 43.9979 22.1519C42.9832 20.9856 42.476 19.4358 42.476 17.5023C42.476 16.29 42.6956 15.2006 43.1347 14.2338C43.5738 13.2517 44.2099 12.4845 45.0429 11.9321C45.8759 11.3796 46.8449 11.1034 47.9506 11.1034C49.5407 11.1034 50.7976 11.6482 51.7215 12.7377C52.6603 13.8118 53.1299 15.2926 53.1299 17.1801C53.1299 17.6404 53.1071 18.0241 53.0617 18.3309H45.111ZM47.9733 13.0139C47.1555 13.0139 46.4892 13.3131 45.9742 13.9116C45.4593 14.51 45.1639 15.4001 45.0883 16.5816H50.6538C50.6236 15.4307 50.3812 14.5484 49.9269 13.9346C49.4725 13.3208 48.8213 13.0139 47.9733 13.0139ZM66.6371 22.9345C66.1828 23.226 65.6529 23.4562 65.047 23.625C64.4411 23.7938 63.8051 23.8782 63.1388 23.8782C61.7759 23.8782 60.7234 23.5252 59.9813 22.8194C59.2391 22.0982 58.8682 21.1237 58.8682 19.8961V13.3131H56.2104V11.4257H58.8682V8.70961L61.4124 8.41038V11.4257H65.4786L65.1833 13.3131H61.4124V19.8731C61.4124 20.533 61.5789 21.024 61.9122 21.3462C62.2454 21.6531 62.7754 21.8066 63.5023 21.8066C64.3048 21.8066 65.047 21.6148 65.7285 21.2312L66.6371 22.9345ZM80.258 22.9345C79.8037 23.226 79.2737 23.4562 78.6679 23.625C78.062 23.7938 77.426 23.8782 76.7597 23.8782C75.3967 23.8782 74.3443 23.5252 73.6022 22.8194C72.86 22.0982 72.4891 21.1237 72.4891 19.8961V13.3131H69.8313V11.4257H72.4891V8.70961L75.0333 8.41038V11.4257H79.0995L78.8042 13.3131H75.0333V19.8731C75.0333 20.533 75.1998 21.024 75.533 21.3462C75.8663 21.6531 76.3962 21.8066 77.1232 21.8066C77.9257 21.8066 78.6679 21.6148 79.3494 21.2312L80.258 22.9345ZM85.9736 18.3309C86.0493 19.5125 86.3825 20.4025 86.9731 21.001C87.579 21.5841 88.3361 21.8756 89.2448 21.8756C89.8052 21.8756 90.3351 21.7912 90.8349 21.6225C91.3499 21.4383 91.8724 21.1698 92.4023 20.8168L93.4927 22.382C92.9323 22.8577 92.2735 23.226 91.5164 23.4869C90.7593 23.7477 89.9642 23.8782 89.1312 23.8782C87.2986 23.8782 85.8753 23.3027 84.8605 22.1519C83.8458 20.9856 83.3385 19.4358 83.3385 17.5023C83.3385 16.29 83.5582 15.2006 83.9973 14.2338C84.4364 13.2517 85.0725 12.4845 85.9055 11.9321C86.7385 11.3796 87.7075 11.1034 88.8131 11.1034C90.4033 11.1034 91.6602 11.6482 92.584 12.7377C93.5229 13.8118 93.9925 15.2926 93.9925 17.1801C93.9925 17.6404 93.9697 18.0241 93.9243 18.3309H85.9736ZM88.8359 13.0139C88.0181 13.0139 87.3518 13.3131 86.8368 13.9116C86.3218 14.51 86.0265 15.4001 85.9509 16.5816H91.5164C91.4862 15.4307 91.2438 14.5484 90.7895 13.9346C90.3351 13.3208 89.6838 13.0139 88.8359 13.0139Z" fill="#9FA6B9"/>
<path d="M109.581 11.1035C110.324 11.1035 110.906 11.3643 111.331 11.8861C111.755 12.4078 111.967 13.2978 111.967 14.5561V23.579H109.718V14.9013C109.718 14.2262 109.665 13.7581 109.559 13.4973C109.468 13.2364 109.256 13.106 108.923 13.106C108.287 13.106 107.696 13.5126 107.151 14.3259V23.579H105.084V14.9013C105.084 14.2262 105.031 13.7581 104.925 13.4973C104.834 13.2364 104.622 13.106 104.288 13.106C103.652 13.106 103.062 13.5126 102.517 14.3259V23.579H100.245V11.4257H102.153L102.335 12.7377C102.714 12.2006 103.1 11.794 103.493 11.5178C103.887 11.2416 104.357 11.1035 104.902 11.1035C105.962 11.1035 106.643 11.6175 106.946 12.6456C107.31 12.1546 107.703 11.7786 108.128 11.5178C108.552 11.2416 109.036 11.1035 109.581 11.1035Z" fill="#9FA6B9"/>
<path d="M143.481 5.46411C143.966 5.46411 144.36 5.62523 144.662 5.94748C144.98 6.25437 145.139 6.63801 145.139 7.09836C145.139 7.55871 144.98 7.94234 144.662 8.24923C144.36 8.55613 143.966 8.70959 143.481 8.70959C142.981 8.70959 142.58 8.55613 142.277 8.24923C141.974 7.94234 141.823 7.55871 141.823 7.09836C141.823 6.62265 141.974 6.23135 142.277 5.92446C142.595 5.61757 142.997 5.46411 143.481 5.46411ZM145.23 21.6915H148.501V23.5789H139.12V21.6915H142.686V13.3131H139.233V11.4257H145.23V21.6915ZM157.579 20.2644C157.579 21.2925 158.185 21.8066 159.396 21.8066C160.002 21.8066 160.638 21.6685 161.305 21.3923L161.941 23.1876C161.108 23.648 160.078 23.8781 158.851 23.8781C157.655 23.8781 156.716 23.5405 156.034 22.8654C155.368 22.1748 155.035 21.2311 155.035 20.0342V8.43337H151.423V6.54594H157.579V20.2644Z" fill="#9FA6B9"/>
<path d="M128.25 4.96783C130.809 4.96783 132.626 5.79647 133.702 7.45373C134.792 9.09564 135.337 11.4511 135.337 14.5201C135.337 16.5763 135.231 18.249 135.019 19.5379C134.822 20.8269 134.459 21.809 133.929 22.4842C133.414 23.1594 132.687 23.497 131.748 23.497C130.93 23.497 130.294 23.1977 129.84 22.5993C129.401 22.0162 129.128 21.2566 129.022 20.3205H128.931C128.659 20.9497 128.25 21.4638 127.704 21.8627C127.159 22.2617 126.508 22.4612 125.751 22.4612C124.479 22.4612 123.547 21.9855 122.957 21.0341C122.366 20.0827 122.071 18.809 122.071 17.2132C122.071 15.2643 122.472 13.7452 123.275 12.6557C124.093 11.5662 125.304 11.0214 126.909 11.0214C127.53 11.0214 128.166 11.1059 128.818 11.2746C129.484 11.4434 130.12 11.6966 130.726 12.0342V18.9395C130.726 19.7681 130.794 20.3589 130.93 20.7118C131.082 21.0648 131.316 21.2412 131.634 21.2412C131.922 21.2412 132.134 21.0341 132.27 20.6198C132.407 20.2054 132.49 19.5686 132.52 18.7093C132.566 17.8346 132.588 16.5073 132.588 14.7273C132.588 13.024 132.46 11.6353 132.202 10.5611C131.945 9.47161 131.483 8.64298 130.817 8.0752C130.165 7.50743 129.249 7.22355 128.068 7.22355C127.22 7.22355 126.394 7.39234 125.592 7.72994C124.789 8.05219 123.964 8.58925 123.116 9.34117L121.685 7.63787C122.714 6.71717 123.752 6.042 124.797 5.61233C125.857 5.18266 127.008 4.96783 128.25 4.96783ZM126.841 13.3002C126.432 13.3002 126.114 13.4229 125.887 13.6685C125.675 13.914 125.524 14.313 125.433 14.8654C125.342 15.4178 125.297 16.2004 125.297 17.2132C125.297 18.2873 125.372 19.0546 125.524 19.5149C125.69 19.9599 125.986 20.1824 126.41 20.1824C126.849 20.1824 127.159 20.029 127.341 19.7221C127.523 19.4152 127.644 19.0239 127.704 18.5482V13.5073C127.432 13.3692 127.144 13.3002 126.841 13.3002Z" fill="#9FA6B9"/>
<path d="M118.291 26.3859C119.821 26.3859 121.061 25.1292 121.061 23.5789C121.061 22.0287 119.821 20.7719 118.291 20.7719C116.761 20.7719 115.52 22.0287 115.52 23.5789C115.52 25.1292 116.761 26.3859 118.291 26.3859Z" fill="#3A4A74"/>
<path d="M124.801 32C126.866 32 128.541 30.3034 128.541 28.2106C128.541 26.1177 126.866 24.4211 124.801 24.4211C122.735 24.4211 121.061 26.1177 121.061 28.2106C121.061 30.3034 122.735 32 124.801 32Z" fill="#1F3148"/>
<path d="M117.182 19.0877C118.406 19.0877 119.399 18.0823 119.399 16.8421C119.399 15.6019 118.406 14.5965 117.182 14.5965C115.958 14.5965 114.966 15.6019 114.966 16.8421C114.966 18.0823 115.958 19.0877 117.182 19.0877Z" fill="#689BDD"/>
<path d="M119.122 12.9123C120.193 12.9123 121.061 12.0326 121.061 10.9474C121.061 9.8622 120.193 8.98248 119.122 8.98248C118.051 8.98248 117.182 9.8622 117.182 10.9474C117.182 12.0326 118.051 12.9123 119.122 12.9123Z" fill="#9AB1EA"/>
</g>
<defs>
<clipPath id="clip0_834_588">
<rect width="164" height="32" fill="white"/>
</clipPath>
</defs>
</svg>
