<svg width="82" height="16" viewBox="0 0 82 16" fill="none" xmlns="http://www.w3.org/2000/svg">
<g clip-path="url(#clip0_834_525)">
<path d="M3.99838 5.55175C5.45222 5.55175 6.17914 6.61439 6.17914 8.73968C6.17914 9.69874 5.97848 10.4737 5.57716 11.0644C5.17585 11.6476 4.60414 11.9391 3.86209 11.9391C3.23361 11.9391 2.72628 11.7166 2.3401 11.2716V14.1258L1.06799 14.2754V5.71287H2.16973L2.24924 6.49547C2.4764 6.18856 2.73763 5.95455 3.03294 5.79343C3.33583 5.63231 3.65764 5.55175 3.99838 5.55175ZM3.64628 6.5415C3.38126 6.5415 3.13895 6.62206 2.91936 6.78319C2.69978 6.94431 2.50669 7.1553 2.3401 7.41617V10.2588C2.63541 10.7115 3.02916 10.9379 3.52134 10.9379C3.96053 10.9379 4.28991 10.7614 4.5095 10.4084C4.72908 10.0555 4.83888 9.50309 4.83888 8.75119C4.83888 7.97627 4.74044 7.41617 4.54357 7.07091C4.3467 6.71796 4.0476 6.5415 3.64628 6.5415ZM12.4671 10.3049C12.4671 10.535 12.5012 10.7077 12.5693 10.8228C12.6375 10.9302 12.7548 11.0107 12.9214 11.0644L12.6261 11.9391C11.9976 11.8624 11.5849 11.5823 11.3881 11.099C11.1685 11.3752 10.8921 11.5862 10.5589 11.732C10.2333 11.8701 9.87366 11.9391 9.47992 11.9391C8.87414 11.9391 8.39332 11.7665 8.03744 11.4212C7.68154 11.076 7.50361 10.6194 7.50361 10.0517C7.50361 9.41486 7.74969 8.92382 8.24188 8.57855C8.74164 8.23329 9.44584 8.06066 10.3545 8.06066H11.2063V7.66936C11.2063 7.28574 11.0928 7.00568 10.8656 6.82922C10.6384 6.65276 10.3091 6.56452 9.87745 6.56452C9.66543 6.56452 9.41933 6.59137 9.13917 6.64508C8.859 6.69879 8.57505 6.77551 8.28732 6.87526L7.96929 5.96606C8.68863 5.68985 9.38905 5.55175 10.0705 5.55175C10.8656 5.55175 11.4638 5.72821 11.8651 6.08115C12.2664 6.43409 12.4671 6.93663 12.4671 7.5888V10.3049ZM9.85474 10.9954C10.1198 10.9954 10.3734 10.9263 10.6157 10.7882C10.8656 10.6501 11.0625 10.4583 11.2063 10.2128V8.86627H10.5021C9.92666 8.86627 9.50641 8.96602 9.2414 9.1655C8.97637 9.35732 8.84386 9.63736 8.84386 10.0056C8.84386 10.3279 8.92715 10.5734 9.09374 10.7422C9.26789 10.911 9.52155 10.9954 9.85474 10.9954ZM17.3239 10.1322C17.3239 10.6463 17.6269 10.9033 18.2326 10.9033C18.5355 10.9033 18.8535 10.8343 19.1867 10.6962L19.5047 11.5939C19.0882 11.824 18.5733 11.9391 17.96 11.9391C17.3617 11.9391 16.8923 11.7703 16.5516 11.4327C16.2184 11.0875 16.0518 10.6156 16.0518 10.0172V4.21673H14.2459V3.27301H17.3239V10.1322ZM22.5556 9.1655C22.5934 9.75628 22.76 10.2013 23.0553 10.5005C23.3583 10.7921 23.7368 10.9379 24.1911 10.9379C24.4714 10.9379 24.7363 10.8956 24.9862 10.8113C25.2437 10.7192 25.5049 10.5849 25.7699 10.4084L26.3151 11.191C26.0349 11.4289 25.7055 11.613 25.327 11.7435C24.9484 11.8739 24.5509 11.9391 24.1344 11.9391C23.2181 11.9391 22.5064 11.6514 21.999 11.076C21.4917 10.4928 21.238 9.71792 21.238 8.75119C21.238 8.14505 21.3479 7.60031 21.5674 7.11694C21.787 6.62589 22.105 6.24227 22.5215 5.96606C22.938 5.68985 23.4225 5.55175 23.9753 5.55175C24.7704 5.55175 25.3988 5.82413 25.8608 6.36887C26.3302 6.90595 26.565 7.64634 26.565 8.59006C26.565 8.82024 26.5536 9.01206 26.5309 9.1655H22.5556ZM23.9867 6.50698C23.5778 6.50698 23.2447 6.65659 22.9872 6.95582C22.7297 7.25505 22.582 7.70006 22.5442 8.29083H25.327C25.3119 7.7154 25.1907 7.27423 24.9635 6.96733C24.7363 6.66042 24.4107 6.50698 23.9867 6.50698ZM33.3186 11.4673C33.0915 11.613 32.8265 11.7281 32.5236 11.8125C32.2206 11.8969 31.9026 11.9391 31.5695 11.9391C30.888 11.9391 30.3618 11.7627 29.9907 11.4097C29.6196 11.0491 29.4342 10.5619 29.4342 9.9481V6.65659H28.1053V5.71287H29.4342V4.35483L30.7063 4.20522V5.71287H32.7394L32.5917 6.65659H30.7063V9.93659C30.7063 10.2665 30.7895 10.512 30.9561 10.6732C31.1228 10.8266 31.3878 10.9033 31.7512 10.9033C32.1525 10.9033 32.5236 10.8074 32.8643 10.6156L33.3186 11.4673ZM40.1291 11.4673C39.9019 11.613 39.6369 11.7281 39.334 11.8125C39.0311 11.8969 38.713 11.9391 38.3799 11.9391C37.6984 11.9391 37.1722 11.7627 36.8011 11.4097C36.4301 11.0491 36.2446 10.5619 36.2446 9.9481V6.65659H34.9157V5.71287H36.2446V4.35483L37.5167 4.20522V5.71287H39.5498L39.4021 6.65659H37.5167V9.93659C37.5167 10.2665 37.5999 10.512 37.7666 10.6732C37.9332 10.8266 38.1982 10.9033 38.5616 10.9033C38.9629 10.9033 39.334 10.8074 39.6747 10.6156L40.1291 11.4673ZM42.9869 9.1655C43.0247 9.75628 43.1913 10.2013 43.4866 10.5005C43.7896 10.7921 44.1681 10.9379 44.6224 10.9379C44.9027 10.9379 45.1676 10.8956 45.4175 10.8113C45.675 10.7192 45.9362 10.5849 46.2012 10.4084L46.7464 11.191C46.4662 11.4289 46.1368 11.613 45.7583 11.7435C45.3797 11.8739 44.9822 11.9391 44.5657 11.9391C43.6494 11.9391 42.9377 11.6514 42.4303 11.076C41.923 10.4928 41.6693 9.71792 41.6693 8.75119C41.6693 8.14505 41.7792 7.60031 41.9987 7.11694C42.2183 6.62589 42.5363 6.24227 42.9528 5.96606C43.3693 5.68985 43.8538 5.55175 44.4066 5.55175C45.2017 5.55175 45.8301 5.82413 46.2921 6.36887C46.7615 6.90595 46.9963 7.64634 46.9963 8.59006C46.9963 8.82024 46.9849 9.01206 46.9622 9.1655H42.9869ZM44.418 6.50698C44.0091 6.50698 43.676 6.65659 43.4185 6.95582C43.161 7.25505 43.0133 7.70006 42.9755 8.29083H45.7583C45.7432 7.7154 45.622 7.27423 45.3948 6.96733C45.1676 6.66042 44.842 6.50698 44.418 6.50698Z" fill="#9FA6B9"/>
<path d="M54.7907 5.5517C55.1618 5.5517 55.4533 5.68213 55.6653 5.943C55.8774 6.20387 55.9833 6.64886 55.9833 7.27801V11.7895H54.8589V7.45064C54.8589 7.11306 54.8324 6.87904 54.7794 6.74861C54.734 6.61818 54.628 6.55296 54.4614 6.55296C54.1433 6.55296 53.848 6.75629 53.5754 7.16292V11.7895H52.5418V7.45064C52.5418 7.11306 52.5154 6.87904 52.4623 6.74861C52.4169 6.61818 52.3109 6.55296 52.1443 6.55296C51.8263 6.55296 51.531 6.75629 51.2584 7.16292V11.7895H50.1226V5.71282H51.0766L51.1675 6.36882C51.3569 6.10029 51.5499 5.89696 51.7468 5.75885C51.9436 5.62075 52.1784 5.5517 52.451 5.5517C52.9811 5.5517 53.3218 5.80872 53.4732 6.32278C53.6549 6.07727 53.8518 5.88928 54.0638 5.75885C54.2759 5.62075 54.5182 5.5517 54.7907 5.5517Z" fill="#9FA6B9"/>
<path d="M71.7406 2.73206C71.9828 2.73206 72.1798 2.81262 72.3312 2.97374C72.4902 3.12719 72.5697 3.319 72.5697 3.54918C72.5697 3.77935 72.4902 3.97117 72.3312 4.12462C72.1798 4.27806 71.9828 4.35479 71.7406 4.35479C71.4907 4.35479 71.29 4.27806 71.1386 4.12462C70.9872 3.97117 70.9114 3.77935 70.9114 3.54918C70.9114 3.31133 70.9872 3.11568 71.1386 2.96223C71.2976 2.80879 71.4983 2.73206 71.7406 2.73206ZM72.6151 10.8457H74.2507V11.7895H69.5598V10.8457H71.343V6.65655H69.6166V5.71283H72.6151V10.8457ZM78.7895 10.1322C78.7895 10.6463 79.0925 10.9033 79.6982 10.9033C80.0011 10.9033 80.3191 10.8342 80.6523 10.6961L80.9703 11.5938C80.5538 11.824 80.0389 11.9391 79.4256 11.9391C78.8273 11.9391 78.3579 11.7703 78.0172 11.4327C77.684 11.0874 77.5174 10.6156 77.5174 10.0171V4.21669H75.7115V3.27297H78.7895V10.1322Z" fill="#9FA6B9"/>
<path d="M64.1248 2.48395C65.4045 2.48395 66.3132 2.89826 66.8507 3.7269C67.3959 4.54785 67.6685 5.72559 67.6685 7.26009C67.6685 8.2882 67.6155 9.12451 67.5095 9.769C67.411 10.4135 67.2293 10.9045 66.9643 11.2421C66.7068 11.5797 66.3433 11.7485 65.8739 11.7485C65.465 11.7485 65.147 11.5989 64.9198 11.2997C64.7003 11.0081 64.564 10.6283 64.511 10.1603H64.4655C64.3292 10.4749 64.1248 10.7319 63.8522 10.9314C63.5796 11.1309 63.2539 11.2306 62.8754 11.2306C62.2393 11.2306 61.7736 10.9928 61.4783 10.5171C61.183 10.0414 61.0354 9.40455 61.0354 8.60661C61.0354 7.6322 61.2361 6.87262 61.6374 6.32788C62.0462 5.78313 62.652 5.51075 63.4546 5.51075C63.7651 5.51075 64.0831 5.55296 64.4087 5.63735C64.7419 5.72174 65.0599 5.84834 65.3628 6.01714V9.46977C65.3628 9.88409 65.3969 10.1795 65.465 10.3559C65.5408 10.5324 65.6581 10.6206 65.8171 10.6206C65.9611 10.6206 66.067 10.5171 66.1352 10.3099C66.2033 10.1028 66.245 9.78434 66.2601 9.35468C66.2828 8.91735 66.2942 8.25367 66.2942 7.36367C66.2942 6.51202 66.2298 5.81766 66.1011 5.28058C65.9724 4.73584 65.7414 4.32152 65.4082 4.03763C65.0826 3.75374 64.6245 3.61181 64.0339 3.61181C63.6099 3.61181 63.1971 3.6962 62.7959 3.865C62.3946 4.02612 61.9818 4.29466 61.5578 4.67061L60.8423 3.81897C61.3571 3.35861 61.8759 3.02103 62.3983 2.80619C62.9284 2.59136 63.5038 2.48395 64.1248 2.48395ZM63.4206 6.65012C63.2161 6.65012 63.0571 6.7115 62.9435 6.83426C62.8376 6.95703 62.7618 7.15651 62.7164 7.43272C62.6709 7.70893 62.6482 8.10023 62.6482 8.60661C62.6482 9.1437 62.686 9.52732 62.7618 9.75749C62.845 9.97999 62.9927 10.0912 63.2048 10.0912C63.4243 10.0912 63.5796 10.0145 63.6705 9.86107C63.7613 9.70763 63.8218 9.51198 63.8522 9.27412V6.7537C63.7159 6.68465 63.572 6.65012 63.4206 6.65012Z" fill="#9FA6B9"/>
<path d="M59.1453 13.193C59.9103 13.193 60.5304 12.5646 60.5304 11.7895C60.5304 11.0144 59.9103 10.386 59.1453 10.386C58.3803 10.386 57.7601 11.0144 57.7601 11.7895C57.7601 12.5646 58.3803 13.193 59.1453 13.193Z" fill="#3A4A74"/>
<path d="M62.4003 16C63.4331 16 64.2703 15.1517 64.2703 14.1052C64.2703 13.0588 63.4331 12.2105 62.4003 12.2105C61.3676 12.2105 60.5304 13.0588 60.5304 14.1052C60.5304 15.1517 61.3676 16 62.4003 16Z" fill="#1F3148"/>
<path d="M58.5913 9.54383C59.2033 9.54383 59.6994 9.04113 59.6994 8.42102C59.6994 7.80092 59.2033 7.29822 58.5913 7.29822C57.9793 7.29822 57.4832 7.80092 57.4832 8.42102C57.4832 9.04113 57.9793 9.54383 58.5913 9.54383Z" fill="#689BDD"/>
<path d="M59.5608 6.45612C60.0963 6.45612 60.5304 6.01626 60.5304 5.47367C60.5304 4.93107 60.0963 4.49121 59.5608 4.49121C59.0253 4.49121 58.5912 4.93107 58.5912 5.47367C58.5912 6.01626 59.0253 6.45612 59.5608 6.45612Z" fill="#9AB1EA"/>
</g>
<defs>
<clipPath id="clip0_834_525">
<rect width="82" height="16" fill="white"/>
</clipPath>
</defs>
</svg>
