<svg width="170" height="32" viewBox="0 0 170 32" fill="none" xmlns="http://www.w3.org/2000/svg">
<path d="M8.28931 11.1034C11.3034 11.1034 12.8104 13.2287 12.8104 17.4793C12.8104 19.3974 12.3944 20.9473 11.5624 22.1288C10.7304 23.2951 9.54516 23.8782 8.00674 23.8782C6.7038 23.8782 5.65201 23.4332 4.85141 22.5431V28.2515L2.21411 28.5507V11.4257H4.4982L4.66303 12.9909C5.13397 12.3771 5.67556 11.909 6.28779 11.5868C6.91573 11.2646 7.58289 11.1034 8.28931 11.1034ZM7.55935 13.0829C7.00992 13.0829 6.50756 13.2441 6.05232 13.5663C5.59708 13.8886 5.19678 14.3105 4.85141 14.8323V20.5176C5.46364 21.423 6.27995 21.8756 7.30032 21.8756C8.21083 21.8756 8.8937 21.5227 9.34894 20.8168C9.80418 20.111 10.0318 19.0061 10.0318 17.5023C10.0318 15.9525 9.82773 14.8323 9.41958 14.1417C9.01144 13.4359 8.39134 13.0829 7.55935 13.0829ZM25.8464 20.6097C25.8464 21.07 25.917 21.4153 26.0583 21.6455C26.1996 21.8603 26.4429 22.0214 26.7883 22.1288L26.1761 23.8782C24.8731 23.7247 24.0176 23.1646 23.6094 22.1979C23.1541 22.7503 22.5812 23.1723 21.8905 23.4639C21.2154 23.7401 20.4698 23.8782 19.6535 23.8782C18.3976 23.8782 17.4008 23.5329 16.663 22.8424C15.9251 22.1519 15.5562 21.2388 15.5562 20.1033C15.5562 18.8297 16.0664 17.8476 17.0868 17.157C18.1229 16.4665 19.5828 16.1213 21.4666 16.1213H23.2327V15.3387C23.2327 14.5714 22.9972 14.0113 22.5262 13.6584C22.0553 13.3055 21.3724 13.129 20.4776 13.129C20.0381 13.129 19.5279 13.1827 18.947 13.2901C18.3662 13.3975 17.7775 13.551 17.181 13.7505L16.5217 11.9321C18.013 11.3796 19.4651 11.1034 20.8779 11.1034C22.5262 11.1034 23.7664 11.4564 24.5984 12.1622C25.4304 12.8681 25.8464 13.8732 25.8464 15.1775V20.6097ZM20.4305 21.9907C20.98 21.9907 21.5058 21.8526 22.0082 21.5764C22.5262 21.3002 22.9344 20.9166 23.2327 20.4255V17.7325H21.7727C20.5796 17.7325 19.7084 17.932 19.159 18.3309C18.6095 18.7146 18.3348 19.2747 18.3348 20.0112C18.3348 20.6557 18.5075 21.1467 18.8529 21.4843C19.2139 21.8219 19.7398 21.9907 20.4305 21.9907ZM35.9154 20.2644C35.9154 21.2925 36.5435 21.8066 37.7992 21.8066C38.4272 21.8066 39.0866 21.6685 39.7772 21.3923L40.4365 23.1876C39.573 23.648 38.5056 23.8782 37.2341 23.8782C35.9938 23.8782 35.0206 23.5406 34.3142 22.8654C33.6236 22.1749 33.2781 21.2312 33.2781 20.0342V8.4334H29.5341V6.54596H35.9154V20.2644ZM46.7615 18.3309C46.8399 19.5125 47.1854 20.4025 47.7976 21.001C48.4256 21.5841 49.2105 21.8756 50.1524 21.8756C50.7333 21.8756 51.2826 21.7912 51.8007 21.6224C52.3345 21.4383 52.8761 21.1698 53.4254 20.8168L54.5557 22.382C53.9748 22.8577 53.2919 23.226 52.5071 23.4869C51.7223 23.7477 50.8981 23.8782 50.0346 23.8782C48.135 23.8782 46.6596 23.3027 45.6077 22.1519C44.5559 20.9856 44.0301 19.4358 44.0301 17.5023C44.0301 16.29 44.2578 15.2006 44.7129 14.2338C45.1681 13.2517 45.8274 12.4845 46.6909 11.9321C47.5544 11.3796 48.5589 11.1034 49.705 11.1034C51.3533 11.1034 52.6561 11.6482 53.6138 12.7377C54.587 13.8118 55.0737 15.2926 55.0737 17.1801C55.0737 17.6404 55.0502 18.024 55.0031 18.3309H46.7615ZM49.7285 13.0139C48.8808 13.0139 48.1902 13.3131 47.6563 13.9116C47.1225 14.51 46.8164 15.4 46.738 16.5816H52.5071C52.4758 15.4307 52.2245 14.5484 51.7536 13.9346C51.2826 13.3208 50.6075 13.0139 49.7285 13.0139ZM69.0752 22.9345C68.6042 23.226 68.0549 23.4562 67.4269 23.625C66.7989 23.7938 66.1395 23.8782 65.4489 23.8782C64.0361 23.8782 62.9451 23.5252 62.1758 22.8194C61.4065 22.0982 61.022 21.1237 61.022 19.8961V13.3131H58.267V11.4257H61.022V8.70961L63.6593 8.41038V11.4257H67.8743L67.5682 13.3131H63.6593V19.8731C63.6593 20.533 63.8319 21.024 64.1774 21.3462C64.5228 21.6531 65.0722 21.8066 65.8257 21.8066C66.6576 21.8066 67.4269 21.6148 68.1333 21.2312L69.0752 22.9345ZM83.1944 22.9345C82.7234 23.226 82.1741 23.4562 81.5461 23.625C80.918 23.7938 80.2587 23.8782 79.5681 23.8782C78.1553 23.8782 77.0643 23.5252 76.295 22.8194C75.5257 22.0982 75.1412 21.1237 75.1412 19.8961V13.3131H72.3862V11.4257H75.1412V8.70961L77.7785 8.41038V11.4257H81.9935L81.6873 13.3131H77.7785V19.8731C77.7785 20.533 77.9511 21.024 78.2965 21.3462C78.642 21.6531 79.1913 21.8066 79.9449 21.8066C80.7768 21.8066 81.5461 21.6148 82.2525 21.2312L83.1944 22.9345ZM89.1191 18.3309C89.1975 19.5125 89.543 20.4025 90.1552 21.001C90.7832 21.5841 91.568 21.8756 92.5099 21.8756C93.0909 21.8756 93.6402 21.7912 94.1582 21.6224C94.6921 21.4383 95.2337 21.1698 95.783 20.8168L96.9133 22.382C96.3323 22.8577 95.6495 23.226 94.8646 23.4869C94.0798 23.7477 93.2557 23.8782 92.3922 23.8782C90.4926 23.8782 89.0172 23.3027 87.9653 22.1519C86.9134 20.9856 86.3876 19.4358 86.3876 17.5023C86.3876 16.29 86.6153 15.2006 87.0705 14.2338C87.5256 13.2517 88.185 12.4845 89.0485 11.9321C89.912 11.3796 90.9165 11.1034 92.0625 11.1034C93.7108 11.1034 95.0137 11.6482 95.9714 12.7377C96.9446 13.8118 97.4313 15.2926 97.4313 17.1801C97.4313 17.6404 97.4078 18.024 97.3607 18.3309H89.1191ZM92.0861 13.0139C91.2384 13.0139 90.5477 13.3131 90.0139 13.9116C89.4801 14.51 89.174 15.4 89.0956 16.5816H94.8646C94.8333 15.4307 94.5821 14.5484 94.1111 13.9346C93.6402 13.3208 92.9651 13.0139 92.0861 13.0139Z" fill="#3F4555"/>
<path d="M113.591 11.1035C114.36 11.1035 114.964 11.3643 115.404 11.8861C115.843 12.4078 116.063 13.2978 116.063 14.5561V23.579H113.732V14.9013C113.732 14.2262 113.677 13.7581 113.567 13.4973C113.473 13.2364 113.253 13.106 112.908 13.106C112.248 13.106 111.636 13.5126 111.071 14.3259V23.579H108.928V14.9013C108.928 14.2262 108.873 13.7581 108.763 13.4973C108.669 13.2364 108.449 13.106 108.104 13.106C107.445 13.106 106.832 13.5126 106.267 14.3259V23.579H103.913V11.4257H105.891L106.079 12.7377C106.472 12.2006 106.872 11.794 107.28 11.5178C107.688 11.2416 108.175 11.1035 108.74 11.1035C109.839 11.1035 110.545 11.6175 110.859 12.6456C111.236 12.1546 111.644 11.7786 112.084 11.5178C112.523 11.2416 113.025 11.1035 113.591 11.1035Z" fill="#3F4555"/>
<path d="M148.731 5.46411C149.233 5.46411 149.641 5.62523 149.955 5.94748C150.285 6.25437 150.45 6.63801 150.45 7.09836C150.45 7.55871 150.285 7.94234 149.955 8.24923C149.641 8.55613 149.233 8.70959 148.731 8.70959C148.213 8.70959 147.796 8.55613 147.483 8.24923C147.169 7.94234 147.012 7.55871 147.012 7.09836C147.012 6.62265 147.169 6.23135 147.483 5.92446C147.812 5.61757 148.228 5.46411 148.731 5.46411ZM150.544 21.6915H153.935V23.5789H144.209V21.6915H147.906V13.3131H144.327V11.4257H150.544V21.6915ZM163.344 20.2644C163.344 21.2925 163.972 21.8066 165.228 21.8066C165.856 21.8066 166.515 21.6685 167.206 21.3923L167.865 23.1876C167.002 23.648 165.934 23.8781 164.663 23.8781C163.423 23.8781 162.449 23.5405 161.743 22.8654C161.052 22.1748 160.707 21.2311 160.707 20.0342V8.43337H156.963V6.54594H163.344V20.2644Z" fill="#3F4555"/>
<path d="M132.942 4.96783C135.595 4.96783 137.479 5.79647 138.593 7.45373C139.723 9.09564 140.288 11.4511 140.288 14.5201C140.288 16.5763 140.178 18.249 139.959 19.5379C139.755 20.8269 139.378 21.809 138.828 22.4842C138.295 23.1594 137.541 23.497 136.568 23.497C135.72 23.497 135.061 23.1977 134.59 22.5993C134.135 22.0162 133.852 21.2566 133.742 20.3205H133.648C133.365 20.9497 132.942 21.4638 132.377 21.8627C131.811 22.2617 131.136 22.4612 130.351 22.4612C129.033 22.4612 128.067 21.9855 127.455 21.0341C126.843 20.0827 126.537 18.809 126.537 17.2132C126.537 15.2643 126.953 13.7452 127.785 12.6557C128.632 11.5662 129.888 11.0214 131.552 11.0214C132.196 11.0214 132.855 11.1059 133.53 11.2746C134.221 11.4434 134.88 11.6966 135.508 12.0342V18.9395C135.508 19.7681 135.579 20.3589 135.72 20.7118C135.877 21.0648 136.121 21.2412 136.45 21.2412C136.749 21.2412 136.968 21.0341 137.11 20.6198C137.251 20.2054 137.337 19.5686 137.369 18.7093C137.416 17.8346 137.439 16.5073 137.439 14.7273C137.439 13.024 137.306 11.6353 137.039 10.5611C136.772 9.47161 136.293 8.64298 135.602 8.0752C134.927 7.50743 133.978 7.22355 132.753 7.22355C131.874 7.22355 131.019 7.39234 130.187 7.72994C129.355 8.05219 128.499 8.58925 127.62 9.34117L126.136 7.63787C127.204 6.71717 128.279 6.042 129.362 5.61233C130.461 5.18266 131.654 4.96783 132.942 4.96783ZM131.482 13.3002C131.058 13.3002 130.728 13.4229 130.493 13.6685C130.273 13.914 130.116 14.313 130.022 14.8654C129.928 15.4178 129.88 16.2004 129.88 17.2132C129.88 18.2873 129.959 19.0546 130.116 19.5149C130.289 19.9599 130.595 20.1824 131.034 20.1824C131.489 20.1824 131.811 20.029 132 19.7221C132.188 19.4152 132.314 19.0239 132.377 18.5482V13.5073C132.094 13.3692 131.796 13.3002 131.482 13.3002Z" fill="#3F4555"/>
<path d="M122.618 26.3859C124.204 26.3859 125.49 25.1292 125.49 23.5789C125.49 22.0287 124.204 20.7719 122.618 20.7719C121.032 20.7719 119.747 22.0287 119.747 23.5789C119.747 25.1292 121.032 26.3859 122.618 26.3859Z" fill="#3A4A74"/>
<path d="M129.366 32C131.507 32 133.243 30.3034 133.243 28.2106C133.243 26.1177 131.507 24.4211 129.366 24.4211C127.225 24.4211 125.49 26.1177 125.49 28.2106C125.49 30.3034 127.225 32 129.366 32Z" fill="#1F3148"/>
<path d="M121.47 19.0877C122.738 19.0877 123.767 18.0823 123.767 16.8421C123.767 15.6019 122.738 14.5965 121.47 14.5965C120.201 14.5965 119.172 15.6019 119.172 16.8421C119.172 18.0823 120.201 19.0877 121.47 19.0877Z" fill="#689BDD"/>
<path d="M123.48 12.9123C124.59 12.9123 125.49 12.0326 125.49 10.9474C125.49 9.8622 124.59 8.98248 123.48 8.98248C122.369 8.98248 121.469 9.8622 121.469 10.9474C121.469 12.0326 122.369 12.9123 123.48 12.9123Z" fill="#9AB1EA"/>
</svg>
