<svg width="328" height="64" viewBox="0 0 328 64" fill="none" xmlns="http://www.w3.org/2000/svg">
<g clip-path="url(#clip0_834_606)">
<path d="M15.9934 22.2069C21.8088 22.2069 24.7164 26.4574 24.7164 34.9586C24.7164 38.7948 23.9138 41.8946 22.3085 44.2577C20.7033 46.5901 18.4165 47.7563 15.4482 47.7563C12.9343 47.7563 10.905 46.8663 9.36028 45.0863V56.503L4.27185 57.1015V22.8514H8.67879L8.99682 25.9817C9.90547 24.7541 10.9504 23.8181 12.1317 23.1736C13.3432 22.5291 14.6304 22.2069 15.9934 22.2069ZM14.585 26.1659C13.5249 26.1659 12.5557 26.4881 11.6773 27.1326C10.799 27.7771 10.0266 28.6211 9.36028 29.6645V41.0352C10.5415 42.8459 12.1165 43.7513 14.0852 43.7513C15.842 43.7513 17.1595 43.0454 18.0379 41.6337C18.9162 40.2219 19.3554 38.0122 19.3554 35.0046C19.3554 31.9049 18.9616 29.6645 18.1742 28.2835C17.3867 26.8717 16.1903 26.1659 14.585 26.1659ZM49.8683 41.2194C49.8683 42.1401 50.0046 42.8306 50.2772 43.2909C50.5498 43.7206 51.0192 44.0428 51.6856 44.2577L50.5043 47.7563C47.9904 47.4494 46.3397 46.3293 45.5522 44.3958C44.6738 45.5006 43.5683 46.3446 42.2356 46.9277C40.9332 47.4801 39.4945 47.7563 37.9195 47.7563C35.4964 47.7563 33.5732 47.0658 32.1496 45.6848C30.726 44.3037 30.0143 42.4776 30.0143 40.2066C30.0143 37.6593 30.9986 35.6951 32.9674 34.3141C34.9664 32.933 37.7832 32.2425 41.4178 32.2425H44.8253V30.6773C44.8253 29.1428 44.3709 28.0226 43.4623 27.3168C42.5536 26.6109 41.2361 26.258 39.5097 26.258C38.6616 26.258 37.6772 26.3653 36.5566 26.5802C35.4359 26.795 34.3001 27.1019 33.1491 27.5009L31.877 23.8641C34.7544 22.7593 37.5561 22.2069 40.282 22.2069C43.4623 22.2069 45.855 22.9127 47.4604 24.3245C49.0656 25.7362 49.8683 27.7464 49.8683 30.3551V41.2194ZM39.4188 43.9815C40.4789 43.9815 41.4935 43.7052 42.4628 43.1528C43.4623 42.6004 44.2498 41.8331 44.8253 40.8511V35.465H42.0085C39.7065 35.465 38.0255 35.864 36.9655 36.6619C35.9053 37.4292 35.3753 38.5493 35.3753 40.0224C35.3753 41.3114 35.7085 42.2935 36.3748 42.9687C37.0715 43.6439 38.0861 43.9815 39.4188 43.9815ZM69.2956 40.5288C69.2956 42.5851 70.5073 43.6132 72.9302 43.6132C74.1419 43.6132 75.414 43.337 76.7465 42.7845L78.0186 46.3753C76.3526 47.296 74.2931 47.7563 71.8398 47.7563C69.4468 47.7563 67.5691 47.0811 66.2062 45.7308C64.8737 44.3497 64.2071 42.4623 64.2071 40.0685V16.8668H56.9834V13.0919H69.2956V40.5288ZM90.2222 36.6619C90.3734 39.025 91.04 40.805 92.2212 42.002C93.4329 43.1682 94.9472 43.7513 96.7645 43.7513C97.8853 43.7513 98.9452 43.5825 99.9447 43.2449C100.975 42.8766 102.02 42.3395 103.08 41.6337L105.26 44.7641C104.139 45.7155 102.822 46.452 101.308 46.9737C99.7935 47.4954 98.2033 47.7563 96.5373 47.7563C92.8722 47.7563 90.0255 46.6055 87.996 44.3037C85.9665 41.9712 84.952 38.8716 84.952 35.0046C84.952 32.5801 85.3914 30.4011 86.2696 28.4676C87.1477 26.5035 88.4198 24.969 90.0859 23.8641C91.7519 22.7593 93.69 22.2069 95.9012 22.2069C99.0815 22.2069 101.595 23.2964 103.443 25.4754C105.321 27.6237 106.26 30.5853 106.26 34.3601C106.26 35.2808 106.214 36.0481 106.124 36.6619H90.2222ZM95.9467 26.0278C94.3111 26.0278 92.9786 26.6262 91.9486 27.8231C90.9186 29.0201 90.328 30.8001 90.1768 33.1632H101.308C101.247 30.8615 100.763 29.0968 99.8539 27.8692C98.9452 26.6416 97.6426 26.0278 95.9467 26.0278ZM133.274 45.8689C132.366 46.452 131.306 46.9124 130.094 47.25C128.882 47.5875 127.61 47.7563 126.278 47.7563C123.552 47.7563 121.447 47.0505 119.963 45.6387C118.478 44.1963 117.737 42.2475 117.737 39.7923V26.6262H112.421V22.8514H117.737V17.4192L122.825 16.8208V22.8514H130.957L130.367 26.6262H122.825V39.7462C122.825 41.0659 123.158 42.048 123.824 42.6925C124.491 43.3063 125.551 43.6132 127.005 43.6132C128.61 43.6132 130.094 43.2296 131.457 42.4623L133.274 45.8689ZM160.516 45.8689C159.607 46.452 158.548 46.9124 157.336 47.25C156.124 47.5875 154.852 47.7563 153.52 47.7563C150.794 47.7563 148.689 47.0505 147.204 45.6387C145.72 44.1963 144.978 42.2475 144.978 39.7923V26.6262H139.663V22.8514H144.978V17.4192L150.067 16.8208V22.8514H158.199L157.608 26.6262H150.067V39.7462C150.067 41.0659 150.4 42.048 151.066 42.6925C151.733 43.3063 152.793 43.6132 154.246 43.6132C155.852 43.6132 157.336 43.2296 158.699 42.4623L160.516 45.8689ZM171.947 36.6619C172.099 39.025 172.765 40.805 173.946 42.002C175.158 43.1682 176.672 43.7513 178.49 43.7513C179.611 43.7513 180.67 43.5825 181.67 43.2449C182.7 42.8766 183.745 42.3395 184.805 41.6337L186.986 44.7641C185.865 45.7155 184.547 46.452 183.033 46.9737C181.519 47.4954 179.929 47.7563 178.262 47.7563C174.597 47.7563 171.751 46.6055 169.721 44.3037C167.692 41.9712 166.677 38.8716 166.677 35.0046C166.677 32.5801 167.117 30.4011 167.995 28.4676C168.873 26.5035 170.145 24.969 171.811 23.8641C173.477 22.7593 175.415 22.2069 177.626 22.2069C180.807 22.2069 183.32 23.2964 185.168 25.4754C187.046 27.6237 187.985 30.5853 187.985 34.3601C187.985 35.2808 187.94 36.0481 187.849 36.6619H171.947ZM177.672 26.0278C176.036 26.0278 174.704 26.6262 173.674 27.8231C172.644 29.0201 172.053 30.8001 171.902 33.1632H183.033C182.972 30.8615 182.488 29.0968 181.579 27.8692C180.67 26.6416 179.368 26.0278 177.672 26.0278Z" fill="#9FA6B9"/>
<path d="M219.163 22.2068C220.647 22.2068 221.813 22.7286 222.661 23.772C223.509 24.8155 223.933 26.5955 223.933 29.1121V47.1579H219.435V29.8026C219.435 28.4523 219.33 27.5162 219.117 26.9945C218.936 26.4728 218.512 26.2119 217.845 26.2119C216.573 26.2119 215.392 27.0252 214.301 28.6518V47.1579H210.167V29.8026C210.167 28.4523 210.061 27.5162 209.849 26.9945C209.667 26.4728 209.243 26.2119 208.577 26.2119C207.305 26.2119 206.124 27.0252 205.033 28.6518V47.1579H200.49V22.8513H204.306L204.67 25.4753C205.427 24.4012 206.2 23.5879 206.987 23.0355C207.774 22.4831 208.713 22.2068 209.804 22.2068C211.924 22.2068 213.287 23.2349 213.893 25.2912C214.619 24.3091 215.407 23.5572 216.255 23.0355C217.103 22.4831 218.072 22.2068 219.163 22.2068Z" fill="#9FA6B9"/>
<path d="M286.962 10.9283C287.931 10.9283 288.719 11.2505 289.325 11.895C289.961 12.5088 290.279 13.2761 290.279 14.1968C290.279 15.1175 289.961 15.8847 289.325 16.4985C288.719 17.1123 287.931 17.4192 286.962 17.4192C285.963 17.4192 285.16 17.1123 284.554 16.4985C283.949 15.8847 283.646 15.1175 283.646 14.1968C283.646 13.2454 283.949 12.4628 284.554 11.849C285.19 11.2352 285.993 10.9283 286.962 10.9283ZM290.461 43.383H297.003V47.1579H278.239V43.383H285.372V26.6262H278.466V22.8514H290.461V43.383ZM315.158 40.5288C315.158 42.5851 316.37 43.6132 318.793 43.6132C320.004 43.6132 321.277 43.337 322.609 42.7846L323.881 46.3753C322.215 47.296 320.156 47.7564 317.702 47.7564C315.309 47.7564 313.432 47.0812 312.069 45.7308C310.736 44.3498 310.07 42.4623 310.07 40.0685V16.8668H302.846V13.0919H315.158V40.5288Z" fill="#9FA6B9"/>
<path d="M256.499 9.93573C261.618 9.93573 265.253 11.593 267.403 14.9075C269.584 18.1913 270.674 22.9023 270.674 29.0403C270.674 33.1527 270.462 36.498 270.038 39.0759C269.644 41.6539 268.917 43.6181 267.857 44.9684C266.827 46.3188 265.374 46.994 263.496 46.994C261.86 46.994 260.588 46.3955 259.68 45.1986C258.801 44.0324 258.256 42.5132 258.044 40.6411H257.862C257.317 41.8994 256.499 42.9276 255.409 43.7255C254.319 44.5234 253.016 44.9224 251.502 44.9224C248.958 44.9224 247.095 43.971 245.914 42.0682C244.732 40.1655 244.142 37.6181 244.142 34.4264C244.142 30.5287 244.945 27.4904 246.55 25.3114C248.185 23.1325 250.608 22.043 253.819 22.043C255.06 22.043 256.333 22.2118 257.635 22.5493C258.968 22.8869 260.24 23.3933 261.451 24.0685V37.879C261.451 39.5363 261.588 40.7179 261.86 41.4237C262.163 42.1296 262.633 42.4825 263.269 42.4825C263.844 42.4825 264.268 42.0682 264.541 41.2396C264.813 40.411 264.98 39.1373 265.041 37.4187C265.132 35.6693 265.177 33.0146 265.177 29.4546C265.177 26.048 264.919 23.2706 264.405 21.1223C263.89 18.9433 262.966 17.286 261.633 16.1505C260.331 15.0149 258.498 14.4472 256.136 14.4472C254.44 14.4472 252.789 14.7847 251.184 15.4599C249.579 16.1044 247.928 17.1786 246.232 18.6824L243.369 15.2758C245.429 13.4344 247.504 12.0841 249.594 11.2247C251.714 10.3654 254.016 9.93573 256.499 9.93573ZM253.683 26.6004C252.865 26.6004 252.229 26.8459 251.774 27.337C251.351 27.8281 251.047 28.626 250.866 29.7308C250.684 30.8357 250.593 32.4009 250.593 34.4264C250.593 36.5747 250.744 38.1092 251.047 39.0299C251.38 39.9199 251.971 40.3649 252.819 40.3649C253.698 40.3649 254.319 40.058 254.682 39.4442C255.046 38.8304 255.288 38.0478 255.409 37.0964V27.0147C254.864 26.7385 254.288 26.6004 253.683 26.6004Z" fill="#9FA6B9"/>
<path d="M236.581 52.772C239.641 52.772 242.122 50.2585 242.122 47.1579C242.122 44.0574 239.641 41.5439 236.581 41.5439C233.521 41.5439 231.041 44.0574 231.041 47.1579C231.041 50.2585 233.521 52.772 236.581 52.772Z" fill="#3A4A74"/>
<path d="M249.601 64C253.732 64 257.081 60.6068 257.081 56.421C257.081 52.2353 253.732 48.8421 249.601 48.8421C245.47 48.8421 242.122 52.2353 242.122 56.421C242.122 60.6068 245.47 64 249.601 64Z" fill="#1F3148"/>
<path d="M234.365 38.1754C236.813 38.1754 238.797 36.1647 238.797 33.6842C238.797 31.2038 236.813 29.193 234.365 29.193C231.917 29.193 229.932 31.2038 229.932 33.6842C229.932 36.1647 231.917 38.1754 234.365 38.1754Z" fill="#689BDD"/>
<path d="M238.243 25.8246C240.385 25.8246 242.122 24.0651 242.122 21.8947C242.122 19.7243 240.385 17.9649 238.243 17.9649C236.101 17.9649 234.365 19.7243 234.365 21.8947C234.365 24.0651 236.101 25.8246 238.243 25.8246Z" fill="#9AB1EA"/>
</g>
<defs>
<clipPath id="clip0_834_606">
<rect width="328" height="64" fill="white"/>
</clipPath>
</defs>
</svg>
