<svg width="255" height="48" viewBox="0 0 255 48" fill="none" xmlns="http://www.w3.org/2000/svg">
<g clip-path="url(#clip0_834_624)">
<path d="M12.4338 17.6552C16.9549 17.6552 19.2155 20.8431 19.2155 27.219C19.2155 30.0961 18.5914 32.4209 17.3435 34.1933C16.0955 35.9426 14.3176 36.8173 12.01 36.8173C10.0556 36.8173 8.4779 36.1498 7.27699 34.8148V43.3773L3.32104 43.8261V18.1385H6.74717L6.99442 20.4863C7.70084 19.5656 8.51322 18.8636 9.43156 18.3802C10.3735 17.8969 11.3742 17.6552 12.4338 17.6552ZM11.3389 20.6244C10.5148 20.6244 9.76121 20.8661 9.07836 21.3495C8.3955 21.8329 7.79504 22.4658 7.27699 23.2484V31.7764C8.19533 33.1345 9.41981 33.8135 10.9504 33.8135C12.3161 33.8135 13.3404 33.2841 14.0233 32.2253C14.7061 31.1665 15.0476 29.5092 15.0476 27.2535C15.0476 24.9287 14.7415 23.2484 14.1293 22.2127C13.517 21.1538 12.5869 20.6244 11.3389 20.6244ZM38.7695 31.9145C38.7695 32.6051 38.8755 33.123 39.0874 33.4682C39.2993 33.7905 39.6643 34.0321 40.1823 34.1933L39.264 36.8173C37.3095 36.5871 36.0262 35.747 35.414 34.2969C34.7311 35.1255 33.8716 35.7585 32.8356 36.1958C31.823 36.6101 30.7045 36.8173 29.4801 36.8173C27.5963 36.8173 26.101 36.2994 24.9943 35.2636C23.8876 34.2278 23.3342 32.8583 23.3342 31.155C23.3342 29.2445 24.0995 27.7714 25.6301 26.7356C27.1842 25.6998 29.3741 25.1819 32.1998 25.1819H34.8489V24.008C34.8489 22.8572 34.4957 22.017 33.7892 21.4876C33.0828 20.9582 32.0585 20.6935 30.7163 20.6935C30.057 20.6935 29.2917 20.774 28.4205 20.9352C27.5492 21.0963 26.6662 21.3265 25.7714 21.6257L24.7824 18.8981C27.0194 18.0695 29.1975 17.6552 31.3168 17.6552C33.7892 17.6552 35.6494 18.1846 36.8975 19.2434C38.1455 20.3022 38.7695 21.8098 38.7695 23.7663V31.9145ZM30.6457 33.9861C31.4698 33.9861 32.2586 33.779 33.0122 33.3647C33.7892 32.9503 34.4014 32.3749 34.8489 31.6383V27.5988H32.659C30.8694 27.5988 29.5625 27.898 28.7383 28.4964C27.9142 29.0719 27.5021 29.912 27.5021 31.0169C27.5021 31.9836 27.7611 32.7201 28.2792 33.2265C28.8207 33.733 29.6096 33.9861 30.6457 33.9861ZM53.873 31.3967C53.873 32.9388 54.8151 33.7099 56.6987 33.7099C57.6407 33.7099 58.6297 33.5028 59.6657 33.0884L60.6546 35.7815C59.3594 36.472 57.7583 36.8173 55.851 36.8173C53.9906 36.8173 52.5308 36.3109 51.4712 35.2981C50.4353 34.2623 49.9171 32.8468 49.9171 31.0514V13.6501H44.301V10.819H53.873V31.3967ZM70.1422 28.4964C70.2598 30.2688 70.778 31.6038 71.6963 32.5015C72.6384 33.3762 73.8156 33.8135 75.2284 33.8135C76.0998 33.8135 76.9238 33.6869 77.7009 33.4337C78.5016 33.1575 79.314 32.7547 80.138 32.2253L81.8334 34.5731C80.962 35.2866 79.9377 35.8391 78.7605 36.2303C77.5833 36.6216 76.3471 36.8173 75.0518 36.8173C72.2024 36.8173 69.9893 35.9541 68.4115 34.2278C66.8337 32.4785 66.045 30.1537 66.045 27.2535C66.045 25.4351 66.3865 23.8009 67.0693 22.3508C67.752 20.8776 68.741 19.7268 70.0362 18.8981C71.3315 18.0695 72.8382 17.6552 74.5573 17.6552C77.0298 17.6552 78.9841 18.4723 80.4206 20.1065C81.8804 21.7178 82.6105 23.939 82.6105 26.7701C82.6105 27.4607 82.5752 28.0361 82.5045 28.4964H70.1422ZM74.5926 20.5209C73.3211 20.5209 72.2851 20.9697 71.4844 21.8674C70.6836 22.7651 70.2245 24.1001 70.1069 25.8724H78.7605C78.7136 24.1461 78.3367 22.8226 77.6302 21.9019C76.9238 20.9812 75.9111 20.5209 74.5926 20.5209ZM103.613 35.4017C102.906 35.8391 102.082 36.1843 101.14 36.4375C100.198 36.6907 99.2092 36.8173 98.1732 36.8173C96.054 36.8173 94.4176 36.2879 93.2636 35.2291C92.1097 34.1473 91.5329 32.6856 91.5329 30.8442V20.9697H87.4004V18.1385H91.5329V14.0644L95.4889 13.6156V18.1385H101.811L101.352 20.9697H95.4889V30.8097C95.4889 31.7995 95.7477 32.536 96.2659 33.0194C96.7841 33.4797 97.6081 33.7099 98.7384 33.7099C99.9862 33.7099 101.14 33.4222 102.2 32.8468L103.613 35.4017ZM124.791 35.4017C124.085 35.8391 123.261 36.1843 122.319 36.4375C121.377 36.6907 120.388 36.8173 119.352 36.8173C117.233 36.8173 115.596 36.2879 114.442 35.2291C113.288 34.1473 112.712 32.6856 112.712 30.8442V20.9697H108.579V18.1385H112.712V14.0644L116.668 13.6156V18.1385H122.99L122.531 20.9697H116.668V30.8097C116.668 31.7995 116.927 32.536 117.445 33.0194C117.963 33.4797 118.787 33.7099 119.917 33.7099C121.165 33.7099 122.319 33.4222 123.379 32.8468L124.791 35.4017ZM133.679 28.4964C133.796 30.2688 134.314 31.6038 135.233 32.5015C136.175 33.3762 137.352 33.8135 138.765 33.8135C139.636 33.8135 140.46 33.6869 141.237 33.4337C142.038 33.1575 142.85 32.7547 143.674 32.2253L145.37 34.5731C144.498 35.2866 143.474 35.8391 142.297 36.2303C141.12 36.6216 139.883 36.8173 138.588 36.8173C135.739 36.8173 133.526 35.9541 131.948 34.2278C130.37 32.4785 129.581 30.1537 129.581 27.2535C129.581 25.4351 129.923 23.8009 130.606 22.3508C131.288 20.8776 132.277 19.7268 133.573 18.8981C134.868 18.0695 136.375 17.6552 138.094 17.6552C140.566 17.6552 142.52 18.4723 143.957 20.1065C145.417 21.7178 146.147 23.939 146.147 26.7701C146.147 27.4607 146.112 28.0361 146.041 28.4964H133.679ZM138.129 20.5209C136.857 20.5209 135.822 20.9697 135.021 21.8674C134.22 22.7651 133.761 24.1001 133.643 25.8724H142.297C142.25 24.1461 141.873 22.8226 141.167 21.9019C140.46 20.9812 139.447 20.5209 138.129 20.5209Z" fill="#3F4555"/>
<path d="M170.386 17.6552C171.54 17.6552 172.446 18.0464 173.105 18.829C173.765 19.6117 174.094 20.9466 174.094 22.8341V36.3684H170.597V23.352C170.597 22.3392 170.515 21.6372 170.35 21.2459C170.209 20.8546 169.879 20.6589 169.361 20.6589C168.372 20.6589 167.454 21.2689 166.606 22.4888V36.3684H163.392V23.352C163.392 22.3392 163.31 21.6372 163.145 21.2459C163.003 20.8546 162.674 20.6589 162.156 20.6589C161.167 20.6589 160.248 21.2689 159.401 22.4888V36.3684H155.869V18.1385H158.836L159.118 20.1065C159.707 19.3009 160.307 18.6909 160.92 18.2766C161.532 17.8623 162.262 17.6552 163.109 17.6552C164.758 17.6552 165.818 18.4262 166.288 19.9684C166.853 19.2319 167.466 18.6679 168.125 18.2766C168.784 17.8623 169.538 17.6552 170.386 17.6552Z" fill="#3F4555"/>
<path d="M223.096 9.19623C223.849 9.19623 224.461 9.43791 224.932 9.92128C225.427 10.3816 225.674 10.9571 225.674 11.6476C225.674 12.3381 225.427 12.9136 224.932 13.3739C224.461 13.8342 223.849 14.0644 223.096 14.0644C222.319 14.0644 221.694 13.8342 221.224 13.3739C220.753 12.9136 220.517 12.3381 220.517 11.6476C220.517 10.934 220.753 10.3471 221.224 9.88675C221.718 9.42642 222.342 9.19623 223.096 9.19623ZM225.815 33.5373H230.902V36.3684H216.314V33.5373H221.859V20.9697H216.491V18.1385H225.815V33.5373ZM245.016 31.3967C245.016 32.9388 245.958 33.7099 247.842 33.7099C248.784 33.7099 249.773 33.5028 250.809 33.0884L251.798 35.7815C250.502 36.472 248.901 36.8173 246.994 36.8173C245.134 36.8173 243.674 36.3109 242.614 35.2981C241.578 34.2623 241.06 32.8468 241.06 31.0514V13.6501H235.444V10.819H245.016V31.3967Z" fill="#3F4555"/>
<path d="M199.413 8.45178C203.392 8.45178 206.218 9.69473 207.89 12.1806C209.585 14.6435 210.433 18.1767 210.433 22.7802C210.433 25.8645 210.268 28.3735 209.938 30.3069C209.632 32.2404 209.067 33.7136 208.243 34.7263C207.442 35.7391 206.312 36.2455 204.852 36.2455C203.58 36.2455 202.591 35.7966 201.885 34.8989C201.202 34.0243 200.778 32.8849 200.613 31.4808H200.472C200.048 32.4245 199.413 33.1957 198.565 33.7941C197.717 34.3925 196.704 34.6918 195.527 34.6918C193.549 34.6918 192.101 33.9782 191.183 32.5512C190.264 31.1241 189.805 29.2136 189.805 26.8198C189.805 23.8965 190.429 21.6178 191.677 19.9836C192.949 18.3493 194.832 17.5322 197.329 17.5322C198.294 17.5322 199.283 17.6588 200.296 17.912C201.332 18.1652 202.321 18.545 203.263 19.0514V29.4093C203.263 30.6522 203.369 31.5384 203.58 32.0678C203.816 32.5972 204.181 32.8619 204.675 32.8619C205.123 32.8619 205.452 32.5512 205.664 31.9297C205.876 31.3082 206.006 30.353 206.053 29.064C206.124 27.752 206.159 25.761 206.159 23.0909C206.159 20.536 205.959 18.4529 205.558 16.8417C205.158 15.2074 204.44 13.9645 203.404 13.1128C202.391 12.2612 200.967 11.8354 199.13 11.8354C197.812 11.8354 196.528 12.0885 195.28 12.5949C194.032 13.0783 192.749 13.8839 191.43 15.0118L189.205 12.4568C190.806 11.0758 192.419 10.063 194.044 9.41852C195.692 8.77401 197.482 8.45178 199.413 8.45178ZM197.223 20.9503C196.587 20.9503 196.092 21.1344 195.739 21.5027C195.41 21.871 195.174 22.4695 195.033 23.2981C194.892 24.1267 194.821 25.3006 194.821 26.8198C194.821 28.431 194.938 29.5819 195.174 30.2724C195.433 30.9399 195.892 31.2737 196.552 31.2737C197.234 31.2737 197.717 31.0435 198 30.5832C198.282 30.1228 198.471 29.5359 198.565 28.8223V21.261C198.141 21.0539 197.693 20.9503 197.223 20.9503Z" fill="#3F4555"/>
<path d="M183.927 39.579C186.306 39.579 188.235 37.6938 188.235 35.3684C188.235 33.043 186.306 31.1579 183.927 31.1579C181.548 31.1579 179.62 33.043 179.62 35.3684C179.62 37.6938 181.548 39.579 183.927 39.579Z" fill="#3A4A74"/>
<path d="M194.05 48C197.261 48 199.865 45.4551 199.865 42.3158C199.865 39.1765 197.261 36.6316 194.05 36.6316C190.838 36.6316 188.235 39.1765 188.235 42.3158C188.235 45.4551 190.838 48 194.05 48Z" fill="#1F3148"/>
<path d="M182.204 29.6316C184.108 29.6316 185.65 28.1235 185.65 26.2631C185.65 24.4028 184.108 22.8947 182.204 22.8947C180.301 22.8947 178.759 24.4028 178.759 26.2631C178.759 28.1235 180.301 29.6316 182.204 29.6316Z" fill="#689BDD"/>
<path d="M185.22 19.3684C186.885 19.3684 188.235 18.0488 188.235 16.4211C188.235 14.7933 186.885 13.4737 185.22 13.4737C183.554 13.4737 182.204 14.7933 182.204 16.4211C182.204 18.0488 183.554 19.3684 185.22 19.3684Z" fill="#9AB1EA"/>
</g>
<defs>
<clipPath id="clip0_834_624">
<rect width="255" height="48" fill="white"/>
</clipPath>
</defs>
</svg>
